<ttFont>
    <TTGlyph name=".notdef" xMin="111" yMin="-101" xMax="2366" yMax="1268">
      <contour>
        <pt x="1458" y="461" on="1"/>
        <pt x="1485" y="461" on="0"/>
        <pt x="1516" y="492" on="0"/>
        <pt x="1531" y="535" on="0"/>
        <pt x="1532" y="582" on="0"/>
        <pt x="1530" y="598" on="1"/>
        <pt x="1528" y="606" on="0"/>
        <pt x="1526" y="601" on="0"/>
        <pt x="1524" y="598" on="1"/>
        <pt x="1516" y="553" on="0"/>
        <pt x="1487" y="497" on="0"/>
        <pt x="1468" y="481" on="1"/>
        <pt x="1442" y="520" on="0"/>
        <pt x="1442" y="582" on="1"/>
        <pt x="1458" y="589" on="0"/>
        <pt x="1483" y="624" on="0"/>
        <pt x="1500" y="671" on="0"/>
        <pt x="1509" y="724" on="0"/>
        <pt x="1509" y="750" on="1"/>
        <pt x="1509" y="803" on="0"/>
        <pt x="1473" y="854" on="0"/>
        <pt x="1421" y="862" on="1"/>
        <pt x="1404" y="830" on="0"/>
        <pt x="1382" y="748" on="0"/>
        <pt x="1373" y="657" on="0"/>
        <pt x="1376" y="564" on="0"/>
        <pt x="1384" y="522" on="1"/>
        <pt x="1386" y="516" on="1"/>
        <pt x="1384" y="512" on="0"/>
        <pt x="1377" y="500" on="0"/>
        <pt x="1369" y="488" on="0"/>
        <pt x="1360" y="480" on="0"/>
        <pt x="1356" y="481" on="1"/>
        <pt x="1350" y="503" on="0"/>
        <pt x="1344" y="560" on="0"/>
        <pt x="1345" y="618" on="0"/>
        <pt x="1350" y="675" on="0"/>
        <pt x="1354" y="698" on="1"/>
        <pt x="1346" y="706" on="0"/>
        <pt x="1311" y="719" on="0"/>
        <pt x="1300" y="717" on="1"/>
        <pt x="1299" y="715" on="0"/>
        <pt x="1296" y="704" on="0"/>
        <pt x="1293" y="690" on="0"/>
        <pt x="1290" y="678" on="0"/>
        <pt x="1290" y="676" on="1"/>
        <pt x="1269" y="682" on="0"/>
        <pt x="1247" y="682" on="1"/>
        <pt x="1226" y="660" on="0"/>
        <pt x="1210" y="603" on="0"/>
        <pt x="1208" y="571" on="1"/>
        <pt x="1208" y="541" on="1"/>
        <pt x="1202" y="525" on="0"/>
        <pt x="1181" y="491" on="0"/>
        <pt x="1165" y="483" on="1"/>
        <pt x="1157" y="490" on="0"/>
        <pt x="1148" y="512" on="0"/>
        <pt x="1145" y="524" on="1"/>
        <pt x="1157" y="528" on="0"/>
        <pt x="1176" y="548" on="0"/>
        <pt x="1189" y="574" on="0"/>
        <pt x="1196" y="604" on="0"/>
        <pt x="1196" y="618" on="1"/>
        <pt x="1196" y="663" on="0"/>
        <pt x="1146" y="697" on="0"/>
        <pt x="1108" y="694" on="1"/>
        <pt x="1097" y="676" on="0"/>
        <pt x="1085" y="607" on="0"/>
        <pt x="1083" y="575" on="1"/>
        <pt x="1082" y="554" on="0"/>
        <pt x="1090" y="515" on="0"/>
        <pt x="1109" y="485" on="0"/>
        <pt x="1140" y="467" on="0"/>
        <pt x="1163" y="467" on="1"/>
        <pt x="1183" y="469" on="0"/>
        <pt x="1209" y="489" on="0"/>
        <pt x="1217" y="502" on="1"/>
        <pt x="1222" y="486" on="0"/>
        <pt x="1247" y="465" on="0"/>
        <pt x="1270" y="467" on="1"/>
        <pt x="1281" y="467" on="0"/>
        <pt x="1306" y="483" on="0"/>
        <pt x="1309" y="496" on="1"/>
        <pt x="1314" y="483" on="0"/>
        <pt x="1339" y="461" on="0"/>
        <pt x="1356" y="461" on="1"/>
        <pt x="1371" y="461" on="0"/>
        <pt x="1390" y="482" on="0"/>
        <pt x="1395" y="496" on="1"/>
        <pt x="1404" y="477" on="0"/>
        <pt x="1437" y="461" on="0"/>
      </contour>
      <contour>
        <pt x="895" y="688" on="1"/>
        <pt x="883" y="702" on="0"/>
        <pt x="841" y="719" on="0"/>
        <pt x="825" y="717" on="1"/>
        <pt x="827" y="700" on="0"/>
        <pt x="835" y="652" on="0"/>
        <pt x="840" y="597" on="0"/>
        <pt x="840" y="538" on="0"/>
        <pt x="834" y="510" on="1"/>
        <pt x="832" y="507" on="0"/>
        <pt x="827" y="496" on="0"/>
        <pt x="821" y="494" on="1"/>
        <pt x="809" y="536" on="0"/>
        <pt x="805" y="624" on="0"/>
        <pt x="807" y="672" on="1"/>
        <pt x="796" y="683" on="0"/>
        <pt x="761" y="692" on="0"/>
        <pt x="752" y="694" on="1"/>
        <pt x="741" y="675" on="0"/>
        <pt x="741" y="631" on="1"/>
        <pt x="741" y="608" on="0"/>
        <pt x="745" y="561" on="0"/>
        <pt x="750" y="541" on="1"/>
        <pt x="745" y="525" on="0"/>
        <pt x="715" y="485" on="0"/>
        <pt x="692" y="477" on="1"/>
        <pt x="673" y="490" on="0"/>
        <pt x="653" y="544" on="0"/>
        <pt x="644" y="611" on="0"/>
        <pt x="647" y="684" on="0"/>
        <pt x="658" y="748" on="0"/>
        <pt x="674" y="797" on="0"/>
        <pt x="684" y="807" on="1"/>
        <pt x="688" y="802" on="0"/>
        <pt x="696" y="779" on="0"/>
        <pt x="702" y="752" on="0"/>
        <pt x="704" y="724" on="0"/>
        <pt x="702" y="713" on="1"/>
        <pt x="700" y="710" on="0"/>
        <pt x="702" y="704" on="0"/>
        <pt x="707" y="711" on="1"/>
        <pt x="724" y="725" on="0"/>
        <pt x="745" y="760" on="0"/>
        <pt x="745" y="780" on="1"/>
        <pt x="745" y="808" on="0"/>
        <pt x="727" y="842" on="0"/>
        <pt x="700" y="863" on="0"/>
        <pt x="669" y="872" on="0"/>
        <pt x="655" y="874" on="1"/>
        <pt x="606" y="832" on="0"/>
        <pt x="567" y="698" on="0"/>
        <pt x="569" y="627" on="1"/>
        <pt x="570" y="595" on="0"/>
        <pt x="584" y="534" on="0"/>
        <pt x="614" y="486" on="0"/>
        <pt x="661" y="457" on="0"/>
        <pt x="696" y="457" on="1"/>
        <pt x="725" y="457" on="0"/>
        <pt x="756" y="489" on="0"/>
        <pt x="762" y="508" on="1"/>
        <pt x="781" y="465" on="0"/>
        <pt x="823" y="465" on="1"/>
        <pt x="828" y="465" on="0"/>
        <pt x="838" y="472" on="0"/>
        <pt x="840" y="475" on="1"/>
        <pt x="837" y="446" on="0"/>
        <pt x="831" y="397" on="0"/>
        <pt x="819" y="357" on="0"/>
        <pt x="798" y="325" on="0"/>
        <pt x="780" y="313" on="1"/>
        <pt x="775" y="332" on="0"/>
        <pt x="779" y="372" on="0"/>
        <pt x="782" y="389" on="1"/>
        <pt x="770" y="402" on="0"/>
        <pt x="738" y="412" on="0"/>
        <pt x="723" y="412" on="1"/>
        <pt x="720" y="399" on="0"/>
        <pt x="715" y="372" on="0"/>
        <pt x="715" y="358" on="1"/>
        <pt x="715" y="326" on="0"/>
        <pt x="736" y="293" on="0"/>
        <pt x="768" y="293" on="1"/>
        <pt x="811" y="293" on="0"/>
        <pt x="868" y="364" on="0"/>
        <pt x="898" y="477" on="0"/>
        <pt x="904" y="618" on="0"/>
      </contour>
      <contour>
        <pt x="903" y="698" on="1"/>
        <pt x="913" y="675" on="0"/>
        <pt x="925" y="615" on="0"/>
        <pt x="931" y="552" on="0"/>
        <pt x="934" y="489" on="0"/>
        <pt x="936" y="463" on="1"/>
        <pt x="956" y="460" on="0"/>
        <pt x="980" y="481" on="0"/>
        <pt x="985" y="500" on="1"/>
        <pt x="990" y="512" on="0"/>
        <pt x="991" y="555" on="0"/>
        <pt x="991" y="569" on="1"/>
        <pt x="996" y="586" on="0"/>
        <pt x="1014" y="612" on="0"/>
        <pt x="1020" y="625" on="1"/>
        <pt x="1026" y="575" on="0"/>
        <pt x="1075" y="588" on="1"/>
        <pt x="1072" y="609" on="0"/>
        <pt x="1074" y="662" on="0"/>
        <pt x="1079" y="684" on="1"/>
        <pt x="1071" y="695" on="0"/>
        <pt x="1041" y="707" on="0"/>
        <pt x="1022" y="707" on="1"/>
        <pt x="1019" y="700" on="0"/>
        <pt x="1012" y="678" on="0"/>
        <pt x="1012" y="670" on="1"/>
        <pt x="1009" y="657" on="0"/>
        <pt x="996" y="630" on="0"/>
        <pt x="985" y="610" on="1"/>
        <pt x="982" y="658" on="0"/>
        <pt x="967" y="682" on="1"/>
        <pt x="958" y="692" on="0"/>
        <pt x="942" y="694" on="1"/>
        <pt x="928" y="698" on="0"/>
      </contour>
      <contour>
        <pt x="1268" y="487" on="1"/>
        <pt x="1262" y="506" on="0"/>
        <pt x="1262" y="555" on="0"/>
        <pt x="1268" y="602" on="0"/>
        <pt x="1279" y="639" on="0"/>
        <pt x="1286" y="647" on="1"/>
        <pt x="1285" y="639" on="0"/>
        <pt x="1285" y="613" on="0"/>
        <pt x="1287" y="580" on="0"/>
        <pt x="1291" y="544" on="0"/>
        <pt x="1296" y="528" on="1"/>
        <pt x="1294" y="516" on="0"/>
        <pt x="1276" y="494" on="0"/>
      </contour>
      <contour>
        <pt x="1442" y="608" on="1"/>
        <pt x="1444" y="655" on="0"/>
        <pt x="1459" y="751" on="0"/>
        <pt x="1468" y="788" on="1"/>
        <pt x="1471" y="770" on="0"/>
        <pt x="1471" y="721" on="0"/>
        <pt x="1465" y="669" on="0"/>
        <pt x="1452" y="623" on="0"/>
      </contour>
      <contour>
        <pt x="1159" y="649" on="1"/>
        <pt x="1164" y="644" on="0"/>
        <pt x="1171" y="624" on="0"/>
        <pt x="1171" y="610" on="1"/>
        <pt x="1171" y="589" on="0"/>
        <pt x="1157" y="548" on="0"/>
        <pt x="1145" y="545" on="1"/>
        <pt x="1145" y="574" on="0"/>
        <pt x="1151" y="626" on="0"/>
      </contour>
      <contour>
        <pt x="1014" y="201" on="1"/>
        <pt x="985" y="201" on="0"/>
        <pt x="958" y="202" on="1"/>
        <pt x="957" y="199" on="0"/>
        <pt x="955" y="193" on="1"/>
        <pt x="952" y="186" on="0"/>
        <pt x="942" y="173" on="0"/>
        <pt x="928" y="162" on="0"/>
        <pt x="920" y="162" on="1"/>
        <pt x="929" y="154" on="0"/>
        <pt x="942" y="139" on="0"/>
        <pt x="942" y="131" on="1"/>
        <pt x="942" y="126" on="0"/>
        <pt x="911" y="113" on="0"/>
        <pt x="861" y="95" on="0"/>
        <pt x="797" y="71" on="0"/>
        <pt x="764" y="53" on="1"/>
        <pt x="779" y="48" on="0"/>
        <pt x="803" y="42" on="0"/>
        <pt x="823" y="34" on="0"/>
        <pt x="842" y="21" on="0"/>
        <pt x="852" y="10" on="1"/>
        <pt x="850" y="1" on="0"/>
        <pt x="845" y="1" on="0"/>
        <pt x="840" y="-2" on="1"/>
        <pt x="822" y="6" on="0"/>
        <pt x="798" y="17" on="0"/>
        <pt x="776" y="23" on="0"/>
        <pt x="752" y="26" on="0"/>
        <pt x="735" y="27" on="1"/>
        <pt x="697" y="29" on="0"/>
        <pt x="632" y="-11" on="0"/>
        <pt x="604" y="-39" on="1"/>
        <pt x="594" y="-35" on="1"/>
        <pt x="589" y="-33" on="0"/>
        <pt x="586" y="-27" on="1"/>
        <pt x="601" y="-2" on="0"/>
        <pt x="642" y="26" on="0"/>
        <pt x="662" y="35" on="1"/>
        <pt x="623" y="38" on="0"/>
        <pt x="571" y="22" on="0"/>
        <pt x="543" y="8" on="1"/>
        <pt x="538" y="11" on="0"/>
        <pt x="535" y="15" on="0"/>
        <pt x="535" y="23" on="1"/>
        <pt x="558" y="40" on="0"/>
        <pt x="605" y="55" on="0"/>
        <pt x="649" y="60" on="0"/>
        <pt x="689" y="59" on="0"/>
        <pt x="705" y="59" on="1"/>
        <pt x="751" y="82" on="0"/>
        <pt x="853" y="122" on="0"/>
        <pt x="899" y="137" on="1"/>
        <pt x="874" y="162" on="1"/>
        <pt x="861" y="162" on="0"/>
        <pt x="847" y="180" on="0"/>
        <pt x="840" y="201" on="0"/>
        <pt x="839" y="210" on="1"/>
        <pt x="839" y="212" on="1"/>
        <pt x="674" y="235" on="0"/>
        <pt x="571" y="307" on="1"/>
        <pt x="419" y="414" on="0"/>
        <pt x="403" y="637" on="1"/>
        <pt x="399" y="695" on="0"/>
        <pt x="390" y="795" on="0"/>
        <pt x="368" y="875" on="0"/>
        <pt x="329" y="936" on="0"/>
        <pt x="295" y="956" on="1"/>
        <pt x="121" y="989" on="1"/>
        <pt x="118" y="989" on="0"/>
        <pt x="116" y="990" on="1"/>
        <pt x="111" y="992" on="0"/>
        <pt x="115" y="999" on="1"/>
        <pt x="242" y="1059" on="1"/>
        <pt x="242" y="1096" on="0"/>
        <pt x="274" y="1171" on="0"/>
        <pt x="332" y="1231" on="0"/>
        <pt x="413" y="1268" on="0"/>
        <pt x="463" y="1268" on="1"/>
        <pt x="507" y="1268" on="0"/>
        <pt x="582" y="1245" on="0"/>
        <pt x="649" y="1197" on="0"/>
        <pt x="710" y="1121" on="0"/>
        <pt x="741" y="1067" on="1"/>
        <pt x="756" y="1045" on="0"/>
        <pt x="841" y="1013" on="0"/>
        <pt x="971" y="985" on="0"/>
        <pt x="1139" y="959" on="0"/>
        <pt x="1337" y="930" on="0"/>
        <pt x="1557" y="895" on="0"/>
        <pt x="1673" y="872" on="1"/>
        <pt x="1689" y="873" on="0"/>
        <pt x="1763" y="880" on="0"/>
        <pt x="1861" y="889" on="0"/>
        <pt x="1919" y="895" on="1"/>
        <pt x="2035" y="907" on="1"/>
        <pt x="2093" y="913" on="0"/>
        <pt x="2202" y="924" on="0"/>
        <pt x="2287" y="933" on="0"/>
        <pt x="2340" y="938" on="0"/>
        <pt x="2343" y="938" on="1"/>
        <pt x="2350" y="939" on="0"/>
        <pt x="2361" y="930" on="0"/>
        <pt x="2366" y="916" on="0"/>
        <pt x="2362" y="899" on="0"/>
        <pt x="2355" y="893" on="1"/>
        <pt x="2324" y="864" on="0"/>
        <pt x="2233" y="827" on="0"/>
        <pt x="2131" y="800" on="0"/>
        <pt x="2024" y="780" on="0"/>
        <pt x="1928" y="758" on="0"/>
        <pt x="1851" y="729" on="0"/>
        <pt x="1829" y="707" on="1"/>
        <pt x="1789" y="666" on="0"/>
        <pt x="1694" y="559" on="0"/>
        <pt x="1581" y="446" on="0"/>
        <pt x="1449" y="337" on="0"/>
        <pt x="1371" y="294" on="1"/>
        <pt x="1313" y="262" on="0"/>
        <pt x="1247" y="239" on="1"/>
        <pt x="1249" y="231" on="0"/>
        <pt x="1249" y="220" on="1"/>
        <pt x="1249" y="209" on="0"/>
        <pt x="1243" y="183" on="0"/>
        <pt x="1233" y="174" on="1"/>
        <pt x="1245" y="165" on="0"/>
        <pt x="1260" y="155" on="0"/>
        <pt x="1260" y="145" on="1"/>
        <pt x="1260" y="137" on="0"/>
        <pt x="1232" y="115" on="0"/>
        <pt x="1187" y="87" on="0"/>
        <pt x="1132" y="51" on="0"/>
        <pt x="1106" y="29" on="1"/>
        <pt x="1138" y="27" on="0"/>
        <pt x="1198" y="20" on="0"/>
        <pt x="1223" y="4" on="1"/>
        <pt x="1223" y="-1" on="0"/>
        <pt x="1222" y="-6" on="0"/>
        <pt x="1217" y="-12" on="1"/>
        <pt x="1178" y="-3" on="0"/>
        <pt x="1108" y="3" on="0"/>
        <pt x="1073" y="-2" on="1"/>
        <pt x="1036" y="-10" on="0"/>
        <pt x="984" y="-66" on="0"/>
        <pt x="965" y="-98" on="1"/>
        <pt x="951" y="-101" on="0"/>
        <pt x="948" y="-90" on="1"/>
        <pt x="963" y="-36" on="0"/>
        <pt x="1004" y="-10" on="1"/>
        <pt x="984" y="-13" on="0"/>
        <pt x="956" y="-21" on="0"/>
        <pt x="935" y="-31" on="0"/>
        <pt x="915" y="-47" on="0"/>
        <pt x="903" y="-57" on="1"/>
        <pt x="895" y="-52" on="1"/>
        <pt x="893" y="-51" on="0"/>
        <pt x="893" y="-43" on="1"/>
        <pt x="911" y="-19" on="0"/>
        <pt x="949" y="5" on="0"/>
        <pt x="987" y="16" on="0"/>
        <pt x="1024" y="21" on="0"/>
        <pt x="1040" y="25" on="1"/>
        <pt x="1084" y="59" on="0"/>
        <pt x="1172" y="115" on="0"/>
        <pt x="1212" y="141" on="1"/>
        <pt x="1209" y="146" on="0"/>
        <pt x="1193" y="156" on="0"/>
        <pt x="1182" y="162" on="1"/>
        <pt x="1170" y="160" on="0"/>
        <pt x="1150" y="171" on="0"/>
        <pt x="1136" y="188" on="0"/>
        <pt x="1131" y="197" on="1"/>
        <pt x="1128" y="204" on="0"/>
        <pt x="1126" y="208" on="1"/>
        <pt x="1072" y="200" on="0"/>
      </contour>
    </TTGlyph>
    <TTGlyph name="A" xMin="86" yMin="0" xMax="1288" yMax="1452">
      <contour>
        <pt x="371" y="389" on="1"/>
        <pt x="266" y="109" on="1"/>
        <pt x="241" y="44" on="0"/>
        <pt x="178" y="0" on="0"/>
        <pt x="141" y="0" on="1"/>
        <pt x="112" y="0" on="0"/>
        <pt x="86" y="32" on="0"/>
        <pt x="86" y="57" on="1"/>
        <pt x="86" y="78" on="0"/>
        <pt x="96" y="106" on="1"/>
        <pt x="578" y="1403" on="1"/>
        <pt x="587" y="1427" on="0"/>
        <pt x="648" y="1452" on="0"/>
        <pt x="690" y="1452" on="1"/>
        <pt x="735" y="1452" on="0"/>
        <pt x="805" y="1423" on="0"/>
        <pt x="815" y="1397" on="1"/>
        <pt x="1284" y="98" on="1"/>
        <pt x="1288" y="81" on="0"/>
        <pt x="1288" y="68" on="1"/>
        <pt x="1288" y="39" on="0"/>
        <pt x="1250" y="0" on="0"/>
        <pt x="1208" y="0" on="1"/>
        <pt x="1094" y="0" on="0"/>
        <pt x="1055" y="109" on="1"/>
        <pt x="946" y="389" on="1"/>
      </contour>
      <contour>
        <pt x="915" y="496" on="1"/>
        <pt x="668" y="1210" on="1"/>
        <pt x="655" y="1210" on="1"/>
        <pt x="403" y="496" on="1"/>
      </contour>
    </TTGlyph>
    <TTGlyph name="AE" xMin="41" yMin="0" xMax="1806" yMax="1452">
      <contour>
        <pt x="1688" y="1096" on="1"/>
        <pt x="1627" y="1096" on="0"/>
        <pt x="1569" y="1157" on="0"/>
        <pt x="1569" y="1229" on="1"/>
        <pt x="1569" y="1343" on="1"/>
        <pt x="1104" y="1343" on="1"/>
        <pt x="1104" y="807" on="1"/>
        <pt x="1513" y="807" on="1"/>
        <pt x="1541" y="807" on="0"/>
        <pt x="1571" y="773" on="0"/>
        <pt x="1571" y="750" on="1"/>
        <pt x="1571" y="740" on="0"/>
        <pt x="1561" y="720" on="0"/>
        <pt x="1545" y="704" on="0"/>
        <pt x="1524" y="694" on="0"/>
        <pt x="1513" y="694" on="1"/>
        <pt x="1104" y="694" on="1"/>
        <pt x="1104" y="109" on="1"/>
        <pt x="1599" y="109" on="1"/>
        <pt x="1599" y="223" on="1"/>
        <pt x="1599" y="295" on="0"/>
        <pt x="1657" y="356" on="0"/>
        <pt x="1718" y="356" on="1"/>
        <pt x="1763" y="356" on="0"/>
        <pt x="1806" y="308" on="0"/>
        <pt x="1806" y="254" on="1"/>
        <pt x="1806" y="76" on="1"/>
        <pt x="1806" y="31" on="0"/>
        <pt x="1747" y="0" on="0"/>
        <pt x="1683" y="0" on="1"/>
        <pt x="977" y="0" on="1"/>
        <pt x="929" y="0" on="0"/>
        <pt x="883" y="48" on="0"/>
        <pt x="883" y="102" on="1"/>
        <pt x="883" y="389" on="1"/>
        <pt x="395" y="389" on="1"/>
        <pt x="223" y="82" on="1"/>
        <pt x="196" y="34" on="0"/>
        <pt x="136" y="0" on="0"/>
        <pt x="98" y="0" on="1"/>
        <pt x="72" y="2" on="0"/>
        <pt x="41" y="25" on="0"/>
        <pt x="41" y="47" on="1"/>
        <pt x="41" y="72" on="0"/>
        <pt x="61" y="106" on="1"/>
        <pt x="825" y="1403" on="1"/>
        <pt x="839" y="1426" on="0"/>
        <pt x="904" y="1452" on="0"/>
        <pt x="946" y="1452" on="1"/>
        <pt x="1653" y="1452" on="1"/>
        <pt x="1717" y="1452" on="0"/>
        <pt x="1776" y="1421" on="0"/>
        <pt x="1776" y="1376" on="1"/>
        <pt x="1776" y="1198" on="1"/>
        <pt x="1776" y="1144" on="0"/>
        <pt x="1733" y="1096" on="0"/>
      </contour>
      <contour>
        <pt x="883" y="496" on="1"/>
        <pt x="883" y="1208" on="1"/>
        <pt x="870" y="1208" on="1"/>
        <pt x="449" y="496" on="1"/>
      </contour>
    </TTGlyph>
    <TTGlyph name="Aacute" xMin="86" yMin="0" xMax="1288" yMax="1972">
      <component glyphName="A" x="0" y="0" flags="0x204"/>
      <component glyphName="uniF6C9" x="-30" y="0" flags="0x4"/>
    </TTGlyph>
    <TTGlyph name="Accent" xMin="430" yMin="1569" xMax="786" yMax="1972">
      <contour>
        <pt x="563" y="1602" on="1"/>
        <pt x="551" y="1586" on="0"/>
        <pt x="509" y="1569" on="0"/>
        <pt x="487" y="1569" on="1"/>
        <pt x="462" y="1569" on="0"/>
        <pt x="430" y="1589" on="0"/>
        <pt x="430" y="1608" on="1"/>
        <pt x="430" y="1613" on="0"/>
        <pt x="431" y="1622" on="0"/>
        <pt x="434" y="1628" on="1"/>
        <pt x="551" y="1919" on="1"/>
        <pt x="563" y="1947" on="0"/>
        <pt x="633" y="1972" on="0"/>
        <pt x="671" y="1972" on="1"/>
        <pt x="727" y="1972" on="0"/>
        <pt x="786" y="1945" on="0"/>
        <pt x="786" y="1923" on="1"/>
        <pt x="786" y="1912" on="0"/>
        <pt x="780" y="1903" on="1"/>
      </contour>
    </TTGlyph>
    <TTGlyph name="Acircumflex" xMin="86" yMin="0" xMax="1288" yMax="1882">
      <component glyphName="A" x="0" y="0" flags="0x204"/>
      <component glyphName="circumflex" x="113" y="426" flags="0x4"/>
    </TTGlyph>
    <TTGlyph name="Adieresis" xMin="86" yMin="0" xMax="1288" yMax="1886">
      <component glyphName="A" x="0" y="0" flags="0x204"/>
      <component glyphName="uniF6CB" x="35" y="0" flags="0x4"/>
    </TTGlyph>
    <TTGlyph name="Agrave" xMin="86" yMin="0" xMax="1288" yMax="1972">
      <component glyphName="A" x="0" y="0" flags="0x204"/>
      <component glyphName="uniF6CE" x="0" y="0" flags="0x4"/>
    </TTGlyph>
    <TTGlyph name="Aring" xMin="86" yMin="0" xMax="1288" yMax="1989">
      <component glyphName="A" x="0" y="0" flags="0x204"/>
      <component glyphName="uniF40C" x="-38" y="0" flags="0x4"/>
    </TTGlyph>
    <TTGlyph name="Atilde" xMin="86" yMin="0" xMax="1288" yMax="1868">
      <component glyphName="A" x="0" y="0" flags="0x204"/>
      <component glyphName="uniF40D" x="-24" y="0" flags="0x4"/>
    </TTGlyph>
    <TTGlyph name="B" xMin="205" yMin="0" xMax="1249" yMax="1452">
      <contour>
        <pt x="205" y="1350" on="1"/>
        <pt x="205" y="1452" on="0"/>
        <pt x="299" y="1452" on="1"/>
        <pt x="719" y="1452" on="1"/>
        <pt x="1174" y="1452" on="0"/>
        <pt x="1174" y="1087" on="1"/>
        <pt x="1174" y="1037" on="0"/>
        <pt x="1141" y="938" on="0"/>
        <pt x="1081" y="855" on="0"/>
        <pt x="995" y="793" on="0"/>
        <pt x="942" y="780" on="1"/>
        <pt x="942" y="770" on="1"/>
        <pt x="1023" y="755" on="0"/>
        <pt x="1139" y="691" on="0"/>
        <pt x="1214" y="603" on="0"/>
        <pt x="1249" y="494" on="0"/>
        <pt x="1249" y="434" on="1"/>
        <pt x="1249" y="340" on="0"/>
        <pt x="1198" y="203" on="0"/>
        <pt x="1113" y="107" on="0"/>
        <pt x="1004" y="46" on="0"/>
        <pt x="889" y="12" on="0"/>
        <pt x="776" y="0" on="0"/>
        <pt x="729" y="0" on="1"/>
        <pt x="299" y="0" on="1"/>
        <pt x="205" y="0" on="0"/>
        <pt x="205" y="102" on="1"/>
      </contour>
      <contour>
        <pt x="680" y="707" on="1"/>
        <pt x="426" y="707" on="1"/>
        <pt x="426" y="109" on="1"/>
        <pt x="700" y="109" on="1"/>
        <pt x="747" y="109" on="0"/>
        <pt x="858" y="135" on="0"/>
        <pt x="954" y="203" on="0"/>
        <pt x="1018" y="322" on="0"/>
        <pt x="1018" y="414" on="1"/>
        <pt x="1018" y="494" on="0"/>
        <pt x="955" y="605" on="0"/>
        <pt x="856" y="675" on="0"/>
        <pt x="737" y="707" on="0"/>
      </contour>
      <contour>
        <pt x="645" y="1343" on="1"/>
        <pt x="426" y="1343" on="1"/>
        <pt x="426" y="815" on="1"/>
        <pt x="662" y="815" on="1"/>
        <pt x="708" y="815" on="0"/>
        <pt x="808" y="845" on="0"/>
        <pt x="889" y="912" on="0"/>
        <pt x="942" y="1018" on="0"/>
        <pt x="942" y="1094" on="1"/>
        <pt x="942" y="1166" on="0"/>
        <pt x="884" y="1261" on="0"/>
        <pt x="795" y="1319" on="0"/>
        <pt x="691" y="1343" on="0"/>
      </contour>
    </TTGlyph>
    <TTGlyph name="Breve" xMin="406" yMin="1573" xMax="1067" yMax="1888">
      <contour>
        <pt x="1067" y="1831" on="1"/>
        <pt x="1067" y="1723" on="0"/>
        <pt x="882" y="1573" on="0"/>
        <pt x="735" y="1573" on="1"/>
        <pt x="590" y="1573" on="0"/>
        <pt x="406" y="1723" on="0"/>
        <pt x="406" y="1831" on="1"/>
        <pt x="406" y="1855" on="0"/>
        <pt x="437" y="1888" on="0"/>
        <pt x="467" y="1888" on="1"/>
        <pt x="493" y="1888" on="0"/>
        <pt x="538" y="1857" on="0"/>
        <pt x="549" y="1833" on="1"/>
        <pt x="578" y="1762" on="0"/>
        <pt x="668" y="1710" on="0"/>
        <pt x="735" y="1710" on="1"/>
        <pt x="804" y="1710" on="0"/>
        <pt x="895" y="1762" on="0"/>
        <pt x="924" y="1833" on="1"/>
        <pt x="935" y="1857" on="0"/>
        <pt x="980" y="1888" on="0"/>
        <pt x="1006" y="1888" on="1"/>
        <pt x="1036" y="1888" on="0"/>
        <pt x="1067" y="1855" on="0"/>
      </contour>
    </TTGlyph>
    <TTGlyph name="C" xMin="109" yMin="0" xMax="1149" yMax="1452">
      <contour>
        <pt x="1030" y="1083" on="1"/>
        <pt x="970" y="1083" on="0"/>
        <pt x="911" y="1145" on="0"/>
        <pt x="911" y="1217" on="1"/>
        <pt x="911" y="1331" on="1"/>
        <pt x="829" y="1348" on="0"/>
        <pt x="762" y="1348" on="1"/>
        <pt x="665" y="1348" on="0"/>
        <pt x="509" y="1266" on="0"/>
        <pt x="399" y="1105" on="0"/>
        <pt x="340" y="866" on="0"/>
        <pt x="340" y="709" on="1"/>
        <pt x="340" y="536" on="0"/>
        <pt x="399" y="304" on="0"/>
        <pt x="511" y="164" on="0"/>
        <pt x="673" y="106" on="0"/>
        <pt x="776" y="106" on="1"/>
        <pt x="839" y="105" on="0"/>
        <pt x="972" y="137" on="0"/>
        <pt x="1044" y="166" on="1"/>
        <pt x="1083" y="182" on="1"/>
        <pt x="1095" y="186" on="0"/>
        <pt x="1100" y="186" on="1"/>
        <pt x="1120" y="186" on="0"/>
        <pt x="1149" y="148" on="0"/>
        <pt x="1149" y="125" on="1"/>
        <pt x="1149" y="94" on="0"/>
        <pt x="1122" y="84" on="1"/>
        <pt x="1087" y="70" on="1"/>
        <pt x="1000" y="35" on="0"/>
        <pt x="819" y="0" on="0"/>
        <pt x="719" y="0" on="1"/>
        <pt x="563" y="0" on="0"/>
        <pt x="333" y="94" on="0"/>
        <pt x="183" y="276" on="0"/>
        <pt x="109" y="542" on="0"/>
        <pt x="109" y="713" on="1"/>
        <pt x="109" y="903" on="0"/>
        <pt x="204" y="1182" on="0"/>
        <pt x="372" y="1364" on="0"/>
        <pt x="601" y="1452" on="0"/>
        <pt x="735" y="1452" on="1"/>
        <pt x="786" y="1452" on="0"/>
        <pt x="901" y="1442" on="0"/>
        <pt x="1005" y="1422" on="0"/>
        <pt x="1085" y="1393" on="0"/>
        <pt x="1101" y="1374" on="1"/>
        <pt x="1118" y="1354" on="0"/>
        <pt x="1118" y="1309" on="1"/>
        <pt x="1118" y="1186" on="1"/>
        <pt x="1118" y="1132" on="0"/>
        <pt x="1075" y="1083" on="0"/>
      </contour>
    </TTGlyph>
    <TTGlyph name="Ccedilla" xMin="109" yMin="-430" xMax="1149" yMax="1452">
      <contour>
        <pt x="1030" y="1083" on="1"/>
        <pt x="970" y="1083" on="0"/>
        <pt x="911" y="1145" on="0"/>
        <pt x="911" y="1217" on="1"/>
        <pt x="911" y="1331" on="1"/>
        <pt x="829" y="1348" on="0"/>
        <pt x="762" y="1348" on="1"/>
        <pt x="665" y="1348" on="0"/>
        <pt x="509" y="1266" on="0"/>
        <pt x="399" y="1105" on="0"/>
        <pt x="340" y="866" on="0"/>
        <pt x="340" y="709" on="1"/>
        <pt x="340" y="536" on="0"/>
        <pt x="399" y="304" on="0"/>
        <pt x="511" y="164" on="0"/>
        <pt x="673" y="106" on="0"/>
        <pt x="776" y="106" on="1"/>
        <pt x="839" y="105" on="0"/>
        <pt x="972" y="137" on="0"/>
        <pt x="1044" y="166" on="1"/>
        <pt x="1083" y="182" on="1"/>
        <pt x="1095" y="186" on="0"/>
        <pt x="1100" y="186" on="1"/>
        <pt x="1120" y="186" on="0"/>
        <pt x="1149" y="148" on="0"/>
        <pt x="1149" y="125" on="1"/>
        <pt x="1149" y="94" on="0"/>
        <pt x="1122" y="84" on="1"/>
        <pt x="1087" y="70" on="1"/>
        <pt x="1007" y="38" on="0"/>
        <pt x="847" y="2" on="0"/>
        <pt x="766" y="0" on="1"/>
        <pt x="766" y="-86" on="1"/>
        <pt x="812" y="-86" on="0"/>
        <pt x="891" y="-103" on="0"/>
        <pt x="950" y="-141" on="0"/>
        <pt x="983" y="-202" on="0"/>
        <pt x="983" y="-246" on="1"/>
        <pt x="983" y="-288" on="0"/>
        <pt x="947" y="-356" on="0"/>
        <pt x="882" y="-404" on="0"/>
        <pt x="794" y="-430" on="0"/>
        <pt x="743" y="-430" on="1"/>
        <pt x="713" y="-430" on="0"/>
        <pt x="645" y="-418" on="0"/>
        <pt x="587" y="-395" on="0"/>
        <pt x="549" y="-363" on="0"/>
        <pt x="549" y="-342" on="1"/>
        <pt x="549" y="-326" on="0"/>
        <pt x="573" y="-301" on="0"/>
        <pt x="594" y="-301" on="1"/>
        <pt x="598" y="-301" on="0"/>
        <pt x="631" y="-309" on="0"/>
        <pt x="671" y="-318" on="0"/>
        <pt x="709" y="-326" on="0"/>
        <pt x="719" y="-326" on="1"/>
        <pt x="770" y="-326" on="0"/>
        <pt x="819" y="-282" on="0"/>
        <pt x="819" y="-252" on="1"/>
        <pt x="819" y="-225" on="0"/>
        <pt x="801" y="-191" on="0"/>
        <pt x="761" y="-173" on="0"/>
        <pt x="698" y="-166" on="0"/>
        <pt x="653" y="-166" on="1"/>
        <pt x="653" y="2" on="1"/>
        <pt x="109" y="41" on="0"/>
        <pt x="109" y="713" on="1"/>
        <pt x="109" y="903" on="0"/>
        <pt x="204" y="1182" on="0"/>
        <pt x="372" y="1364" on="0"/>
        <pt x="601" y="1452" on="0"/>
        <pt x="735" y="1452" on="1"/>
        <pt x="786" y="1452" on="0"/>
        <pt x="901" y="1442" on="0"/>
        <pt x="1005" y="1422" on="0"/>
        <pt x="1085" y="1393" on="0"/>
        <pt x="1101" y="1374" on="1"/>
        <pt x="1118" y="1354" on="0"/>
        <pt x="1118" y="1309" on="1"/>
        <pt x="1118" y="1186" on="1"/>
        <pt x="1118" y="1132" on="0"/>
        <pt x="1075" y="1083" on="0"/>
      </contour>
    </TTGlyph>
    <TTGlyph name="Cedilla" xMin="532" yMin="-430" xMax="967" yMax="16">
      <contour>
        <pt x="750" y="16" on="1"/>
        <pt x="750" y="-86" on="1"/>
        <pt x="844" y="-86" on="0"/>
        <pt x="967" y="-159" on="0"/>
        <pt x="967" y="-246" on="1"/>
        <pt x="967" y="-330" on="0"/>
        <pt x="832" y="-430" on="0"/>
        <pt x="727" y="-430" on="1"/>
        <pt x="662" y="-430" on="0"/>
        <pt x="532" y="-382" on="0"/>
        <pt x="532" y="-342" on="1"/>
        <pt x="532" y="-326" on="0"/>
        <pt x="557" y="-301" on="0"/>
        <pt x="578" y="-301" on="1"/>
        <pt x="591" y="-301" on="0"/>
        <pt x="678" y="-326" on="0"/>
        <pt x="702" y="-326" on="1"/>
        <pt x="753" y="-326" on="0"/>
        <pt x="803" y="-282" on="0"/>
        <pt x="803" y="-252" on="1"/>
        <pt x="803" y="-198" on="0"/>
        <pt x="727" y="-166" on="0"/>
        <pt x="637" y="-166" on="1"/>
        <pt x="637" y="16" on="1"/>
      </contour>
    </TTGlyph>
    <TTGlyph name="D" xMin="205" yMin="0" xMax="1311" yMax="1452">
      <contour>
        <pt x="205" y="1350" on="1"/>
        <pt x="205" y="1452" on="0"/>
        <pt x="299" y="1452" on="1"/>
        <pt x="592" y="1452" on="1"/>
        <pt x="1311" y="1452" on="0"/>
        <pt x="1311" y="733" on="1"/>
        <pt x="1310" y="591" on="0"/>
        <pt x="1246" y="372" on="0"/>
        <pt x="1138" y="210" on="0"/>
        <pt x="996" y="98" on="0"/>
        <pt x="839" y="30" on="0"/>
        <pt x="676" y="0" on="0"/>
        <pt x="602" y="0" on="1"/>
        <pt x="299" y="0" on="1"/>
        <pt x="205" y="0" on="0"/>
        <pt x="205" y="102" on="1"/>
      </contour>
      <contour>
        <pt x="567" y="1343" on="1"/>
        <pt x="426" y="1343" on="1"/>
        <pt x="426" y="109" on="1"/>
        <pt x="567" y="109" on="1"/>
        <pt x="674" y="112" on="0"/>
        <pt x="861" y="183" on="0"/>
        <pt x="999" y="332" on="0"/>
        <pt x="1079" y="567" on="0"/>
        <pt x="1079" y="733" on="1"/>
        <pt x="1079" y="899" on="0"/>
        <pt x="1001" y="1131" on="0"/>
        <pt x="863" y="1277" on="0"/>
        <pt x="676" y="1343" on="0"/>
      </contour>
    </TTGlyph>
    <TTGlyph name="Dotaccent" xMin="164" yMin="1604" xMax="444" yMax="1884">
      <contour>
        <pt x="164" y="1743" on="1"/>
        <pt x="164" y="1801" on="0"/>
        <pt x="247" y="1884" on="0"/>
        <pt x="359" y="1884" on="0"/>
        <pt x="444" y="1801" on="0"/>
        <pt x="444" y="1743" on="1"/>
        <pt x="444" y="1689" on="0"/>
        <pt x="358" y="1604" on="0"/>
        <pt x="248" y="1604" on="0"/>
        <pt x="164" y="1689" on="0"/>
      </contour>
    </TTGlyph>
    <TTGlyph name="E" xMin="205" yMin="0" xMax="1149" yMax="1452">
      <contour>
        <pt x="1030" y="1096" on="1"/>
        <pt x="969" y="1096" on="0"/>
        <pt x="911" y="1157" on="0"/>
        <pt x="911" y="1229" on="1"/>
        <pt x="911" y="1343" on="1"/>
        <pt x="426" y="1343" on="1"/>
        <pt x="426" y="807" on="1"/>
        <pt x="856" y="807" on="1"/>
        <pt x="883" y="807" on="0"/>
        <pt x="913" y="773" on="0"/>
        <pt x="913" y="750" on="1"/>
        <pt x="913" y="740" on="0"/>
        <pt x="903" y="720" on="0"/>
        <pt x="887" y="704" on="0"/>
        <pt x="867" y="694" on="0"/>
        <pt x="856" y="694" on="1"/>
        <pt x="426" y="694" on="1"/>
        <pt x="426" y="109" on="1"/>
        <pt x="942" y="109" on="1"/>
        <pt x="942" y="223" on="1"/>
        <pt x="942" y="295" on="0"/>
        <pt x="1000" y="356" on="0"/>
        <pt x="1061" y="356" on="1"/>
        <pt x="1106" y="356" on="0"/>
        <pt x="1149" y="308" on="0"/>
        <pt x="1149" y="254" on="1"/>
        <pt x="1149" y="76" on="1"/>
        <pt x="1149" y="31" on="0"/>
        <pt x="1090" y="0" on="0"/>
        <pt x="1026" y="0" on="1"/>
        <pt x="299" y="0" on="1"/>
        <pt x="205" y="0" on="0"/>
        <pt x="205" y="102" on="1"/>
        <pt x="205" y="1350" on="1"/>
        <pt x="205" y="1452" on="0"/>
        <pt x="299" y="1452" on="1"/>
        <pt x="995" y="1452" on="1"/>
        <pt x="1059" y="1452" on="0"/>
        <pt x="1118" y="1421" on="0"/>
        <pt x="1118" y="1376" on="1"/>
        <pt x="1118" y="1198" on="1"/>
        <pt x="1118" y="1144" on="0"/>
        <pt x="1075" y="1096" on="0"/>
      </contour>
    </TTGlyph>
    <TTGlyph name="Eacute" xMin="205" yMin="0" xMax="1149" yMax="1972">
      <component glyphName="E" x="0" y="0" flags="0x204"/>
      <component glyphName="uniF6C9" x="-50" y="0" flags="0x4"/>
    </TTGlyph>
    <TTGlyph name="Ecircumflex" xMin="205" yMin="0" xMax="1149" yMax="1882">
      <component glyphName="E" x="0" y="0" flags="0x204"/>
      <component glyphName="circumflex" x="70" y="426" flags="0x4"/>
    </TTGlyph>
    <TTGlyph name="Edieresis" xMin="205" yMin="0" xMax="1149" yMax="1886">
      <component glyphName="E" x="0" y="0" flags="0x204"/>
      <component glyphName="uniF6CB" x="0" y="0" flags="0x4"/>
    </TTGlyph>
    <TTGlyph name="Egrave" xMin="205" yMin="0" xMax="1149" yMax="1972">
      <component glyphName="E" x="0" y="0" flags="0x204"/>
      <component glyphName="uniF6CE" x="-69" y="0" flags="0x4"/>
    </TTGlyph>
    <TTGlyph name="Eth" xMin="31" yMin="0" xMax="1311" yMax="1452">
      <contour>
        <pt x="74" y="807" on="1"/>
        <pt x="205" y="807" on="1"/>
        <pt x="205" y="1350" on="1"/>
        <pt x="205" y="1452" on="0"/>
        <pt x="299" y="1452" on="1"/>
        <pt x="592" y="1452" on="1"/>
        <pt x="1311" y="1452" on="0"/>
        <pt x="1311" y="733" on="1"/>
        <pt x="1310" y="591" on="0"/>
        <pt x="1246" y="372" on="0"/>
        <pt x="1138" y="210" on="0"/>
        <pt x="996" y="98" on="0"/>
        <pt x="839" y="30" on="0"/>
        <pt x="676" y="0" on="0"/>
        <pt x="602" y="0" on="1"/>
        <pt x="299" y="0" on="1"/>
        <pt x="205" y="0" on="0"/>
        <pt x="205" y="102" on="1"/>
        <pt x="205" y="694" on="1"/>
        <pt x="74" y="694" on="1"/>
        <pt x="54" y="694" on="0"/>
        <pt x="31" y="728" on="0"/>
        <pt x="31" y="750" on="1"/>
        <pt x="31" y="773" on="0"/>
        <pt x="54" y="807" on="0"/>
      </contour>
      <contour>
        <pt x="567" y="1343" on="1"/>
        <pt x="426" y="1343" on="1"/>
        <pt x="426" y="807" on="1"/>
        <pt x="772" y="807" on="1"/>
        <pt x="792" y="807" on="0"/>
        <pt x="815" y="773" on="0"/>
        <pt x="815" y="750" on="1"/>
        <pt x="815" y="728" on="0"/>
        <pt x="792" y="694" on="0"/>
        <pt x="772" y="694" on="1"/>
        <pt x="426" y="694" on="1"/>
        <pt x="426" y="109" on="1"/>
        <pt x="471" y="109" on="1"/>
        <pt x="471" y="111" on="1"/>
        <pt x="567" y="111" on="1"/>
        <pt x="673" y="111" on="0"/>
        <pt x="860" y="181" on="0"/>
        <pt x="999" y="331" on="0"/>
        <pt x="1079" y="567" on="0"/>
        <pt x="1079" y="733" on="1"/>
        <pt x="1079" y="899" on="0"/>
        <pt x="1001" y="1131" on="0"/>
        <pt x="863" y="1277" on="0"/>
        <pt x="676" y="1343" on="0"/>
      </contour>
    </TTGlyph>
    <TTGlyph name="Euro" xMin="-18" yMin="0" xMax="1065" yMax="1452">
      <contour>
        <pt x="713" y="535" on="1"/>
        <pt x="346" y="535" on="1"/>
        <pt x="359" y="411" on="0"/>
        <pt x="426" y="246" on="0"/>
        <pt x="528" y="147" on="0"/>
        <pt x="661" y="106" on="0"/>
        <pt x="741" y="106" on="1"/>
        <pt x="792" y="105" on="0"/>
        <pt x="905" y="137" on="0"/>
        <pt x="969" y="166" on="1"/>
        <pt x="1004" y="182" on="1"/>
        <pt x="1015" y="186" on="0"/>
        <pt x="1020" y="186" on="1"/>
        <pt x="1039" y="186" on="0"/>
        <pt x="1065" y="148" on="0"/>
        <pt x="1065" y="125" on="1"/>
        <pt x="1065" y="94" on="0"/>
        <pt x="1040" y="84" on="1"/>
        <pt x="1008" y="70" on="1"/>
        <pt x="965" y="51" on="0"/>
        <pt x="895" y="25" on="0"/>
        <pt x="824" y="8" on="0"/>
        <pt x="742" y="0" on="0"/>
        <pt x="688" y="0" on="1"/>
        <pt x="440" y="0" on="0"/>
        <pt x="167" y="276" on="0"/>
        <pt x="135" y="535" on="1"/>
        <pt x="25" y="535" on="1"/>
        <pt x="5" y="535" on="0"/>
        <pt x="-18" y="568" on="0"/>
        <pt x="-18" y="590" on="1"/>
        <pt x="-18" y="613" on="0"/>
        <pt x="5" y="647" on="0"/>
        <pt x="25" y="647" on="1"/>
        <pt x="125" y="647" on="1"/>
        <pt x="125" y="774" on="1"/>
        <pt x="25" y="774" on="1"/>
        <pt x="5" y="774" on="0"/>
        <pt x="-18" y="807" on="0"/>
        <pt x="-18" y="829" on="1"/>
        <pt x="-18" y="853" on="0"/>
        <pt x="4" y="887" on="0"/>
        <pt x="25" y="887" on="1"/>
        <pt x="135" y="887" on="1"/>
        <pt x="153" y="1028" on="0"/>
        <pt x="248" y="1240" on="0"/>
        <pt x="393" y="1381" on="0"/>
        <pt x="582" y="1452" on="0"/>
        <pt x="694" y="1452" on="1"/>
        <pt x="766" y="1452" on="0"/>
        <pt x="896" y="1430" on="0"/>
        <pt x="958" y="1409" on="1"/>
        <pt x="981" y="1401" on="0"/>
        <pt x="1011" y="1385" on="0"/>
        <pt x="1029" y="1363" on="0"/>
        <pt x="1036" y="1332" on="0"/>
        <pt x="1036" y="1309" on="1"/>
        <pt x="1036" y="1202" on="1"/>
        <pt x="1036" y="1148" on="0"/>
        <pt x="996" y="1100" on="0"/>
        <pt x="954" y="1100" on="1"/>
        <pt x="899" y="1100" on="0"/>
        <pt x="846" y="1161" on="0"/>
        <pt x="846" y="1233" on="1"/>
        <pt x="846" y="1331" on="1"/>
        <pt x="809" y="1339" on="0"/>
        <pt x="746" y="1348" on="0"/>
        <pt x="719" y="1348" on="1"/>
        <pt x="568" y="1348" on="0"/>
        <pt x="375" y="1114" on="0"/>
        <pt x="348" y="887" on="1"/>
        <pt x="803" y="887" on="1"/>
        <pt x="823" y="887" on="0"/>
        <pt x="846" y="852" on="0"/>
        <pt x="846" y="829" on="1"/>
        <pt x="846" y="808" on="0"/>
        <pt x="823" y="774" on="0"/>
        <pt x="803" y="774" on="1"/>
        <pt x="338" y="774" on="1"/>
        <pt x="338" y="647" on="1"/>
        <pt x="713" y="647" on="1"/>
        <pt x="733" y="647" on="0"/>
        <pt x="756" y="613" on="0"/>
        <pt x="756" y="590" on="1"/>
        <pt x="756" y="568" on="0"/>
        <pt x="733" y="535" on="0"/>
      </contour>
    </TTGlyph>
    <TTGlyph name="F" xMin="205" yMin="0" xMax="1118" yMax="1452">
      <contour>
        <pt x="856" y="684" on="1"/>
        <pt x="426" y="684" on="1"/>
        <pt x="426" y="133" on="1"/>
        <pt x="426" y="61" on="0"/>
        <pt x="365" y="0" on="0"/>
        <pt x="299" y="0" on="1"/>
        <pt x="205" y="0" on="0"/>
        <pt x="205" y="102" on="1"/>
        <pt x="205" y="1350" on="1"/>
        <pt x="205" y="1452" on="0"/>
        <pt x="299" y="1452" on="1"/>
        <pt x="995" y="1452" on="1"/>
        <pt x="1059" y="1452" on="0"/>
        <pt x="1118" y="1421" on="0"/>
        <pt x="1118" y="1376" on="1"/>
        <pt x="1118" y="1219" on="1"/>
        <pt x="1118" y="1165" on="0"/>
        <pt x="1075" y="1116" on="0"/>
        <pt x="1030" y="1116" on="1"/>
        <pt x="970" y="1116" on="0"/>
        <pt x="911" y="1177" on="0"/>
        <pt x="911" y="1249" on="1"/>
        <pt x="911" y="1343" on="1"/>
        <pt x="426" y="1343" on="1"/>
        <pt x="426" y="797" on="1"/>
        <pt x="856" y="797" on="1"/>
        <pt x="884" y="797" on="0"/>
        <pt x="913" y="763" on="0"/>
        <pt x="913" y="739" on="1"/>
        <pt x="913" y="729" on="0"/>
        <pt x="903" y="709" on="0"/>
        <pt x="887" y="694" on="0"/>
        <pt x="866" y="684" on="0"/>
      </contour>
    </TTGlyph>
    <TTGlyph name="G" xMin="109" yMin="0" xMax="1249" yMax="1452">
      <contour>
        <pt x="1094" y="1083" on="1"/>
        <pt x="1034" y="1083" on="0"/>
        <pt x="975" y="1145" on="0"/>
        <pt x="975" y="1217" on="1"/>
        <pt x="975" y="1331" on="1"/>
        <pt x="909" y="1348" on="0"/>
        <pt x="809" y="1348" on="1"/>
        <pt x="707" y="1348" on="0"/>
        <pt x="535" y="1265" on="0"/>
        <pt x="410" y="1104" on="0"/>
        <pt x="340" y="866" on="0"/>
        <pt x="340" y="711" on="1"/>
        <pt x="340" y="538" on="0"/>
        <pt x="400" y="305" on="0"/>
        <pt x="515" y="164" on="0"/>
        <pt x="682" y="104" on="0"/>
        <pt x="788" y="104" on="1"/>
        <pt x="932" y="104" on="0"/>
        <pt x="1034" y="145" on="1"/>
        <pt x="1034" y="588" on="1"/>
        <pt x="805" y="588" on="1"/>
        <pt x="780" y="588" on="0"/>
        <pt x="754" y="621" on="0"/>
        <pt x="754" y="643" on="1"/>
        <pt x="754" y="667" on="0"/>
        <pt x="783" y="700" on="0"/>
        <pt x="811" y="700" on="1"/>
        <pt x="1159" y="700" on="1"/>
        <pt x="1213" y="700" on="0"/>
        <pt x="1249" y="661" on="0"/>
        <pt x="1249" y="618" on="1"/>
        <pt x="1249" y="195" on="1"/>
        <pt x="1249" y="166" on="0"/>
        <pt x="1241" y="126" on="0"/>
        <pt x="1225" y="99" on="0"/>
        <pt x="1201" y="82" on="0"/>
        <pt x="1184" y="76" on="1"/>
        <pt x="990" y="0" on="0"/>
        <pt x="750" y="0" on="1"/>
        <pt x="580" y="0" on="0"/>
        <pt x="338" y="99" on="0"/>
        <pt x="182" y="284" on="0"/>
        <pt x="109" y="549" on="0"/>
        <pt x="109" y="715" on="1"/>
        <pt x="109" y="904" on="0"/>
        <pt x="215" y="1182" on="0"/>
        <pt x="398" y="1363" on="0"/>
        <pt x="644" y="1452" on="0"/>
        <pt x="784" y="1452" on="1"/>
        <pt x="832" y="1452" on="0"/>
        <pt x="950" y="1442" on="0"/>
        <pt x="1060" y="1422" on="0"/>
        <pt x="1147" y="1392" on="0"/>
        <pt x="1165" y="1371" on="1"/>
        <pt x="1182" y="1351" on="0"/>
        <pt x="1182" y="1307" on="1"/>
        <pt x="1182" y="1186" on="1"/>
        <pt x="1182" y="1083" on="0"/>
      </contour>
    </TTGlyph>
    <TTGlyph name="Gbreve" xMin="109" yMin="0" xMax="1249" yMax="1888">
      <component glyphName="G" x="0" y="0" flags="0x204"/>
      <component glyphName="Breve" x="0" y="0" flags="0x4"/>
    </TTGlyph>
    <TTGlyph name="H" xMin="205" yMin="0" xMax="1315" yMax="1452">
      <contour>
        <pt x="1221" y="1452" on="1"/>
        <pt x="1315" y="1452" on="0"/>
        <pt x="1315" y="1350" on="1"/>
        <pt x="1315" y="102" on="1"/>
        <pt x="1315" y="45" on="0"/>
        <pt x="1273" y="0" on="0"/>
        <pt x="1225" y="0" on="1"/>
        <pt x="1161" y="0" on="0"/>
        <pt x="1094" y="80" on="0"/>
        <pt x="1094" y="158" on="1"/>
        <pt x="1094" y="694" on="1"/>
        <pt x="426" y="694" on="1"/>
        <pt x="426" y="133" on="1"/>
        <pt x="426" y="61" on="0"/>
        <pt x="365" y="0" on="0"/>
        <pt x="299" y="0" on="1"/>
        <pt x="205" y="0" on="0"/>
        <pt x="205" y="102" on="1"/>
        <pt x="205" y="1350" on="1"/>
        <pt x="205" y="1407" on="0"/>
        <pt x="247" y="1452" on="0"/>
        <pt x="295" y="1452" on="1"/>
        <pt x="359" y="1452" on="0"/>
        <pt x="426" y="1372" on="0"/>
        <pt x="426" y="1294" on="1"/>
        <pt x="426" y="807" on="1"/>
        <pt x="1094" y="807" on="1"/>
        <pt x="1094" y="1319" on="1"/>
        <pt x="1094" y="1391" on="0"/>
        <pt x="1155" y="1452" on="0"/>
      </contour>
    </TTGlyph>
    <TTGlyph name="I" xMin="41" yMin="0" xMax="795" yMax="1452">
      <contour>
        <pt x="733" y="0" on="1"/>
        <pt x="102" y="0" on="1"/>
        <pt x="41" y="0" on="0"/>
        <pt x="41" y="49" on="1"/>
        <pt x="41" y="77" on="0"/>
        <pt x="75" y="109" on="0"/>
        <pt x="123" y="109" on="1"/>
        <pt x="307" y="109" on="1"/>
        <pt x="307" y="1343" on="1"/>
        <pt x="123" y="1343" on="1"/>
        <pt x="75" y="1343" on="0"/>
        <pt x="41" y="1375" on="0"/>
        <pt x="41" y="1403" on="1"/>
        <pt x="41" y="1452" on="0"/>
        <pt x="102" y="1452" on="1"/>
        <pt x="733" y="1452" on="1"/>
        <pt x="795" y="1452" on="0"/>
        <pt x="795" y="1403" on="1"/>
        <pt x="795" y="1343" on="0"/>
        <pt x="713" y="1343" on="1"/>
        <pt x="528" y="1343" on="1"/>
        <pt x="528" y="109" on="1"/>
        <pt x="713" y="109" on="1"/>
        <pt x="795" y="109" on="0"/>
        <pt x="795" y="49" on="1"/>
        <pt x="795" y="0" on="0"/>
      </contour>
    </TTGlyph>
    <TTGlyph name="Iacute" xMin="41" yMin="0" xMax="795" yMax="1972">
      <component glyphName="I" x="0" y="0" flags="0x204"/>
      <component glyphName="uniF6C9" x="-261" y="0" flags="0x4"/>
    </TTGlyph>
    <TTGlyph name="Icircumflex" xMin="41" yMin="0" xMax="795" yMax="1882">
      <component glyphName="I" x="0" y="0" flags="0x204"/>
      <component glyphName="circumflex" x="-155" y="426" flags="0x4"/>
    </TTGlyph>
    <TTGlyph name="Idieresis" xMin="41" yMin="0" xMax="795" yMax="1886">
      <component glyphName="I" x="0" y="0" flags="0x204"/>
      <component glyphName="uniF6CB" x="-230" y="0" flags="0x4"/>
    </TTGlyph>
    <TTGlyph name="Idotaccent" xMin="41" yMin="0" xMax="795" yMax="1839">
      <component glyphName="I" x="0" y="0" flags="0x204"/>
      <component glyphName="dotaccent" x="-136" y="424" flags="0x4"/>
    </TTGlyph>
    <TTGlyph name="Igrave" xMin="41" yMin="0" xMax="795" yMax="1972">
      <component glyphName="I" x="0" y="0" flags="0x204"/>
      <component glyphName="uniF6CE" x="-310" y="0" flags="0x4"/>
    </TTGlyph>
    <TTGlyph name="J" xMin="72" yMin="0" xMax="836" yMax="1452">
      <contour>
        <pt x="741" y="1452" on="1"/>
        <pt x="789" y="1452" on="0"/>
        <pt x="836" y="1404" on="0"/>
        <pt x="836" y="1350" on="1"/>
        <pt x="836" y="535" on="1"/>
        <pt x="836" y="494" on="0"/>
        <pt x="826" y="382" on="0"/>
        <pt x="794" y="264" on="0"/>
        <pt x="731" y="148" on="0"/>
        <pt x="625" y="56" on="0"/>
        <pt x="469" y="0" on="0"/>
        <pt x="360" y="0" on="1"/>
        <pt x="333" y="0" on="0"/>
        <pt x="260" y="8" on="0"/>
        <pt x="189" y="20" on="0"/>
        <pt x="128" y="35" on="0"/>
        <pt x="113" y="43" on="1"/>
        <pt x="72" y="63" on="0"/>
        <pt x="72" y="106" on="1"/>
        <pt x="72" y="244" on="1"/>
        <pt x="72" y="298" on="0"/>
        <pt x="115" y="346" on="0"/>
        <pt x="160" y="346" on="1"/>
        <pt x="220" y="346" on="0"/>
        <pt x="279" y="285" on="0"/>
        <pt x="279" y="213" on="1"/>
        <pt x="279" y="113" on="1"/>
        <pt x="300" y="109" on="0"/>
        <pt x="343" y="106" on="0"/>
        <pt x="365" y="106" on="1"/>
        <pt x="438" y="106" on="0"/>
        <pt x="534" y="164" on="0"/>
        <pt x="591" y="256" on="0"/>
        <pt x="614" y="370" on="0"/>
        <pt x="614" y="426" on="1"/>
        <pt x="614" y="1319" on="1"/>
        <pt x="614" y="1391" on="0"/>
        <pt x="675" y="1452" on="0"/>
      </contour>
    </TTGlyph>
    <TTGlyph name="K" xMin="205" yMin="0" xMax="1241" yMax="1452">
      <contour>
        <pt x="426" y="1294" on="1"/>
        <pt x="426" y="782" on="1"/>
        <pt x="1061" y="1411" on="1"/>
        <pt x="1099" y="1452" on="0"/>
        <pt x="1143" y="1452" on="1"/>
        <pt x="1174" y="1452" on="0"/>
        <pt x="1217" y="1411" on="0"/>
        <pt x="1217" y="1386" on="1"/>
        <pt x="1217" y="1373" on="0"/>
        <pt x="1206" y="1362" on="1"/>
        <pt x="621" y="799" on="1"/>
        <pt x="1212" y="135" on="1"/>
        <pt x="1226" y="118" on="0"/>
        <pt x="1241" y="90" on="0"/>
        <pt x="1241" y="76" on="1"/>
        <pt x="1241" y="45" on="0"/>
        <pt x="1194" y="0" on="0"/>
        <pt x="1157" y="0" on="1"/>
        <pt x="1133" y="0" on="0"/>
        <pt x="1088" y="9" on="0"/>
        <pt x="1044" y="31" on="0"/>
        <pt x="998" y="70" on="0"/>
        <pt x="973" y="100" on="1"/>
        <pt x="463" y="684" on="1"/>
        <pt x="426" y="645" on="1"/>
        <pt x="426" y="133" on="1"/>
        <pt x="426" y="61" on="0"/>
        <pt x="365" y="0" on="0"/>
        <pt x="299" y="0" on="1"/>
        <pt x="205" y="0" on="0"/>
        <pt x="205" y="102" on="1"/>
        <pt x="205" y="1350" on="1"/>
        <pt x="205" y="1407" on="0"/>
        <pt x="247" y="1452" on="0"/>
        <pt x="295" y="1452" on="1"/>
        <pt x="359" y="1452" on="0"/>
        <pt x="426" y="1372" on="0"/>
      </contour>
    </TTGlyph>
    <TTGlyph name="L" xMin="205" yMin="0" xMax="1098" yMax="1452">
      <contour>
        <pt x="1010" y="383" on="1"/>
        <pt x="1098" y="383" on="0"/>
        <pt x="1098" y="281" on="1"/>
        <pt x="1098" y="66" on="1"/>
        <pt x="1098" y="30" on="0"/>
        <pt x="1038" y="0" on="0"/>
        <pt x="975" y="0" on="1"/>
        <pt x="299" y="0" on="1"/>
        <pt x="205" y="0" on="0"/>
        <pt x="205" y="102" on="1"/>
        <pt x="205" y="1350" on="1"/>
        <pt x="205" y="1407" on="0"/>
        <pt x="247" y="1452" on="0"/>
        <pt x="295" y="1452" on="1"/>
        <pt x="359" y="1452" on="0"/>
        <pt x="426" y="1372" on="0"/>
        <pt x="426" y="1294" on="1"/>
        <pt x="426" y="109" on="1"/>
        <pt x="891" y="109" on="1"/>
        <pt x="891" y="250" on="1"/>
        <pt x="891" y="322" on="0"/>
        <pt x="950" y="383" on="0"/>
      </contour>
    </TTGlyph>
    <TTGlyph name="Lslash" xMin="-4" yMin="0" xMax="1147" yMax="1452">
      <contour>
        <pt x="868" y="911" on="1"/>
        <pt x="475" y="664" on="1"/>
        <pt x="475" y="109" on="1"/>
        <pt x="940" y="109" on="1"/>
        <pt x="940" y="250" on="1"/>
        <pt x="940" y="321" on="0"/>
        <pt x="999" y="383" on="0"/>
        <pt x="1059" y="383" on="1"/>
        <pt x="1147" y="383" on="0"/>
        <pt x="1147" y="281" on="1"/>
        <pt x="1147" y="66" on="1"/>
        <pt x="1147" y="30" on="0"/>
        <pt x="1087" y="0" on="0"/>
        <pt x="1024" y="0" on="1"/>
        <pt x="348" y="0" on="1"/>
        <pt x="254" y="0" on="0"/>
        <pt x="254" y="102" on="1"/>
        <pt x="254" y="526" on="1"/>
        <pt x="78" y="416" on="1"/>
        <pt x="70" y="412" on="0"/>
        <pt x="66" y="412" on="1"/>
        <pt x="46" y="412" on="0"/>
        <pt x="-2" y="464" on="0"/>
        <pt x="-4" y="485" on="1"/>
        <pt x="-4" y="497" on="0"/>
        <pt x="6" y="504" on="1"/>
        <pt x="254" y="662" on="1"/>
        <pt x="254" y="1350" on="1"/>
        <pt x="254" y="1406" on="0"/>
        <pt x="296" y="1452" on="0"/>
        <pt x="344" y="1452" on="1"/>
        <pt x="408" y="1452" on="0"/>
        <pt x="475" y="1372" on="0"/>
        <pt x="475" y="1294" on="1"/>
        <pt x="475" y="803" on="1"/>
        <pt x="801" y="1010" on="1"/>
        <pt x="805" y="1012" on="0"/>
        <pt x="811" y="1012" on="1"/>
        <pt x="831" y="1012" on="0"/>
        <pt x="877" y="959" on="0"/>
        <pt x="879" y="934" on="1"/>
        <pt x="879" y="916" on="0"/>
      </contour>
    </TTGlyph>
    <TTGlyph name="M" xMin="205" yMin="0" xMax="1590" yMax="1452">
      <contour>
        <pt x="1506" y="0" on="1"/>
        <pt x="1443" y="0" on="0"/>
        <pt x="1383" y="79" on="0"/>
        <pt x="1383" y="158" on="1"/>
        <pt x="1383" y="1150" on="1"/>
        <pt x="1369" y="1150" on="1"/>
        <pt x="949" y="76" on="1"/>
        <pt x="920" y="0" on="0"/>
        <pt x="863" y="0" on="1"/>
        <pt x="835" y="0" on="0"/>
        <pt x="789" y="38" on="0"/>
        <pt x="775" y="76" on="1"/>
        <pt x="381" y="1150" on="1"/>
        <pt x="367" y="1150" on="1"/>
        <pt x="367" y="115" on="1"/>
        <pt x="367" y="82" on="0"/>
        <pt x="351" y="38" on="0"/>
        <pt x="327" y="11" on="0"/>
        <pt x="297" y="0" on="0"/>
        <pt x="283" y="0" on="1"/>
        <pt x="253" y="0" on="0"/>
        <pt x="205" y="42" on="0"/>
        <pt x="205" y="92" on="1"/>
        <pt x="205" y="1343" on="1"/>
        <pt x="205" y="1370" on="0"/>
        <pt x="228" y="1411" on="0"/>
        <pt x="265" y="1438" on="0"/>
        <pt x="312" y="1452" on="0"/>
        <pt x="336" y="1452" on="1"/>
        <pt x="355" y="1452" on="0"/>
        <pt x="400" y="1442" on="0"/>
        <pt x="443" y="1419" on="0"/>
        <pt x="479" y="1381" on="0"/>
        <pt x="490" y="1353" on="1"/>
        <pt x="884" y="267" on="1"/>
        <pt x="894" y="267" on="1"/>
        <pt x="1319" y="1343" on="1"/>
        <pt x="1331" y="1374" on="0"/>
        <pt x="1368" y="1415" on="0"/>
        <pt x="1412" y="1441" on="0"/>
        <pt x="1461" y="1452" on="0"/>
        <pt x="1485" y="1452" on="1"/>
        <pt x="1539" y="1452" on="0"/>
        <pt x="1590" y="1400" on="0"/>
        <pt x="1590" y="1343" on="1"/>
        <pt x="1590" y="103" on="1"/>
        <pt x="1590" y="46" on="0"/>
        <pt x="1554" y="0" on="0"/>
      </contour>
    </TTGlyph>
    <TTGlyph name="N" xMin="205" yMin="0" xMax="1317" yMax="1452">
      <contour>
        <pt x="205" y="92" on="1"/>
        <pt x="205" y="1341" on="1"/>
        <pt x="205" y="1393" on="0"/>
        <pt x="276" y="1452" on="0"/>
        <pt x="328" y="1452" on="1"/>
        <pt x="373" y="1452" on="0"/>
        <pt x="443" y="1415" on="0"/>
        <pt x="475" y="1366" on="1"/>
        <pt x="1145" y="303" on="1"/>
        <pt x="1155" y="303" on="1"/>
        <pt x="1155" y="1337" on="1"/>
        <pt x="1155" y="1397" on="0"/>
        <pt x="1206" y="1452" on="0"/>
        <pt x="1239" y="1452" on="1"/>
        <pt x="1272" y="1452" on="0"/>
        <pt x="1317" y="1408" on="0"/>
        <pt x="1317" y="1360" on="1"/>
        <pt x="1317" y="119" on="1"/>
        <pt x="1317" y="62" on="0"/>
        <pt x="1249" y="0" on="0"/>
        <pt x="1198" y="0" on="1"/>
        <pt x="1100" y="0" on="0"/>
        <pt x="1049" y="82" on="1"/>
        <pt x="379" y="1149" on="1"/>
        <pt x="367" y="1149" on="1"/>
        <pt x="367" y="115" on="1"/>
        <pt x="367" y="55" on="0"/>
        <pt x="316" y="0" on="0"/>
        <pt x="283" y="0" on="1"/>
        <pt x="250" y="0" on="0"/>
        <pt x="205" y="44" on="0"/>
      </contour>
    </TTGlyph>
    <TTGlyph name="Ntilde" xMin="205" yMin="0" xMax="1317" yMax="1868">
      <component glyphName="N" x="0" y="0" flags="0x204"/>
      <component glyphName="uniF40D" x="39" y="0" flags="0x4"/>
    </TTGlyph>
    <TTGlyph name="O" xMin="109" yMin="0" xMax="1358" yMax="1452">
      <contour>
        <pt x="1358" y="725" on="1"/>
        <pt x="1358" y="673" on="0"/>
        <pt x="1344" y="526" on="0"/>
        <pt x="1300" y="364" on="0"/>
        <pt x="1217" y="205" on="0"/>
        <pt x="1078" y="79" on="0"/>
        <pt x="874" y="0" on="0"/>
        <pt x="731" y="0" on="1"/>
        <pt x="587" y="0" on="0"/>
        <pt x="383" y="80" on="0"/>
        <pt x="245" y="209" on="0"/>
        <pt x="163" y="370" on="0"/>
        <pt x="121" y="531" on="0"/>
        <pt x="109" y="676" on="0"/>
        <pt x="109" y="725" on="1"/>
        <pt x="109" y="778" on="0"/>
        <pt x="123" y="927" on="0"/>
        <pt x="167" y="1089" on="0"/>
        <pt x="250" y="1248" on="0"/>
        <pt x="388" y="1374" on="0"/>
        <pt x="590" y="1452" on="0"/>
        <pt x="731" y="1452" on="1"/>
        <pt x="872" y="1452" on="0"/>
        <pt x="1075" y="1373" on="0"/>
        <pt x="1215" y="1245" on="0"/>
        <pt x="1299" y="1085" on="0"/>
        <pt x="1344" y="924" on="0"/>
        <pt x="1358" y="776" on="0"/>
      </contour>
      <contour>
        <pt x="731" y="1348" on="1"/>
        <pt x="644" y="1348" on="0"/>
        <pt x="519" y="1286" on="0"/>
        <pt x="432" y="1185" on="0"/>
        <pt x="379" y="1054" on="0"/>
        <pt x="350" y="916" on="0"/>
        <pt x="340" y="780" on="0"/>
        <pt x="340" y="725" on="1"/>
        <pt x="340" y="678" on="0"/>
        <pt x="348" y="549" on="0"/>
        <pt x="374" y="411" on="0"/>
        <pt x="425" y="276" on="0"/>
        <pt x="512" y="170" on="0"/>
        <pt x="640" y="104" on="0"/>
        <pt x="731" y="104" on="1"/>
        <pt x="819" y="106" on="0"/>
        <pt x="946" y="166" on="0"/>
        <pt x="1033" y="264" on="0"/>
        <pt x="1087" y="391" on="0"/>
        <pt x="1116" y="528" on="0"/>
        <pt x="1126" y="665" on="0"/>
        <pt x="1126" y="725" on="1"/>
        <pt x="1126" y="773" on="0"/>
        <pt x="1119" y="903" on="0"/>
        <pt x="1093" y="1042" on="0"/>
        <pt x="1042" y="1176" on="0"/>
        <pt x="954" y="1283" on="0"/>
        <pt x="823" y="1348" on="0"/>
      </contour>
    </TTGlyph>
    <TTGlyph name="OE" xMin="109" yMin="0" xMax="1815" yMax="1452">
      <contour>
        <pt x="752" y="104" on="1"/>
        <pt x="848" y="104" on="0"/>
        <pt x="897" y="117" on="1"/>
        <pt x="897" y="1335" on="1"/>
        <pt x="862" y="1342" on="0"/>
        <pt x="789" y="1348" on="0"/>
        <pt x="752" y="1348" on="1"/>
        <pt x="664" y="1348" on="0"/>
        <pt x="535" y="1285" on="0"/>
        <pt x="444" y="1183" on="0"/>
        <pt x="386" y="1051" on="0"/>
        <pt x="352" y="912" on="0"/>
        <pt x="340" y="778" on="0"/>
        <pt x="340" y="725" on="1"/>
        <pt x="340" y="676" on="0"/>
        <pt x="351" y="546" on="0"/>
        <pt x="382" y="408" on="0"/>
        <pt x="439" y="274" on="0"/>
        <pt x="530" y="169" on="0"/>
        <pt x="662" y="104" on="0"/>
      </contour>
      <contour>
        <pt x="1696" y="1096" on="1"/>
        <pt x="1635" y="1096" on="0"/>
        <pt x="1577" y="1157" on="0"/>
        <pt x="1577" y="1229" on="1"/>
        <pt x="1577" y="1343" on="1"/>
        <pt x="1118" y="1343" on="1"/>
        <pt x="1118" y="807" on="1"/>
        <pt x="1522" y="807" on="1"/>
        <pt x="1549" y="807" on="0"/>
        <pt x="1579" y="773" on="0"/>
        <pt x="1579" y="750" on="1"/>
        <pt x="1579" y="740" on="0"/>
        <pt x="1569" y="720" on="0"/>
        <pt x="1553" y="704" on="0"/>
        <pt x="1532" y="694" on="0"/>
        <pt x="1522" y="694" on="1"/>
        <pt x="1118" y="694" on="1"/>
        <pt x="1118" y="109" on="1"/>
        <pt x="1608" y="109" on="1"/>
        <pt x="1608" y="223" on="1"/>
        <pt x="1608" y="295" on="0"/>
        <pt x="1666" y="356" on="0"/>
        <pt x="1726" y="356" on="1"/>
        <pt x="1772" y="356" on="0"/>
        <pt x="1815" y="308" on="0"/>
        <pt x="1815" y="254" on="1"/>
        <pt x="1815" y="76" on="1"/>
        <pt x="1815" y="31" on="0"/>
        <pt x="1756" y="0" on="0"/>
        <pt x="1692" y="0" on="1"/>
        <pt x="752" y="0" on="1"/>
        <pt x="609" y="0" on="0"/>
        <pt x="402" y="79" on="0"/>
        <pt x="259" y="207" on="0"/>
        <pt x="172" y="367" on="0"/>
        <pt x="125" y="528" on="0"/>
        <pt x="109" y="675" on="0"/>
        <pt x="109" y="725" on="1"/>
        <pt x="109" y="779" on="0"/>
        <pt x="126" y="929" on="0"/>
        <pt x="175" y="1091" on="0"/>
        <pt x="264" y="1249" on="0"/>
        <pt x="407" y="1374" on="0"/>
        <pt x="612" y="1452" on="0"/>
        <pt x="752" y="1452" on="1"/>
        <pt x="1661" y="1452" on="1"/>
        <pt x="1725" y="1452" on="0"/>
        <pt x="1784" y="1421" on="0"/>
        <pt x="1784" y="1376" on="1"/>
        <pt x="1784" y="1198" on="1"/>
        <pt x="1784" y="1144" on="0"/>
        <pt x="1741" y="1096" on="0"/>
      </contour>
    </TTGlyph>
    <TTGlyph name="Oacute" xMin="109" yMin="0" xMax="1358" yMax="1972">
      <component glyphName="O" x="0" y="0" flags="0x204"/>
      <component glyphName="uniF6C9" x="31" y="0" flags="0x4"/>
    </TTGlyph>
    <TTGlyph name="Ocircumflex" xMin="109" yMin="0" xMax="1358" yMax="1882">
      <component glyphName="O" x="0" y="0" flags="0x204"/>
      <component glyphName="circumflex" x="160" y="426" flags="0x4"/>
    </TTGlyph>
    <TTGlyph name="Odieresis" xMin="109" yMin="0" xMax="1358" yMax="1886">
      <component glyphName="O" x="0" y="0" flags="0x204"/>
      <component glyphName="uniF6CB" x="82" y="0" flags="0x4"/>
    </TTGlyph>
    <TTGlyph name="Ograve" xMin="109" yMin="0" xMax="1358" yMax="1972">
      <component glyphName="O" x="0" y="0" flags="0x204"/>
      <component glyphName="uniF6CE" x="0" y="0" flags="0x4"/>
    </TTGlyph>
    <TTGlyph name="Oslash" xMin="109" yMin="-156" xMax="1358" yMax="1608">
      <contour>
        <pt x="1264" y="1524" on="1"/>
        <pt x="1143" y="1311" on="1"/>
        <pt x="1209" y="1251" on="0"/>
        <pt x="1293" y="1097" on="0"/>
        <pt x="1340" y="937" on="0"/>
        <pt x="1358" y="784" on="0"/>
        <pt x="1358" y="725" on="1"/>
        <pt x="1358" y="673" on="0"/>
        <pt x="1344" y="526" on="0"/>
        <pt x="1300" y="364" on="0"/>
        <pt x="1217" y="205" on="0"/>
        <pt x="1078" y="79" on="0"/>
        <pt x="874" y="0" on="0"/>
        <pt x="731" y="0" on="1"/>
        <pt x="557" y="0" on="0"/>
        <pt x="428" y="66" on="1"/>
        <pt x="309" y="-143" on="1"/>
        <pt x="300" y="-156" on="0"/>
        <pt x="283" y="-156" on="1"/>
        <pt x="269" y="-156" on="0"/>
        <pt x="239" y="-144" on="0"/>
        <pt x="214" y="-126" on="0"/>
        <pt x="197" y="-103" on="0"/>
        <pt x="197" y="-92" on="1"/>
        <pt x="197" y="-88" on="0"/>
        <pt x="199" y="-82" on="1"/>
        <pt x="322" y="137" on="1"/>
        <pt x="256" y="195" on="0"/>
        <pt x="172" y="347" on="0"/>
        <pt x="126" y="508" on="0"/>
        <pt x="109" y="663" on="0"/>
        <pt x="109" y="725" on="1"/>
        <pt x="109" y="778" on="0"/>
        <pt x="123" y="927" on="0"/>
        <pt x="167" y="1089" on="0"/>
        <pt x="250" y="1248" on="0"/>
        <pt x="388" y="1374" on="0"/>
        <pt x="590" y="1452" on="0"/>
        <pt x="731" y="1452" on="1"/>
        <pt x="903" y="1452" on="0"/>
        <pt x="1032" y="1386" on="1"/>
        <pt x="1151" y="1595" on="1"/>
        <pt x="1157" y="1608" on="0"/>
        <pt x="1176" y="1608" on="1"/>
        <pt x="1189" y="1608" on="0"/>
        <pt x="1221" y="1594" on="0"/>
        <pt x="1248" y="1573" on="0"/>
        <pt x="1266" y="1547" on="0"/>
        <pt x="1266" y="1536" on="1"/>
        <pt x="1266" y="1530" on="0"/>
      </contour>
      <contour>
        <pt x="1126" y="725" on="1"/>
        <pt x="1126" y="991" on="0"/>
        <pt x="1049" y="1147" on="1"/>
        <pt x="500" y="188" on="1"/>
        <pt x="591" y="104" on="0"/>
        <pt x="731" y="104" on="1"/>
        <pt x="819" y="106" on="0"/>
        <pt x="946" y="166" on="0"/>
        <pt x="1033" y="264" on="0"/>
        <pt x="1087" y="391" on="0"/>
        <pt x="1116" y="528" on="0"/>
        <pt x="1126" y="665" on="0"/>
      </contour>
      <contour>
        <pt x="340" y="725" on="1"/>
        <pt x="340" y="457" on="0"/>
        <pt x="418" y="303" on="1"/>
        <pt x="963" y="1264" on="1"/>
        <pt x="867" y="1348" on="0"/>
        <pt x="731" y="1348" on="1"/>
        <pt x="644" y="1348" on="0"/>
        <pt x="519" y="1286" on="0"/>
        <pt x="432" y="1185" on="0"/>
        <pt x="379" y="1054" on="0"/>
        <pt x="350" y="916" on="0"/>
        <pt x="340" y="780" on="0"/>
      </contour>
    </TTGlyph>
    <TTGlyph name="Otilde" xMin="109" yMin="0" xMax="1358" yMax="1868">
      <component glyphName="O" x="0" y="0" flags="0x204"/>
      <component glyphName="uniF40D" x="-3" y="0" flags="0x4"/>
    </TTGlyph>
    <TTGlyph name="P" xMin="205" yMin="0" xMax="1192" yMax="1452">
      <contour>
        <pt x="639" y="563" on="1"/>
        <pt x="426" y="563" on="1"/>
        <pt x="426" y="133" on="1"/>
        <pt x="426" y="61" on="0"/>
        <pt x="365" y="0" on="0"/>
        <pt x="299" y="0" on="1"/>
        <pt x="205" y="0" on="0"/>
        <pt x="205" y="102" on="1"/>
        <pt x="205" y="1350" on="1"/>
        <pt x="205" y="1407" on="0"/>
        <pt x="247" y="1452" on="0"/>
        <pt x="295" y="1452" on="1"/>
        <pt x="637" y="1452" on="1"/>
        <pt x="672" y="1452" on="0"/>
        <pt x="761" y="1450" on="0"/>
        <pt x="861" y="1435" on="0"/>
        <pt x="969" y="1401" on="0"/>
        <pt x="1023" y="1368" on="1"/>
        <pt x="1058" y="1347" on="0"/>
        <pt x="1120" y="1285" on="0"/>
        <pt x="1166" y="1202" on="0"/>
        <pt x="1192" y="1095" on="0"/>
        <pt x="1192" y="1028" on="1"/>
        <pt x="1192" y="930" on="0"/>
        <pt x="1124" y="761" on="0"/>
        <pt x="986" y="635" on="0"/>
        <pt x="778" y="563" on="0"/>
      </contour>
      <contour>
        <pt x="637" y="1343" on="1"/>
        <pt x="426" y="1343" on="1"/>
        <pt x="426" y="672" on="1"/>
        <pt x="637" y="672" on="1"/>
        <pt x="791" y="672" on="0"/>
        <pt x="961" y="845" on="0"/>
        <pt x="961" y="1028" on="1"/>
        <pt x="961" y="1104" on="0"/>
        <pt x="925" y="1222" on="0"/>
        <pt x="847" y="1302" on="0"/>
        <pt x="724" y="1343" on="0"/>
      </contour>
    </TTGlyph>
    <TTGlyph name="Q" xMin="109" yMin="-128" xMax="1358" yMax="1452">
      <contour>
        <pt x="1126" y="725" on="1"/>
        <pt x="1126" y="773" on="0"/>
        <pt x="1119" y="903" on="0"/>
        <pt x="1093" y="1042" on="0"/>
        <pt x="1042" y="1176" on="0"/>
        <pt x="954" y="1283" on="0"/>
        <pt x="823" y="1348" on="0"/>
        <pt x="731" y="1348" on="1"/>
        <pt x="644" y="1348" on="0"/>
        <pt x="519" y="1286" on="0"/>
        <pt x="432" y="1185" on="0"/>
        <pt x="379" y="1054" on="0"/>
        <pt x="350" y="916" on="0"/>
        <pt x="340" y="780" on="0"/>
        <pt x="340" y="725" on="1"/>
        <pt x="340" y="678" on="0"/>
        <pt x="348" y="549" on="0"/>
        <pt x="374" y="411" on="0"/>
        <pt x="425" y="276" on="0"/>
        <pt x="512" y="170" on="0"/>
        <pt x="640" y="104" on="0"/>
        <pt x="731" y="104" on="1"/>
        <pt x="811" y="104" on="0"/>
        <pt x="870" y="129" on="1"/>
        <pt x="721" y="309" on="1"/>
        <pt x="707" y="325" on="0"/>
        <pt x="696" y="354" on="0"/>
        <pt x="696" y="365" on="1"/>
        <pt x="696" y="392" on="0"/>
        <pt x="741" y="428" on="0"/>
        <pt x="774" y="428" on="1"/>
        <pt x="846" y="428" on="0"/>
        <pt x="899" y="360" on="1"/>
        <pt x="1004" y="236" on="1"/>
        <pt x="1126" y="400" on="0"/>
      </contour>
      <contour>
        <pt x="1358" y="725" on="1"/>
        <pt x="1358" y="659" on="0"/>
        <pt x="1337" y="497" on="0"/>
        <pt x="1281" y="332" on="0"/>
        <pt x="1182" y="177" on="0"/>
        <pt x="1104" y="117" on="1"/>
        <pt x="1235" y="-41" on="1"/>
        <pt x="1247" y="-56" on="0"/>
        <pt x="1247" y="-72" on="1"/>
        <pt x="1247" y="-95" on="0"/>
        <pt x="1196" y="-127" on="0"/>
        <pt x="1159" y="-127" on="1"/>
        <pt x="1121" y="-128" on="0"/>
        <pt x="1062" y="-96" on="0"/>
        <pt x="1036" y="-66" on="1"/>
        <pt x="952" y="33" on="1"/>
        <pt x="853" y="0" on="0"/>
        <pt x="731" y="0" on="1"/>
        <pt x="587" y="0" on="0"/>
        <pt x="383" y="80" on="0"/>
        <pt x="245" y="209" on="0"/>
        <pt x="163" y="370" on="0"/>
        <pt x="121" y="531" on="0"/>
        <pt x="109" y="676" on="0"/>
        <pt x="109" y="725" on="1"/>
        <pt x="109" y="778" on="0"/>
        <pt x="123" y="927" on="0"/>
        <pt x="167" y="1089" on="0"/>
        <pt x="250" y="1248" on="0"/>
        <pt x="388" y="1374" on="0"/>
        <pt x="590" y="1452" on="0"/>
        <pt x="731" y="1452" on="1"/>
        <pt x="872" y="1452" on="0"/>
        <pt x="1075" y="1373" on="0"/>
        <pt x="1215" y="1245" on="0"/>
        <pt x="1299" y="1085" on="0"/>
        <pt x="1344" y="924" on="0"/>
        <pt x="1358" y="776" on="0"/>
      </contour>
    </TTGlyph>
    <TTGlyph name="R" xMin="205" yMin="0" xMax="1200" yMax="1452">
      <contour>
        <pt x="205" y="102" on="1"/>
        <pt x="205" y="1350" on="1"/>
        <pt x="205" y="1407" on="0"/>
        <pt x="247" y="1452" on="0"/>
        <pt x="295" y="1452" on="1"/>
        <pt x="682" y="1452" on="1"/>
        <pt x="788" y="1452" on="0"/>
        <pt x="975" y="1418" on="0"/>
        <pt x="1115" y="1329" on="0"/>
        <pt x="1198" y="1176" on="0"/>
        <pt x="1200" y="1057" on="1"/>
        <pt x="1200" y="983" on="0"/>
        <pt x="1139" y="851" on="0"/>
        <pt x="1039" y="747" on="0"/>
        <pt x="910" y="679" on="0"/>
        <pt x="842" y="668" on="1"/>
        <pt x="1182" y="121" on="1"/>
        <pt x="1200" y="92" on="0"/>
        <pt x="1200" y="68" on="1"/>
        <pt x="1200" y="37" on="0"/>
        <pt x="1147" y="0" on="0"/>
        <pt x="1096" y="0" on="1"/>
        <pt x="1002" y="0" on="0"/>
        <pt x="956" y="78" on="1"/>
        <pt x="612" y="653" on="1"/>
        <pt x="426" y="653" on="1"/>
        <pt x="426" y="133" on="1"/>
        <pt x="426" y="61" on="0"/>
        <pt x="365" y="0" on="0"/>
        <pt x="299" y="0" on="1"/>
        <pt x="205" y="0" on="0"/>
      </contour>
      <contour>
        <pt x="662" y="1343" on="1"/>
        <pt x="426" y="1343" on="1"/>
        <pt x="426" y="762" on="1"/>
        <pt x="645" y="762" on="1"/>
        <pt x="701" y="762" on="0"/>
        <pt x="817" y="795" on="0"/>
        <pt x="910" y="868" on="0"/>
        <pt x="969" y="985" on="0"/>
        <pt x="969" y="1069" on="1"/>
        <pt x="969" y="1133" on="0"/>
        <pt x="939" y="1223" on="0"/>
        <pt x="890" y="1284" on="0"/>
        <pt x="825" y="1320" on="0"/>
        <pt x="757" y="1338" on="0"/>
        <pt x="690" y="1343" on="0"/>
      </contour>
    </TTGlyph>
    <TTGlyph name="S" xMin="125" yMin="0" xMax="1169" yMax="1452">
      <contour>
        <pt x="987" y="1079" on="1"/>
        <pt x="926" y="1079" on="0"/>
        <pt x="868" y="1137" on="0"/>
        <pt x="868" y="1206" on="1"/>
        <pt x="868" y="1311" on="1"/>
        <pt x="864" y="1312" on="0"/>
        <pt x="847" y="1317" on="0"/>
        <pt x="834" y="1321" on="1"/>
        <pt x="785" y="1335" on="0"/>
        <pt x="681" y="1348" on="0"/>
        <pt x="627" y="1348" on="1"/>
        <pt x="556" y="1348" on="0"/>
        <pt x="454" y="1302" on="0"/>
        <pt x="386" y="1229" on="0"/>
        <pt x="354" y="1139" on="0"/>
        <pt x="354" y="1094" on="1"/>
        <pt x="354" y="1041" on="0"/>
        <pt x="379" y="967" on="0"/>
        <pt x="442" y="908" on="0"/>
        <pt x="549" y="856" on="0"/>
        <pt x="631" y="827" on="1"/>
        <pt x="683" y="808" on="0"/>
        <pt x="748" y="785" on="0"/>
        <pt x="800" y="765" on="0"/>
        <pt x="853" y="743" on="0"/>
        <pt x="892" y="727" on="1"/>
        <pt x="930" y="711" on="0"/>
        <pt x="977" y="688" on="0"/>
        <pt x="1013" y="666" on="0"/>
        <pt x="1045" y="642" on="0"/>
        <pt x="1068" y="625" on="1"/>
        <pt x="1116" y="588" on="0"/>
        <pt x="1169" y="477" on="0"/>
        <pt x="1169" y="397" on="1"/>
        <pt x="1169" y="310" on="0"/>
        <pt x="1092" y="164" on="0"/>
        <pt x="945" y="59" on="0"/>
        <pt x="732" y="0" on="0"/>
        <pt x="596" y="0" on="1"/>
        <pt x="537" y="0" on="0"/>
        <pt x="394" y="19" on="0"/>
        <pt x="264" y="49" on="0"/>
        <pt x="164" y="86" on="0"/>
        <pt x="147" y="105" on="1"/>
        <pt x="131" y="122" on="0"/>
        <pt x="131" y="166" on="1"/>
        <pt x="131" y="289" on="1"/>
        <pt x="131" y="387" on="0"/>
        <pt x="219" y="387" on="1"/>
        <pt x="279" y="387" on="0"/>
        <pt x="338" y="327" on="0"/>
        <pt x="338" y="258" on="1"/>
        <pt x="338" y="147" on="1"/>
        <pt x="468" y="104" on="0"/>
        <pt x="588" y="104" on="1"/>
        <pt x="671" y="104" on="0"/>
        <pt x="802" y="149" on="0"/>
        <pt x="892" y="225" on="0"/>
        <pt x="940" y="322" on="0"/>
        <pt x="940" y="375" on="1"/>
        <pt x="940" y="429" on="0"/>
        <pt x="893" y="510" on="0"/>
        <pt x="788" y="581" on="0"/>
        <pt x="622" y="650" on="0"/>
        <pt x="504" y="691" on="1"/>
        <pt x="423" y="724" on="1"/>
        <pt x="398" y="734" on="0"/>
        <pt x="363" y="750" on="0"/>
        <pt x="333" y="767" on="0"/>
        <pt x="303" y="784" on="0"/>
        <pt x="284" y="796" on="1"/>
        <pt x="243" y="821" on="0"/>
        <pt x="185" y="879" on="0"/>
        <pt x="147" y="949" on="0"/>
        <pt x="128" y="1032" on="0"/>
        <pt x="125" y="1081" on="1"/>
        <pt x="125" y="1165" on="0"/>
        <pt x="192" y="1302" on="0"/>
        <pt x="318" y="1399" on="0"/>
        <pt x="498" y="1452" on="0"/>
        <pt x="612" y="1452" on="1"/>
        <pt x="784" y="1452" on="0"/>
        <pt x="991" y="1393" on="1"/>
        <pt x="1016" y="1385" on="0"/>
        <pt x="1048" y="1369" on="0"/>
        <pt x="1067" y="1348" on="0"/>
        <pt x="1075" y="1318" on="0"/>
        <pt x="1075" y="1296" on="1"/>
        <pt x="1075" y="1178" on="1"/>
        <pt x="1075" y="1079" on="0"/>
      </contour>
    </TTGlyph>
    <TTGlyph name="Scaron" xMin="125" yMin="0" xMax="1169" yMax="1882">
      <component glyphName="S" x="0" y="0" flags="0x204"/>
      <component glyphName="uniF6CA" x="-95" y="0" flags="0x4"/>
    </TTGlyph>
    <TTGlyph name="Scedilla" xMin="125" yMin="-430" xMax="1169" yMax="1452">
      <contour>
        <pt x="987" y="1079" on="1"/>
        <pt x="926" y="1079" on="0"/>
        <pt x="868" y="1138" on="0"/>
        <pt x="868" y="1206" on="1"/>
        <pt x="868" y="1311" on="1"/>
        <pt x="860" y="1312" on="0"/>
        <pt x="834" y="1321" on="1"/>
        <pt x="735" y="1348" on="0"/>
        <pt x="627" y="1348" on="1"/>
        <pt x="558" y="1348" on="0"/>
        <pt x="449" y="1301" on="0"/>
        <pt x="386" y="1225" on="0"/>
        <pt x="354" y="1138" on="0"/>
        <pt x="354" y="1094" on="1"/>
        <pt x="354" y="991" on="0"/>
        <pt x="469" y="886" on="0"/>
        <pt x="631" y="827" on="1"/>
        <pt x="729" y="792" on="0"/>
        <pt x="821" y="757" on="0"/>
        <pt x="964" y="697" on="0"/>
        <pt x="1026" y="657" on="0"/>
        <pt x="1110" y="594" on="0"/>
        <pt x="1143" y="531" on="0"/>
        <pt x="1169" y="447" on="0"/>
        <pt x="1169" y="397" on="1"/>
        <pt x="1169" y="231" on="0"/>
        <pt x="898" y="13" on="0"/>
        <pt x="655" y="0" on="1"/>
        <pt x="655" y="-86" on="1"/>
        <pt x="872" y="-86" on="0"/>
        <pt x="872" y="-246" on="1"/>
        <pt x="872" y="-330" on="0"/>
        <pt x="738" y="-430" on="0"/>
        <pt x="633" y="-430" on="1"/>
        <pt x="568" y="-430" on="0"/>
        <pt x="438" y="-382" on="0"/>
        <pt x="438" y="-342" on="1"/>
        <pt x="438" y="-326" on="0"/>
        <pt x="463" y="-301" on="0"/>
        <pt x="483" y="-301" on="1"/>
        <pt x="497" y="-301" on="0"/>
        <pt x="584" y="-326" on="0"/>
        <pt x="608" y="-326" on="1"/>
        <pt x="659" y="-326" on="0"/>
        <pt x="709" y="-282" on="0"/>
        <pt x="709" y="-252" on="1"/>
        <pt x="709" y="-198" on="0"/>
        <pt x="633" y="-166" on="0"/>
        <pt x="543" y="-166" on="1"/>
        <pt x="543" y="0" on="1"/>
        <pt x="455" y="6" on="0"/>
        <pt x="272" y="43" on="0"/>
        <pt x="211" y="68" on="1"/>
        <pt x="163" y="87" on="0"/>
        <pt x="131" y="123" on="0"/>
        <pt x="131" y="166" on="1"/>
        <pt x="131" y="289" on="1"/>
        <pt x="131" y="387" on="0"/>
        <pt x="219" y="387" on="1"/>
        <pt x="279" y="387" on="0"/>
        <pt x="338" y="327" on="0"/>
        <pt x="338" y="258" on="1"/>
        <pt x="338" y="147" on="1"/>
        <pt x="470" y="104" on="0"/>
        <pt x="588" y="104" on="1"/>
        <pt x="753" y="104" on="0"/>
        <pt x="940" y="267" on="0"/>
        <pt x="940" y="375" on="1"/>
        <pt x="940" y="426" on="0"/>
        <pt x="901" y="503" on="0"/>
        <pt x="806" y="570" on="0"/>
        <pt x="693" y="621" on="0"/>
        <pt x="596" y="657" on="1"/>
        <pt x="538" y="679" on="0"/>
        <pt x="471" y="704" on="0"/>
        <pt x="375" y="745" on="0"/>
        <pt x="320" y="774" on="0"/>
        <pt x="248" y="818" on="0"/>
        <pt x="208" y="858" on="0"/>
        <pt x="162" y="912" on="0"/>
        <pt x="140" y="970" on="0"/>
        <pt x="125" y="1041" on="0"/>
        <pt x="125" y="1081" on="1"/>
        <pt x="125" y="1249" on="0"/>
        <pt x="383" y="1452" on="0"/>
        <pt x="612" y="1452" on="1"/>
        <pt x="786" y="1452" on="0"/>
        <pt x="991" y="1393" on="1"/>
        <pt x="1041" y="1377" on="0"/>
        <pt x="1075" y="1340" on="0"/>
        <pt x="1075" y="1296" on="1"/>
        <pt x="1075" y="1178" on="1"/>
        <pt x="1075" y="1079" on="0"/>
      </contour>
    </TTGlyph>
    <TTGlyph name="T" xMin="41" yMin="0" xMax="1290" yMax="1452">
      <contour>
        <pt x="1083" y="1343" on="1"/>
        <pt x="776" y="1343" on="1"/>
        <pt x="776" y="123" on="1"/>
        <pt x="776" y="53" on="0"/>
        <pt x="716" y="0" on="0"/>
        <pt x="649" y="0" on="1"/>
        <pt x="555" y="0" on="0"/>
        <pt x="555" y="102" on="1"/>
        <pt x="555" y="1343" on="1"/>
        <pt x="248" y="1343" on="1"/>
        <pt x="248" y="1198" on="1"/>
        <pt x="248" y="1126" on="0"/>
        <pt x="189" y="1065" on="0"/>
        <pt x="129" y="1065" on="1"/>
        <pt x="41" y="1065" on="0"/>
        <pt x="41" y="1167" on="1"/>
        <pt x="41" y="1376" on="1"/>
        <pt x="41" y="1421" on="0"/>
        <pt x="100" y="1452" on="0"/>
        <pt x="164" y="1452" on="1"/>
        <pt x="1167" y="1452" on="1"/>
        <pt x="1231" y="1452" on="0"/>
        <pt x="1290" y="1421" on="0"/>
        <pt x="1290" y="1376" on="1"/>
        <pt x="1290" y="1167" on="1"/>
        <pt x="1290" y="1113" on="0"/>
        <pt x="1247" y="1065" on="0"/>
        <pt x="1202" y="1065" on="1"/>
        <pt x="1142" y="1065" on="0"/>
        <pt x="1083" y="1126" on="0"/>
        <pt x="1083" y="1198" on="1"/>
      </contour>
    </TTGlyph>
    <TTGlyph name="Thorn" xMin="205" yMin="0" xMax="1182" yMax="1452">
      <contour>
        <pt x="426" y="1294" on="1"/>
        <pt x="426" y="1180" on="1"/>
        <pt x="627" y="1180" on="1"/>
        <pt x="671" y="1180" on="0"/>
        <pt x="787" y="1173" on="0"/>
        <pt x="910" y="1146" on="0"/>
        <pt x="1030" y="1092" on="0"/>
        <pt x="1124" y="997" on="0"/>
        <pt x="1182" y="856" on="0"/>
        <pt x="1182" y="756" on="1"/>
        <pt x="1182" y="658" on="0"/>
        <pt x="1114" y="489" on="0"/>
        <pt x="976" y="363" on="0"/>
        <pt x="768" y="291" on="0"/>
        <pt x="629" y="291" on="1"/>
        <pt x="426" y="291" on="1"/>
        <pt x="426" y="133" on="1"/>
        <pt x="426" y="61" on="0"/>
        <pt x="365" y="0" on="0"/>
        <pt x="299" y="0" on="1"/>
        <pt x="205" y="0" on="0"/>
        <pt x="205" y="102" on="1"/>
        <pt x="205" y="1350" on="1"/>
        <pt x="205" y="1407" on="0"/>
        <pt x="247" y="1452" on="0"/>
        <pt x="295" y="1452" on="1"/>
        <pt x="359" y="1452" on="0"/>
        <pt x="426" y="1372" on="0"/>
      </contour>
      <contour>
        <pt x="627" y="1071" on="1"/>
        <pt x="426" y="1071" on="1"/>
        <pt x="426" y="399" on="1"/>
        <pt x="627" y="399" on="1"/>
        <pt x="780" y="399" on="0"/>
        <pt x="950" y="573" on="0"/>
        <pt x="950" y="756" on="1"/>
        <pt x="950" y="831" on="0"/>
        <pt x="915" y="948" on="0"/>
        <pt x="838" y="1029" on="0"/>
        <pt x="715" y="1071" on="0"/>
      </contour>
    </TTGlyph>
    <TTGlyph name="U" xMin="190" yMin="-31" xMax="1280" yMax="1452">
      <contour>
        <pt x="412" y="1294" on="1"/>
        <pt x="412" y="449" on="1"/>
        <pt x="412" y="366" on="0"/>
        <pt x="462" y="234" on="0"/>
        <pt x="555" y="142" on="0"/>
        <pt x="689" y="94" on="0"/>
        <pt x="774" y="94" on="1"/>
        <pt x="853" y="94" on="0"/>
        <pt x="980" y="148" on="0"/>
        <pt x="1070" y="245" on="0"/>
        <pt x="1118" y="378" on="0"/>
        <pt x="1118" y="457" on="1"/>
        <pt x="1118" y="1337" on="1"/>
        <pt x="1118" y="1397" on="0"/>
        <pt x="1169" y="1452" on="0"/>
        <pt x="1202" y="1452" on="1"/>
        <pt x="1235" y="1452" on="0"/>
        <pt x="1280" y="1408" on="0"/>
        <pt x="1280" y="1360" on="1"/>
        <pt x="1280" y="520" on="1"/>
        <pt x="1280" y="475" on="0"/>
        <pt x="1266" y="358" on="0"/>
        <pt x="1224" y="235" on="0"/>
        <pt x="1149" y="118" on="0"/>
        <pt x="1027" y="25" on="0"/>
        <pt x="853" y="-31" on="0"/>
        <pt x="733" y="-31" on="1"/>
        <pt x="610" y="-31" on="0"/>
        <pt x="434" y="23" on="0"/>
        <pt x="314" y="112" on="0"/>
        <pt x="241" y="227" on="0"/>
        <pt x="202" y="348" on="0"/>
        <pt x="190" y="466" on="0"/>
        <pt x="190" y="514" on="1"/>
        <pt x="190" y="1350" on="1"/>
        <pt x="190" y="1407" on="0"/>
        <pt x="232" y="1452" on="0"/>
        <pt x="281" y="1452" on="1"/>
        <pt x="345" y="1452" on="0"/>
        <pt x="412" y="1372" on="0"/>
      </contour>
    </TTGlyph>
    <TTGlyph name="Uacute" xMin="190" yMin="-31" xMax="1280" yMax="1972">
      <component glyphName="U" x="0" y="0" flags="0x204"/>
      <component glyphName="uniF6C9" x="35" y="0" flags="0x4"/>
    </TTGlyph>
    <TTGlyph name="Ucircumflex" xMin="190" yMin="-31" xMax="1280" yMax="1882">
      <component glyphName="U" x="0" y="0" flags="0x204"/>
      <component glyphName="circumflex" x="162" y="426" flags="0x4"/>
    </TTGlyph>
    <TTGlyph name="Udieresis" xMin="190" yMin="-31" xMax="1280" yMax="1886">
      <component glyphName="U" x="0" y="0" flags="0x204"/>
      <component glyphName="uniF6CB" x="94" y="0" flags="0x4"/>
    </TTGlyph>
    <TTGlyph name="Ugrave" xMin="190" yMin="-31" xMax="1280" yMax="1972">
      <component glyphName="U" x="0" y="0" flags="0x204"/>
      <component glyphName="uniF6CE" x="14" y="0" flags="0x4"/>
    </TTGlyph>
    <TTGlyph name="V" xMin="37" yMin="0" xMax="1194" yMax="1452">
      <contour>
        <pt x="643" y="231" on="1"/>
        <pt x="1014" y="1343" on="1"/>
        <pt x="1025" y="1376" on="0"/>
        <pt x="1050" y="1419" on="0"/>
        <pt x="1079" y="1443" on="0"/>
        <pt x="1112" y="1452" on="0"/>
        <pt x="1130" y="1452" on="1"/>
        <pt x="1159" y="1452" on="0"/>
        <pt x="1194" y="1420" on="0"/>
        <pt x="1194" y="1397" on="1"/>
        <pt x="1194" y="1385" on="0"/>
        <pt x="1189" y="1360" on="0"/>
        <pt x="1184" y="1346" on="1"/>
        <pt x="737" y="82" on="1"/>
        <pt x="707" y="0" on="0"/>
        <pt x="608" y="0" on="1"/>
        <pt x="511" y="0" on="0"/>
        <pt x="485" y="74" on="1"/>
        <pt x="45" y="1331" on="1"/>
        <pt x="37" y="1355" on="0"/>
        <pt x="37" y="1376" on="1"/>
        <pt x="37" y="1410" on="0"/>
        <pt x="80" y="1452" on="0"/>
        <pt x="125" y="1452" on="1"/>
        <pt x="230" y="1452" on="0"/>
        <pt x="266" y="1343" on="1"/>
        <pt x="631" y="231" on="1"/>
      </contour>
    </TTGlyph>
    <TTGlyph name="W" xMin="53" yMin="0" xMax="1694" yMax="1452">
      <contour>
        <pt x="1249" y="231" on="1"/>
        <pt x="1518" y="1343" on="1"/>
        <pt x="1528" y="1377" on="0"/>
        <pt x="1552" y="1420" on="0"/>
        <pt x="1581" y="1444" on="0"/>
        <pt x="1614" y="1452" on="0"/>
        <pt x="1632" y="1452" on="1"/>
        <pt x="1659" y="1452" on="0"/>
        <pt x="1694" y="1420" on="0"/>
        <pt x="1694" y="1397" on="1"/>
        <pt x="1694" y="1373" on="0"/>
        <pt x="1683" y="1346" on="1"/>
        <pt x="1341" y="82" on="1"/>
        <pt x="1319" y="0" on="0"/>
        <pt x="1214" y="0" on="1"/>
        <pt x="1174" y="0" on="0"/>
        <pt x="1104" y="36" on="0"/>
        <pt x="1094" y="74" on="1"/>
        <pt x="879" y="1059" on="1"/>
        <pt x="874" y="1059" on="1"/>
        <pt x="637" y="82" on="1"/>
        <pt x="616" y="0" on="0"/>
        <pt x="510" y="0" on="1"/>
        <pt x="468" y="0" on="0"/>
        <pt x="399" y="36" on="0"/>
        <pt x="389" y="74" on="1"/>
        <pt x="61" y="1331" on="1"/>
        <pt x="53" y="1355" on="0"/>
        <pt x="53" y="1376" on="1"/>
        <pt x="53" y="1409" on="0"/>
        <pt x="96" y="1452" on="0"/>
        <pt x="139" y="1452" on="1"/>
        <pt x="245" y="1452" on="0"/>
        <pt x="279" y="1343" on="1"/>
        <pt x="532" y="231" on="1"/>
        <pt x="545" y="231" on="1"/>
        <pt x="788" y="1323" on="1"/>
        <pt x="805" y="1392" on="0"/>
        <pt x="854" y="1452" on="0"/>
        <pt x="899" y="1452" on="1"/>
        <pt x="977" y="1452" on="0"/>
        <pt x="1004" y="1329" on="1"/>
        <pt x="1237" y="231" on="1"/>
      </contour>
    </TTGlyph>
    <TTGlyph name="X" xMin="61" yMin="0" xMax="1145" yMax="1452">
      <contour>
        <pt x="637" y="889" on="1"/>
        <pt x="899" y="1343" on="1"/>
        <pt x="932" y="1401" on="0"/>
        <pt x="994" y="1452" on="0"/>
        <pt x="1030" y="1452" on="1"/>
        <pt x="1055" y="1452" on="0"/>
        <pt x="1092" y="1425" on="0"/>
        <pt x="1092" y="1403" on="1"/>
        <pt x="1092" y="1375" on="0"/>
        <pt x="1069" y="1341" on="1"/>
        <pt x="725" y="782" on="1"/>
        <pt x="1128" y="123" on="1"/>
        <pt x="1136" y="109" on="0"/>
        <pt x="1145" y="82" on="0"/>
        <pt x="1145" y="66" on="1"/>
        <pt x="1145" y="39" on="0"/>
        <pt x="1101" y="0" on="0"/>
        <pt x="1065" y="0" on="1"/>
        <pt x="1035" y="0" on="0"/>
        <pt x="988" y="12" on="0"/>
        <pt x="949" y="37" on="0"/>
        <pt x="916" y="77" on="0"/>
        <pt x="899" y="106" on="1"/>
        <pt x="592" y="629" on="1"/>
        <pt x="584" y="629" on="1"/>
        <pt x="262" y="111" on="1"/>
        <pt x="242" y="77" on="0"/>
        <pt x="206" y="34" on="0"/>
        <pt x="173" y="9" on="0"/>
        <pt x="141" y="0" on="0"/>
        <pt x="123" y="0" on="1"/>
        <pt x="92" y="0" on="0"/>
        <pt x="61" y="26" on="0"/>
        <pt x="61" y="45" on="1"/>
        <pt x="61" y="71" on="0"/>
        <pt x="84" y="111" on="1"/>
        <pt x="494" y="750" on="1"/>
        <pt x="143" y="1333" on="1"/>
        <pt x="129" y="1354" on="0"/>
        <pt x="129" y="1382" on="1"/>
        <pt x="129" y="1410" on="0"/>
        <pt x="176" y="1452" on="0"/>
        <pt x="209" y="1452" on="1"/>
        <pt x="260" y="1452" on="0"/>
        <pt x="338" y="1397" on="0"/>
        <pt x="369" y="1343" on="1"/>
        <pt x="625" y="889" on="1"/>
      </contour>
    </TTGlyph>
    <TTGlyph name="Y" xMin="37" yMin="0" xMax="1092" yMax="1452">
      <contour>
        <pt x="549" y="0" on="1"/>
        <pt x="453" y="0" on="0"/>
        <pt x="453" y="102" on="1"/>
        <pt x="453" y="549" on="1"/>
        <pt x="49" y="1329" on="1"/>
        <pt x="37" y="1357" on="0"/>
        <pt x="37" y="1380" on="1"/>
        <pt x="37" y="1411" on="0"/>
        <pt x="78" y="1452" on="0"/>
        <pt x="111" y="1452" on="1"/>
        <pt x="138" y="1452" on="0"/>
        <pt x="182" y="1442" on="0"/>
        <pt x="220" y="1417" on="0"/>
        <pt x="253" y="1376" on="0"/>
        <pt x="268" y="1346" on="1"/>
        <pt x="594" y="702" on="1"/>
        <pt x="602" y="702" on="1"/>
        <pt x="909" y="1343" on="1"/>
        <pt x="961" y="1452" on="0"/>
        <pt x="1034" y="1452" on="1"/>
        <pt x="1063" y="1452" on="0"/>
        <pt x="1092" y="1413" on="0"/>
        <pt x="1092" y="1384" on="1"/>
        <pt x="1092" y="1364" on="0"/>
        <pt x="1081" y="1339" on="1"/>
        <pt x="674" y="549" on="1"/>
        <pt x="674" y="123" on="1"/>
        <pt x="674" y="52" on="0"/>
        <pt x="615" y="0" on="0"/>
      </contour>
    </TTGlyph>
    <TTGlyph name="Yacute" xMin="37" yMin="0" xMax="1092" yMax="1972">
      <component glyphName="Y" x="0" y="0" flags="0x204"/>
      <component glyphName="uniF6C9" x="-101" y="0" flags="0x4"/>
    </TTGlyph>
    <TTGlyph name="Ydieresis" xMin="37" yMin="0" xMax="1092" yMax="1887">
      <component glyphName="Y" x="0" y="0" flags="0x204"/>
      <component glyphName="uniF6CB" x="-63" y="1" flags="0x4"/>
    </TTGlyph>
    <TTGlyph name="Z" xMin="82" yMin="0" xMax="1130" yMax="1452">
      <contour>
        <pt x="1008" y="0" on="1"/>
        <pt x="174" y="0" on="1"/>
        <pt x="128" y="0" on="0"/>
        <pt x="82" y="58" on="0"/>
        <pt x="82" y="100" on="1"/>
        <pt x="82" y="149" on="0"/>
        <pt x="98" y="174" on="1"/>
        <pt x="883" y="1343" on="1"/>
        <pt x="334" y="1343" on="1"/>
        <pt x="334" y="1229" on="1"/>
        <pt x="334" y="1157" on="0"/>
        <pt x="276" y="1096" on="0"/>
        <pt x="215" y="1096" on="1"/>
        <pt x="170" y="1096" on="0"/>
        <pt x="127" y="1144" on="0"/>
        <pt x="127" y="1198" on="1"/>
        <pt x="127" y="1376" on="1"/>
        <pt x="127" y="1421" on="0"/>
        <pt x="186" y="1452" on="0"/>
        <pt x="250" y="1452" on="1"/>
        <pt x="1022" y="1452" on="1"/>
        <pt x="1067" y="1452" on="0"/>
        <pt x="1114" y="1391" on="0"/>
        <pt x="1114" y="1348" on="1"/>
        <pt x="1114" y="1302" on="0"/>
        <pt x="1098" y="1278" on="1"/>
        <pt x="295" y="109" on="1"/>
        <pt x="924" y="109" on="1"/>
        <pt x="924" y="223" on="1"/>
        <pt x="924" y="295" on="0"/>
        <pt x="982" y="356" on="0"/>
        <pt x="1042" y="356" on="1"/>
        <pt x="1087" y="356" on="0"/>
        <pt x="1130" y="308" on="0"/>
        <pt x="1130" y="254" on="1"/>
        <pt x="1130" y="76" on="1"/>
        <pt x="1130" y="31" on="0"/>
        <pt x="1072" y="0" on="0"/>
      </contour>
    </TTGlyph>
    <TTGlyph name="Zcaron" xMin="82" yMin="0" xMax="1130" yMax="1882">
      <component glyphName="Z" x="0" y="0" flags="0x204"/>
      <component glyphName="uniF6CA" x="-95" y="0" flags="0x4"/>
    </TTGlyph>
    <TTGlyph name="a" xMin="88" yMin="0" xMax="969" yMax="1028">
      <contour>
        <pt x="764" y="193" on="1"/>
        <pt x="758" y="195" on="1"/>
        <pt x="691" y="93" on="0"/>
        <pt x="517" y="0" on="0"/>
        <pt x="397" y="0" on="1"/>
        <pt x="321" y="0" on="0"/>
        <pt x="205" y="39" on="0"/>
        <pt x="127" y="111" on="0"/>
        <pt x="88" y="213" on="0"/>
        <pt x="88" y="276" on="1"/>
        <pt x="88" y="342" on="0"/>
        <pt x="133" y="471" on="0"/>
        <pt x="249" y="573" on="0"/>
        <pt x="449" y="635" on="0"/>
        <pt x="604" y="635" on="1"/>
        <pt x="754" y="635" on="1"/>
        <pt x="754" y="692" on="1"/>
        <pt x="754" y="762" on="0"/>
        <pt x="730" y="859" on="0"/>
        <pt x="681" y="919" on="0"/>
        <pt x="603" y="946" on="0"/>
        <pt x="549" y="946" on="1"/>
        <pt x="447" y="946" on="0"/>
        <pt x="369" y="860" on="1"/>
        <pt x="303" y="788" on="0"/>
        <pt x="244" y="788" on="1"/>
        <pt x="209" y="788" on="0"/>
        <pt x="172" y="828" on="0"/>
        <pt x="172" y="858" on="1"/>
        <pt x="172" y="897" on="0"/>
        <pt x="246" y="960" on="0"/>
        <pt x="365" y="1004" on="0"/>
        <pt x="514" y="1028" on="0"/>
        <pt x="590" y="1028" on="1"/>
        <pt x="701" y="1028" on="0"/>
        <pt x="847" y="982" on="0"/>
        <pt x="934" y="890" on="0"/>
        <pt x="969" y="751" on="0"/>
        <pt x="969" y="657" on="1"/>
        <pt x="969" y="96" on="1"/>
        <pt x="969" y="47" on="0"/>
        <pt x="935" y="0" on="0"/>
        <pt x="889" y="0" on="1"/>
        <pt x="822" y="0" on="0"/>
        <pt x="764" y="91" on="0"/>
      </contour>
      <contour>
        <pt x="756" y="549" on="1"/>
        <pt x="637" y="549" on="1"/>
        <pt x="301" y="549" on="0"/>
        <pt x="301" y="305" on="1"/>
        <pt x="301" y="137" on="0"/>
        <pt x="479" y="137" on="1"/>
        <pt x="518" y="137" on="0"/>
        <pt x="614" y="167" on="0"/>
        <pt x="699" y="227" on="0"/>
        <pt x="756" y="317" on="0"/>
        <pt x="756" y="377" on="1"/>
      </contour>
    </TTGlyph>
    <TTGlyph name="aacute" xMin="88" yMin="0" xMax="969" yMax="1534">
      <component glyphName="a" x="0" y="0" flags="0x204"/>
      <component glyphName="acute" x="2" y="0" flags="0x4"/>
    </TTGlyph>
    <TTGlyph name="accent" xMin="430" yMin="1167" xMax="768" yMax="1534">
      <contour>
        <pt x="561" y="1200" on="1"/>
        <pt x="549" y="1185" on="0"/>
        <pt x="507" y="1167" on="0"/>
        <pt x="485" y="1167" on="1"/>
        <pt x="462" y="1167" on="0"/>
        <pt x="430" y="1188" on="0"/>
        <pt x="430" y="1206" on="1"/>
        <pt x="430" y="1211" on="0"/>
        <pt x="431" y="1219" on="0"/>
        <pt x="434" y="1225" on="1"/>
        <pt x="541" y="1481" on="1"/>
        <pt x="553" y="1509" on="0"/>
        <pt x="620" y="1534" on="0"/>
        <pt x="657" y="1534" on="1"/>
        <pt x="708" y="1534" on="0"/>
        <pt x="768" y="1506" on="0"/>
        <pt x="768" y="1485" on="1"/>
        <pt x="768" y="1480" on="0"/>
        <pt x="765" y="1469" on="0"/>
        <pt x="762" y="1466" on="1"/>
      </contour>
    </TTGlyph>
    <TTGlyph name="acircumflex" xMin="88" yMin="0" xMax="969" yMax="1456">
      <component glyphName="a" x="0" y="0" flags="0x204"/>
      <component glyphName="circumflex" x="-13" y="0" flags="0x4"/>
    </TTGlyph>
    <TTGlyph name="acute" xMin="471" yMin="1167" xMax="809" yMax="1534">
      <contour>
        <pt x="803" y="1466" on="1"/>
        <pt x="602" y="1200" on="1"/>
        <pt x="576" y="1167" on="0"/>
        <pt x="526" y="1167" on="1"/>
        <pt x="503" y="1167" on="0"/>
        <pt x="471" y="1188" on="0"/>
        <pt x="471" y="1206" on="1"/>
        <pt x="471" y="1218" on="0"/>
        <pt x="475" y="1225" on="1"/>
        <pt x="582" y="1481" on="1"/>
        <pt x="593" y="1507" on="0"/>
        <pt x="658" y="1534" on="0"/>
        <pt x="698" y="1534" on="1"/>
        <pt x="749" y="1534" on="0"/>
        <pt x="809" y="1506" on="0"/>
        <pt x="809" y="1485" on="1"/>
        <pt x="809" y="1472" on="0"/>
      </contour>
    </TTGlyph>
    <TTGlyph name="adieresis" xMin="88" yMin="0" xMax="969" yMax="1411">
      <component glyphName="a" x="0" y="0" flags="0x204"/>
      <component glyphName="dieresis" x="0" y="0" flags="0x4"/>
    </TTGlyph>
    <TTGlyph name="ae" xMin="88" yMin="0" xMax="1647" yMax="1028">
      <contour>
        <pt x="1544" y="258" on="1"/>
        <pt x="1567" y="281" on="0"/>
        <pt x="1595" y="281" on="1"/>
        <pt x="1613" y="281" on="0"/>
        <pt x="1642" y="257" on="0"/>
        <pt x="1642" y="238" on="1"/>
        <pt x="1642" y="200" on="0"/>
        <pt x="1616" y="168" on="1"/>
        <pt x="1479" y="0" on="0"/>
        <pt x="1239" y="0" on="1"/>
        <pt x="926" y="0" on="0"/>
        <pt x="811" y="225" on="1"/>
        <pt x="805" y="225" on="1"/>
        <pt x="780" y="175" on="0"/>
        <pt x="690" y="92" on="0"/>
        <pt x="583" y="33" on="0"/>
        <pt x="468" y="0" on="0"/>
        <pt x="418" y="0" on="1"/>
        <pt x="252" y="0" on="0"/>
        <pt x="88" y="148" on="0"/>
        <pt x="88" y="276" on="1"/>
        <pt x="88" y="342" on="0"/>
        <pt x="133" y="471" on="0"/>
        <pt x="249" y="573" on="0"/>
        <pt x="449" y="635" on="0"/>
        <pt x="604" y="635" on="1"/>
        <pt x="754" y="635" on="1"/>
        <pt x="754" y="692" on="1"/>
        <pt x="754" y="762" on="0"/>
        <pt x="730" y="859" on="0"/>
        <pt x="681" y="919" on="0"/>
        <pt x="603" y="946" on="0"/>
        <pt x="549" y="946" on="1"/>
        <pt x="447" y="946" on="0"/>
        <pt x="369" y="860" on="1"/>
        <pt x="303" y="788" on="0"/>
        <pt x="244" y="788" on="1"/>
        <pt x="209" y="788" on="0"/>
        <pt x="172" y="828" on="0"/>
        <pt x="172" y="858" on="1"/>
        <pt x="172" y="897" on="0"/>
        <pt x="246" y="960" on="0"/>
        <pt x="365" y="1004" on="0"/>
        <pt x="514" y="1028" on="0"/>
        <pt x="590" y="1028" on="1"/>
        <pt x="822" y="1028" on="0"/>
        <pt x="905" y="918" on="1"/>
        <pt x="1027" y="1028" on="0"/>
        <pt x="1235" y="1028" on="1"/>
        <pt x="1328" y="1028" on="0"/>
        <pt x="1480" y="974" on="0"/>
        <pt x="1588" y="869" on="0"/>
        <pt x="1647" y="715" on="0"/>
        <pt x="1647" y="616" on="1"/>
        <pt x="1647" y="516" on="0"/>
        <pt x="1530" y="516" on="1"/>
        <pt x="979" y="516" on="1"/>
        <pt x="978" y="508" on="0"/>
        <pt x="977" y="485" on="0"/>
        <pt x="977" y="471" on="1"/>
        <pt x="977" y="288" on="0"/>
        <pt x="1121" y="90" on="0"/>
        <pt x="1274" y="90" on="1"/>
        <pt x="1326" y="90" on="0"/>
        <pt x="1407" y="122" on="0"/>
        <pt x="1462" y="161" on="0"/>
        <pt x="1492" y="196" on="0"/>
        <pt x="1494" y="198" on="1"/>
        <pt x="1499" y="203" on="0"/>
        <pt x="1512" y="219" on="0"/>
        <pt x="1522" y="231" on="1"/>
      </contour>
      <contour>
        <pt x="756" y="549" on="1"/>
        <pt x="637" y="549" on="1"/>
        <pt x="301" y="549" on="0"/>
        <pt x="301" y="305" on="1"/>
        <pt x="301" y="137" on="0"/>
        <pt x="479" y="137" on="1"/>
        <pt x="518" y="137" on="0"/>
        <pt x="614" y="167" on="0"/>
        <pt x="699" y="227" on="0"/>
        <pt x="756" y="317" on="0"/>
        <pt x="756" y="377" on="1"/>
      </contour>
      <contour>
        <pt x="1223" y="946" on="1"/>
        <pt x="1124" y="946" on="0"/>
        <pt x="999" y="779" on="0"/>
        <pt x="985" y="602" on="1"/>
        <pt x="1368" y="602" on="1"/>
        <pt x="1404" y="602" on="0"/>
        <pt x="1438" y="628" on="0"/>
        <pt x="1438" y="662" on="1"/>
        <pt x="1438" y="730" on="0"/>
        <pt x="1402" y="836" on="0"/>
        <pt x="1343" y="908" on="0"/>
        <pt x="1265" y="946" on="0"/>
      </contour>
    </TTGlyph>
    <TTGlyph name="agrave" xMin="88" yMin="0" xMax="969" yMax="1534">
      <component glyphName="a" x="0" y="0" flags="0x204"/>
      <component glyphName="grave" x="20" y="0" flags="0x4"/>
    </TTGlyph>
    <TTGlyph name="ampersand" xMin="113" yMin="0" xMax="1235" yMax="1452">
      <contour>
        <pt x="983" y="379" on="1"/>
        <pt x="996" y="398" on="0"/>
        <pt x="1029" y="465" on="0"/>
        <pt x="1049" y="514" on="1"/>
        <pt x="1063" y="547" on="0"/>
        <pt x="1098" y="580" on="0"/>
        <pt x="1124" y="580" on="1"/>
        <pt x="1153" y="580" on="0"/>
        <pt x="1188" y="553" on="0"/>
        <pt x="1188" y="532" on="1"/>
        <pt x="1188" y="514" on="0"/>
        <pt x="1172" y="467" on="0"/>
        <pt x="1151" y="420" on="0"/>
        <pt x="1129" y="381" on="0"/>
        <pt x="1123" y="370" on="1"/>
        <pt x="1103" y="334" on="0"/>
        <pt x="1069" y="291" on="1"/>
        <pt x="1214" y="109" on="1"/>
        <pt x="1235" y="82" on="0"/>
        <pt x="1235" y="59" on="1"/>
        <pt x="1235" y="32" on="0"/>
        <pt x="1189" y="0" on="0"/>
        <pt x="1149" y="0" on="1"/>
        <pt x="1122" y="0" on="0"/>
        <pt x="1081" y="6" on="0"/>
        <pt x="1049" y="20" on="0"/>
        <pt x="1022" y="42" on="0"/>
        <pt x="1010" y="57" on="1"/>
        <pt x="940" y="145" on="1"/>
        <pt x="899" y="106" on="0"/>
        <pt x="816" y="51" on="0"/>
        <pt x="726" y="16" on="0"/>
        <pt x="623" y="0" on="0"/>
        <pt x="561" y="0" on="1"/>
        <pt x="457" y="0" on="0"/>
        <pt x="292" y="58" on="0"/>
        <pt x="175" y="163" on="0"/>
        <pt x="113" y="312" on="0"/>
        <pt x="113" y="403" on="1"/>
        <pt x="113" y="469" on="0"/>
        <pt x="146" y="579" on="0"/>
        <pt x="219" y="677" on="0"/>
        <pt x="339" y="767" on="0"/>
        <pt x="426" y="813" on="1"/>
        <pt x="399" y="849" on="0"/>
        <pt x="351" y="933" on="0"/>
        <pt x="314" y="1018" on="0"/>
        <pt x="293" y="1098" on="0"/>
        <pt x="293" y="1130" on="1"/>
        <pt x="293" y="1199" on="0"/>
        <pt x="341" y="1317" on="0"/>
        <pt x="431" y="1403" on="0"/>
        <pt x="558" y="1452" on="0"/>
        <pt x="637" y="1452" on="1"/>
        <pt x="712" y="1452" on="0"/>
        <pt x="829" y="1409" on="0"/>
        <pt x="908" y="1336" on="0"/>
        <pt x="950" y="1237" on="0"/>
        <pt x="950" y="1182" on="1"/>
        <pt x="950" y="1117" on="0"/>
        <pt x="911" y="1013" on="0"/>
        <pt x="837" y="925" on="0"/>
        <pt x="731" y="847" on="0"/>
        <pt x="664" y="807" on="1"/>
      </contour>
      <contour>
        <pt x="578" y="106" on="1"/>
        <pt x="668" y="106" on="0"/>
        <pt x="803" y="180" on="0"/>
        <pt x="864" y="244" on="1"/>
        <pt x="496" y="723" on="1"/>
        <pt x="438" y="680" on="0"/>
        <pt x="369" y="611" on="0"/>
        <pt x="333" y="537" on="0"/>
        <pt x="322" y="447" on="0"/>
        <pt x="322" y="383" on="1"/>
        <pt x="322" y="330" on="0"/>
        <pt x="360" y="230" on="0"/>
        <pt x="429" y="153" on="0"/>
        <pt x="522" y="106" on="0"/>
      </contour>
      <contour>
        <pt x="498" y="1147" on="1"/>
        <pt x="498" y="1019" on="0"/>
        <pt x="594" y="889" on="1"/>
        <pt x="697" y="951" on="0"/>
        <pt x="793" y="1084" on="0"/>
        <pt x="793" y="1174" on="1"/>
        <pt x="793" y="1212" on="0"/>
        <pt x="771" y="1276" on="0"/>
        <pt x="734" y="1323" on="0"/>
        <pt x="683" y="1350" on="0"/>
        <pt x="653" y="1350" on="1"/>
        <pt x="616" y="1350" on="0"/>
        <pt x="558" y="1319" on="0"/>
        <pt x="519" y="1265" on="0"/>
        <pt x="498" y="1190" on="0"/>
      </contour>
    </TTGlyph>
    <TTGlyph name="aring" xMin="88" yMin="0" xMax="969" yMax="1577">
      <component glyphName="a" x="0" y="0" flags="0x204"/>
      <component glyphName="ring" x="10" y="0" flags="0x4"/>
    </TTGlyph>
    <TTGlyph name="asciicircum" xMin="156" yMin="981" xMax="887" yMax="1409">
      <contour>
        <pt x="522" y="1217" on="1"/>
        <pt x="360" y="1028" on="1"/>
        <pt x="342" y="1007" on="0"/>
        <pt x="271" y="983" on="0"/>
        <pt x="233" y="983" on="1"/>
        <pt x="201" y="983" on="0"/>
        <pt x="156" y="1001" on="0"/>
        <pt x="156" y="1014" on="1"/>
        <pt x="156" y="1019" on="0"/>
        <pt x="162" y="1028" on="1"/>
        <pt x="455" y="1374" on="1"/>
        <pt x="482" y="1409" on="0"/>
        <pt x="520" y="1409" on="1"/>
        <pt x="556" y="1409" on="0"/>
        <pt x="588" y="1374" on="1"/>
        <pt x="881" y="1028" on="1"/>
        <pt x="887" y="1019" on="0"/>
        <pt x="887" y="1014" on="1"/>
        <pt x="887" y="1000" on="0"/>
        <pt x="840" y="981" on="0"/>
        <pt x="809" y="981" on="1"/>
        <pt x="770" y="981" on="0"/>
        <pt x="698" y="1006" on="0"/>
        <pt x="680" y="1028" on="1"/>
      </contour>
    </TTGlyph>
    <TTGlyph name="asciitilde" xMin="184" yMin="522" xMax="1313" yMax="903">
      <contour>
        <pt x="1153" y="850" on="1"/>
        <pt x="1177" y="903" on="0"/>
        <pt x="1243" y="903" on="1"/>
        <pt x="1275" y="903" on="0"/>
        <pt x="1313" y="873" on="0"/>
        <pt x="1313" y="852" on="1"/>
        <pt x="1313" y="835" on="0"/>
        <pt x="1307" y="819" on="1"/>
        <pt x="1271" y="728" on="0"/>
        <pt x="1188" y="621" on="0"/>
        <pt x="1101" y="565" on="0"/>
        <pt x="1015" y="549" on="0"/>
        <pt x="977" y="549" on="1"/>
        <pt x="904" y="549" on="0"/>
        <pt x="770" y="599" on="0"/>
        <pt x="654" y="659" on="0"/>
        <pt x="558" y="709" on="0"/>
        <pt x="522" y="709" on="1"/>
        <pt x="456" y="709" on="0"/>
        <pt x="375" y="645" on="0"/>
        <pt x="344" y="573" on="1"/>
        <pt x="339" y="561" on="0"/>
        <pt x="319" y="543" on="0"/>
        <pt x="293" y="529" on="0"/>
        <pt x="265" y="522" on="0"/>
        <pt x="252" y="522" on="1"/>
        <pt x="184" y="522" on="0"/>
        <pt x="184" y="575" on="1"/>
        <pt x="184" y="589" on="0"/>
        <pt x="193" y="621" on="1"/>
        <pt x="210" y="682" on="0"/>
        <pt x="274" y="775" on="0"/>
        <pt x="358" y="838" on="0"/>
        <pt x="458" y="870" on="0"/>
        <pt x="512" y="870" on="1"/>
        <pt x="566" y="870" on="0"/>
        <pt x="669" y="840" on="0"/>
        <pt x="765" y="798" on="0"/>
        <pt x="851" y="752" on="0"/>
        <pt x="888" y="736" on="1"/>
        <pt x="947" y="711" on="0"/>
        <pt x="989" y="711" on="1"/>
        <pt x="1044" y="711" on="0"/>
        <pt x="1119" y="776" on="0"/>
      </contour>
    </TTGlyph>
    <TTGlyph name="asterisk" xMin="102" yMin="686" xMax="819" yMax="1451">
      <contour>
        <pt x="539" y="1417" on="1"/>
        <pt x="516" y="1163" on="1"/>
        <pt x="522" y="1159" on="1"/>
        <pt x="729" y="1305" on="1"/>
        <pt x="736" y="1309" on="0"/>
        <pt x="741" y="1309" on="1"/>
        <pt x="753" y="1309" on="0"/>
        <pt x="780" y="1287" on="0"/>
        <pt x="804" y="1254" on="0"/>
        <pt x="819" y="1218" on="0"/>
        <pt x="819" y="1204" on="1"/>
        <pt x="819" y="1186" on="0"/>
        <pt x="807" y="1180" on="1"/>
        <pt x="563" y="1069" on="1"/>
        <pt x="563" y="1063" on="1"/>
        <pt x="799" y="956" on="1"/>
        <pt x="813" y="950" on="0"/>
        <pt x="813" y="930" on="1"/>
        <pt x="813" y="916" on="0"/>
        <pt x="798" y="879" on="0"/>
        <pt x="776" y="847" on="0"/>
        <pt x="750" y="825" on="0"/>
        <pt x="739" y="825" on="1"/>
        <pt x="734" y="825" on="0"/>
        <pt x="727" y="829" on="1"/>
        <pt x="524" y="981" on="1"/>
        <pt x="518" y="977" on="1"/>
        <pt x="539" y="721" on="1"/>
        <pt x="539" y="686" on="0"/>
        <pt x="461" y="686" on="1"/>
        <pt x="383" y="686" on="0"/>
        <pt x="383" y="721" on="1"/>
        <pt x="403" y="977" on="1"/>
        <pt x="397" y="981" on="1"/>
        <pt x="197" y="829" on="1"/>
        <pt x="190" y="825" on="0"/>
        <pt x="184" y="825" on="1"/>
        <pt x="172" y="825" on="0"/>
        <pt x="147" y="847" on="0"/>
        <pt x="125" y="879" on="0"/>
        <pt x="111" y="916" on="0"/>
        <pt x="111" y="930" on="1"/>
        <pt x="111" y="950" on="0"/>
        <pt x="125" y="956" on="1"/>
        <pt x="358" y="1063" on="1"/>
        <pt x="358" y="1069" on="1"/>
        <pt x="117" y="1180" on="1"/>
        <pt x="102" y="1184" on="0"/>
        <pt x="102" y="1204" on="1"/>
        <pt x="102" y="1218" on="0"/>
        <pt x="118" y="1255" on="0"/>
        <pt x="142" y="1287" on="0"/>
        <pt x="170" y="1309" on="0"/>
        <pt x="182" y="1309" on="1"/>
        <pt x="186" y="1309" on="0"/>
        <pt x="195" y="1305" on="1"/>
        <pt x="399" y="1159" on="1"/>
        <pt x="406" y="1163" on="1"/>
        <pt x="383" y="1417" on="1"/>
        <pt x="383" y="1420" on="1"/>
        <pt x="383" y="1436" on="0"/>
        <pt x="432" y="1451" on="0"/>
        <pt x="461" y="1451" on="1"/>
        <pt x="490" y="1451" on="0"/>
        <pt x="539" y="1436" on="0"/>
        <pt x="539" y="1420" on="1"/>
      </contour>
    </TTGlyph>
    <TTGlyph name="at" xMin="123" yMin="-98" xMax="1608" yMax="1419">
      <contour>
        <pt x="479" y="524" on="1"/>
        <pt x="479" y="637" on="0"/>
        <pt x="552" y="832" on="0"/>
        <pt x="681" y="975" on="0"/>
        <pt x="856" y="1057" on="0"/>
        <pt x="958" y="1057" on="1"/>
        <pt x="1013" y="1057" on="0"/>
        <pt x="1108" y="1044" on="0"/>
        <pt x="1179" y="1020" on="0"/>
        <pt x="1219" y="984" on="0"/>
        <pt x="1219" y="961" on="1"/>
        <pt x="1219" y="956" on="0"/>
        <pt x="1192" y="831" on="0"/>
        <pt x="1166" y="710" on="1"/>
        <pt x="1114" y="472" on="0"/>
        <pt x="1114" y="463" on="1"/>
        <pt x="1114" y="401" on="0"/>
        <pt x="1182" y="401" on="1"/>
        <pt x="1227" y="401" on="0"/>
        <pt x="1324" y="450" on="0"/>
        <pt x="1404" y="545" on="0"/>
        <pt x="1456" y="683" on="0"/>
        <pt x="1456" y="772" on="1"/>
        <pt x="1456" y="838" on="0"/>
        <pt x="1412" y="962" on="0"/>
        <pt x="1333" y="1073" on="0"/>
        <pt x="1225" y="1165" on="0"/>
        <pt x="1097" y="1231" on="0"/>
        <pt x="954" y="1268" on="0"/>
        <pt x="881" y="1268" on="1"/>
        <pt x="805" y="1268" on="0"/>
        <pt x="656" y="1226" on="0"/>
        <pt x="521" y="1150" on="0"/>
        <pt x="406" y="1041" on="0"/>
        <pt x="322" y="906" on="0"/>
        <pt x="274" y="749" on="0"/>
        <pt x="274" y="662" on="1"/>
        <pt x="274" y="547" on="0"/>
        <pt x="360" y="328" on="0"/>
        <pt x="521" y="157" on="0"/>
        <pt x="749" y="53" on="0"/>
        <pt x="891" y="53" on="1"/>
        <pt x="1090" y="53" on="0"/>
        <pt x="1260" y="170" on="1"/>
        <pt x="1271" y="178" on="0"/>
        <pt x="1284" y="178" on="1"/>
        <pt x="1297" y="178" on="0"/>
        <pt x="1323" y="163" on="0"/>
        <pt x="1343" y="139" on="0"/>
        <pt x="1356" y="109" on="0"/>
        <pt x="1356" y="94" on="1"/>
        <pt x="1356" y="68" on="0"/>
        <pt x="1333" y="53" on="1"/>
        <pt x="1274" y="14" on="0"/>
        <pt x="1171" y="-43" on="0"/>
        <pt x="1066" y="-80" on="0"/>
        <pt x="952" y="-98" on="0"/>
        <pt x="881" y="-98" on="1"/>
        <pt x="798" y="-98" on="0"/>
        <pt x="621" y="-55" on="0"/>
        <pt x="453" y="31" on="0"/>
        <pt x="302" y="159" on="0"/>
        <pt x="189" y="328" on="0"/>
        <pt x="123" y="537" on="0"/>
        <pt x="123" y="662" on="1"/>
        <pt x="123" y="768" on="0"/>
        <pt x="179" y="963" on="0"/>
        <pt x="279" y="1132" on="0"/>
        <pt x="419" y="1269" on="0"/>
        <pt x="585" y="1366" on="0"/>
        <pt x="774" y="1419" on="0"/>
        <pt x="874" y="1419" on="1"/>
        <pt x="969" y="1419" on="0"/>
        <pt x="1152" y="1377" on="0"/>
        <pt x="1315" y="1298" on="0"/>
        <pt x="1452" y="1184" on="0"/>
        <pt x="1552" y="1040" on="0"/>
        <pt x="1608" y="869" on="0"/>
        <pt x="1608" y="772" on="1"/>
        <pt x="1608" y="655" on="0"/>
        <pt x="1532" y="469" on="0"/>
        <pt x="1405" y="339" on="0"/>
        <pt x="1240" y="270" on="0"/>
        <pt x="1151" y="270" on="1"/>
        <pt x="1128" y="270" on="0"/>
        <pt x="1071" y="278" on="0"/>
        <pt x="1016" y="301" on="0"/>
        <pt x="970" y="344" on="0"/>
        <pt x="958" y="379" on="1"/>
        <pt x="883" y="281" on="0"/>
        <pt x="702" y="281" on="1"/>
        <pt x="649" y="281" on="0"/>
        <pt x="567" y="316" on="0"/>
        <pt x="509" y="380" on="0"/>
        <pt x="479" y="469" on="0"/>
      </contour>
      <contour>
        <pt x="770" y="418" on="1"/>
        <pt x="875" y="418" on="0"/>
        <pt x="936" y="485" on="1"/>
        <pt x="1034" y="915" on="1"/>
        <pt x="999" y="936" on="0"/>
        <pt x="954" y="936" on="1"/>
        <pt x="900" y="936" on="0"/>
        <pt x="797" y="875" on="0"/>
        <pt x="717" y="770" on="0"/>
        <pt x="668" y="629" on="0"/>
        <pt x="668" y="549" on="1"/>
        <pt x="668" y="482" on="0"/>
        <pt x="722" y="418" on="0"/>
      </contour>
    </TTGlyph>
    <TTGlyph name="atilde" xMin="88" yMin="0" xMax="969" yMax="1405">
      <component glyphName="a" x="0" y="0" flags="0x204"/>
      <component glyphName="tilde" x="0" y="0" flags="0x4"/>
    </TTGlyph>
    <TTGlyph name="b" xMin="164" yMin="0" xMax="1051" yMax="1556">
      <contour>
        <pt x="377" y="1389" on="1"/>
        <pt x="377" y="840" on="1"/>
        <pt x="381" y="840" on="1"/>
        <pt x="485" y="1028" on="0"/>
        <pt x="700" y="1028" on="1"/>
        <pt x="770" y="1028" on="0"/>
        <pt x="896" y="990" on="0"/>
        <pt x="992" y="888" on="0"/>
        <pt x="1050" y="707" on="0"/>
        <pt x="1051" y="565" on="1"/>
        <pt x="1051" y="428" on="0"/>
        <pt x="984" y="217" on="0"/>
        <pt x="858" y="74" on="0"/>
        <pt x="677" y="0" on="0"/>
        <pt x="563" y="0" on="1"/>
        <pt x="422" y="0" on="0"/>
        <pt x="299" y="47" on="1"/>
        <pt x="267" y="59" on="0"/>
        <pt x="217" y="88" on="0"/>
        <pt x="183" y="130" on="0"/>
        <pt x="164" y="186" on="0"/>
        <pt x="164" y="225" on="1"/>
        <pt x="164" y="1460" on="1"/>
        <pt x="164" y="1511" on="0"/>
        <pt x="198" y="1556" on="0"/>
        <pt x="246" y="1556" on="1"/>
        <pt x="315" y="1556" on="0"/>
        <pt x="377" y="1479" on="0"/>
      </contour>
      <contour>
        <pt x="375" y="659" on="1"/>
        <pt x="375" y="190" on="1"/>
        <pt x="375" y="168" on="0"/>
        <pt x="401" y="129" on="0"/>
        <pt x="449" y="99" on="0"/>
        <pt x="519" y="82" on="0"/>
        <pt x="563" y="82" on="1"/>
        <pt x="829" y="82" on="0"/>
        <pt x="829" y="549" on="1"/>
        <pt x="829" y="657" on="0"/>
        <pt x="796" y="791" on="0"/>
        <pt x="739" y="865" on="0"/>
        <pt x="662" y="891" on="0"/>
        <pt x="618" y="891" on="1"/>
        <pt x="578" y="891" on="0"/>
        <pt x="492" y="850" on="0"/>
        <pt x="421" y="784" on="0"/>
        <pt x="375" y="701" on="0"/>
      </contour>
    </TTGlyph>
    <TTGlyph name="backslash" xMin="102" yMin="-422" xMax="1290" yMax="1538">
      <contour>
        <pt x="1163" y="-410" on="1"/>
        <pt x="104" y="1452" on="1"/>
        <pt x="102" y="1458" on="0"/>
        <pt x="102" y="1464" on="1"/>
        <pt x="102" y="1476" on="0"/>
        <pt x="124" y="1503" on="0"/>
        <pt x="155" y="1524" on="0"/>
        <pt x="191" y="1538" on="0"/>
        <pt x="205" y="1538" on="1"/>
        <pt x="225" y="1538" on="0"/>
        <pt x="231" y="1526" on="1"/>
        <pt x="1288" y="-346" on="1"/>
        <pt x="1290" y="-352" on="0"/>
        <pt x="1290" y="-356" on="1"/>
        <pt x="1290" y="-367" on="0"/>
        <pt x="1269" y="-390" on="0"/>
        <pt x="1239" y="-409" on="0"/>
        <pt x="1204" y="-422" on="0"/>
        <pt x="1190" y="-422" on="1"/>
        <pt x="1172" y="-422" on="0"/>
      </contour>
    </TTGlyph>
    <TTGlyph name="bar" xMin="184" yMin="-123" xMax="352" yMax="1516">
      <contour>
        <pt x="184" y="-72" on="1"/>
        <pt x="184" y="1464" on="1"/>
        <pt x="184" y="1488" on="0"/>
        <pt x="234" y="1516" on="0"/>
        <pt x="268" y="1516" on="1"/>
        <pt x="301" y="1516" on="0"/>
        <pt x="352" y="1487" on="0"/>
        <pt x="352" y="1464" on="1"/>
        <pt x="352" y="-72" on="1"/>
        <pt x="352" y="-96" on="0"/>
        <pt x="302" y="-123" on="0"/>
        <pt x="268" y="-123" on="1"/>
        <pt x="233" y="-123" on="0"/>
        <pt x="184" y="-96" on="0"/>
      </contour>
    </TTGlyph>
    <TTGlyph name="braceleft" xMin="164" yMin="-365" xMax="745" yMax="1516">
      <contour>
        <pt x="362" y="-4" on="1"/>
        <pt x="362" y="22" on="0"/>
        <pt x="364" y="84" on="0"/>
        <pt x="367" y="146" on="0"/>
        <pt x="369" y="200" on="0"/>
        <pt x="369" y="217" on="1"/>
        <pt x="369" y="260" on="0"/>
        <pt x="351" y="364" on="0"/>
        <pt x="310" y="456" on="0"/>
        <pt x="245" y="518" on="0"/>
        <pt x="197" y="518" on="1"/>
        <pt x="181" y="518" on="0"/>
        <pt x="164" y="552" on="0"/>
        <pt x="164" y="575" on="1"/>
        <pt x="164" y="599" on="0"/>
        <pt x="181" y="633" on="0"/>
        <pt x="197" y="633" on="1"/>
        <pt x="245" y="633" on="0"/>
        <pt x="311" y="696" on="0"/>
        <pt x="351" y="787" on="0"/>
        <pt x="369" y="892" on="0"/>
        <pt x="369" y="934" on="1"/>
        <pt x="369" y="951" on="0"/>
        <pt x="367" y="1005" on="0"/>
        <pt x="364" y="1067" on="0"/>
        <pt x="362" y="1129" on="0"/>
        <pt x="362" y="1155" on="1"/>
        <pt x="362" y="1184" on="0"/>
        <pt x="370" y="1260" on="0"/>
        <pt x="395" y="1340" on="0"/>
        <pt x="439" y="1417" on="0"/>
        <pt x="511" y="1478" on="0"/>
        <pt x="613" y="1516" on="0"/>
        <pt x="684" y="1516" on="1"/>
        <pt x="714" y="1516" on="0"/>
        <pt x="745" y="1487" on="0"/>
        <pt x="745" y="1464" on="1"/>
        <pt x="745" y="1443" on="0"/>
        <pt x="718" y="1409" on="0"/>
        <pt x="694" y="1403" on="1"/>
        <pt x="555" y="1370" on="0"/>
        <pt x="555" y="1223" on="1"/>
        <pt x="555" y="1217" on="0"/>
        <pt x="556" y="1173" on="0"/>
        <pt x="559" y="1113" on="0"/>
        <pt x="561" y="1046" on="0"/>
        <pt x="564" y="989" on="0"/>
        <pt x="565" y="949" on="0"/>
        <pt x="565" y="946" on="1"/>
        <pt x="565" y="882" on="0"/>
        <pt x="550" y="769" on="0"/>
        <pt x="508" y="676" on="0"/>
        <pt x="435" y="604" on="0"/>
        <pt x="377" y="580" on="1"/>
        <pt x="377" y="571" on="1"/>
        <pt x="434" y="548" on="0"/>
        <pt x="507" y="477" on="0"/>
        <pt x="549" y="385" on="0"/>
        <pt x="565" y="271" on="0"/>
        <pt x="565" y="205" on="1"/>
        <pt x="565" y="202" on="0"/>
        <pt x="564" y="163" on="0"/>
        <pt x="561" y="105" on="0"/>
        <pt x="559" y="38" on="0"/>
        <pt x="556" y="-21" on="0"/>
        <pt x="555" y="-66" on="0"/>
        <pt x="555" y="-72" on="1"/>
        <pt x="555" y="-219" on="0"/>
        <pt x="694" y="-252" on="1"/>
        <pt x="718" y="-258" on="0"/>
        <pt x="745" y="-292" on="0"/>
        <pt x="745" y="-313" on="1"/>
        <pt x="745" y="-336" on="0"/>
        <pt x="714" y="-365" on="0"/>
        <pt x="684" y="-365" on="1"/>
        <pt x="614" y="-365" on="0"/>
        <pt x="512" y="-328" on="0"/>
        <pt x="441" y="-267" on="0"/>
        <pt x="396" y="-190" on="0"/>
        <pt x="371" y="-110" on="0"/>
        <pt x="362" y="-34" on="0"/>
      </contour>
    </TTGlyph>
    <TTGlyph name="braceright" xMin="82" yMin="-365" xMax="664" yMax="1516">
      <contour>
        <pt x="465" y="-4" on="1"/>
        <pt x="465" y="-33" on="0"/>
        <pt x="456" y="-109" on="0"/>
        <pt x="432" y="-189" on="0"/>
        <pt x="388" y="-266" on="0"/>
        <pt x="316" y="-327" on="0"/>
        <pt x="213" y="-365" on="0"/>
        <pt x="143" y="-365" on="1"/>
        <pt x="113" y="-365" on="0"/>
        <pt x="82" y="-336" on="0"/>
        <pt x="82" y="-313" on="1"/>
        <pt x="82" y="-292" on="0"/>
        <pt x="109" y="-258" on="0"/>
        <pt x="133" y="-252" on="1"/>
        <pt x="272" y="-219" on="0"/>
        <pt x="272" y="-72" on="1"/>
        <pt x="272" y="-66" on="0"/>
        <pt x="271" y="-21" on="0"/>
        <pt x="268" y="38" on="0"/>
        <pt x="266" y="105" on="0"/>
        <pt x="263" y="163" on="0"/>
        <pt x="262" y="202" on="0"/>
        <pt x="262" y="205" on="1"/>
        <pt x="262" y="272" on="0"/>
        <pt x="279" y="386" on="0"/>
        <pt x="322" y="478" on="0"/>
        <pt x="395" y="548" on="0"/>
        <pt x="451" y="571" on="1"/>
        <pt x="451" y="580" on="1"/>
        <pt x="393" y="604" on="0"/>
        <pt x="320" y="675" on="0"/>
        <pt x="278" y="768" on="0"/>
        <pt x="262" y="881" on="0"/>
        <pt x="262" y="946" on="1"/>
        <pt x="262" y="949" on="0"/>
        <pt x="263" y="989" on="0"/>
        <pt x="266" y="1046" on="0"/>
        <pt x="268" y="1113" on="0"/>
        <pt x="271" y="1173" on="0"/>
        <pt x="272" y="1217" on="0"/>
        <pt x="272" y="1223" on="1"/>
        <pt x="272" y="1370" on="0"/>
        <pt x="133" y="1403" on="1"/>
        <pt x="109" y="1409" on="0"/>
        <pt x="82" y="1443" on="0"/>
        <pt x="82" y="1464" on="1"/>
        <pt x="82" y="1487" on="0"/>
        <pt x="113" y="1516" on="0"/>
        <pt x="143" y="1516" on="1"/>
        <pt x="212" y="1516" on="0"/>
        <pt x="314" y="1479" on="0"/>
        <pt x="386" y="1418" on="0"/>
        <pt x="431" y="1341" on="0"/>
        <pt x="456" y="1261" on="0"/>
        <pt x="465" y="1184" on="0"/>
        <pt x="465" y="1155" on="1"/>
        <pt x="465" y="1129" on="0"/>
        <pt x="463" y="1067" on="0"/>
        <pt x="461" y="1005" on="0"/>
        <pt x="459" y="951" on="0"/>
        <pt x="459" y="934" on="1"/>
        <pt x="459" y="905" on="0"/>
        <pt x="467" y="839" on="0"/>
        <pt x="483" y="772" on="0"/>
        <pt x="510" y="710" on="0"/>
        <pt x="548" y="662" on="0"/>
        <pt x="599" y="633" on="0"/>
        <pt x="631" y="633" on="1"/>
        <pt x="647" y="633" on="0"/>
        <pt x="664" y="599" on="0"/>
        <pt x="664" y="575" on="1"/>
        <pt x="664" y="552" on="0"/>
        <pt x="647" y="518" on="0"/>
        <pt x="631" y="518" on="1"/>
        <pt x="599" y="518" on="0"/>
        <pt x="549" y="490" on="0"/>
        <pt x="511" y="442" on="0"/>
        <pt x="484" y="380" on="0"/>
        <pt x="467" y="313" on="0"/>
        <pt x="459" y="246" on="0"/>
        <pt x="459" y="217" on="1"/>
        <pt x="459" y="200" on="0"/>
        <pt x="461" y="146" on="0"/>
        <pt x="463" y="84" on="0"/>
        <pt x="465" y="22" on="0"/>
      </contour>
    </TTGlyph>
    <TTGlyph name="bracketleft" xMin="164" yMin="-365" xMax="621" yMax="1495">
      <contour>
        <pt x="164" y="-262" on="1"/>
        <pt x="164" y="1393" on="1"/>
        <pt x="164" y="1495" on="0"/>
        <pt x="258" y="1495" on="1"/>
        <pt x="586" y="1495" on="1"/>
        <pt x="602" y="1495" on="0"/>
        <pt x="621" y="1452" on="0"/>
        <pt x="621" y="1423" on="1"/>
        <pt x="621" y="1396" on="0"/>
        <pt x="602" y="1354" on="0"/>
        <pt x="586" y="1354" on="1"/>
        <pt x="350" y="1354" on="1"/>
        <pt x="350" y="-223" on="1"/>
        <pt x="586" y="-223" on="1"/>
        <pt x="602" y="-223" on="0"/>
        <pt x="621" y="-266" on="0"/>
        <pt x="621" y="-295" on="1"/>
        <pt x="621" y="-323" on="0"/>
        <pt x="602" y="-365" on="0"/>
        <pt x="586" y="-365" on="1"/>
        <pt x="258" y="-365" on="1"/>
        <pt x="210" y="-365" on="0"/>
        <pt x="164" y="-316" on="0"/>
      </contour>
    </TTGlyph>
    <TTGlyph name="bracketright" xMin="72" yMin="-365" xMax="528" yMax="1495">
      <contour>
        <pt x="528" y="1393" on="1"/>
        <pt x="528" y="-262" on="1"/>
        <pt x="528" y="-316" on="0"/>
        <pt x="482" y="-365" on="0"/>
        <pt x="434" y="-365" on="1"/>
        <pt x="106" y="-365" on="1"/>
        <pt x="90" y="-365" on="0"/>
        <pt x="72" y="-323" on="0"/>
        <pt x="72" y="-295" on="1"/>
        <pt x="72" y="-265" on="0"/>
        <pt x="90" y="-223" on="0"/>
        <pt x="106" y="-223" on="1"/>
        <pt x="342" y="-223" on="1"/>
        <pt x="342" y="1354" on="1"/>
        <pt x="106" y="1354" on="1"/>
        <pt x="90" y="1354" on="0"/>
        <pt x="72" y="1396" on="0"/>
        <pt x="72" y="1423" on="1"/>
        <pt x="72" y="1453" on="0"/>
        <pt x="90" y="1495" on="0"/>
        <pt x="106" y="1495" on="1"/>
        <pt x="434" y="1495" on="1"/>
        <pt x="482" y="1495" on="0"/>
        <pt x="528" y="1447" on="0"/>
      </contour>
    </TTGlyph>
    <TTGlyph name="breve" xMin="256" yMin="1139" xMax="856" yMax="1456">
      <contour>
        <pt x="856" y="1399" on="1"/>
        <pt x="856" y="1344" on="0"/>
        <pt x="813" y="1249" on="0"/>
        <pt x="734" y="1179" on="0"/>
        <pt x="623" y="1139" on="0"/>
        <pt x="555" y="1139" on="1"/>
        <pt x="487" y="1139" on="0"/>
        <pt x="377" y="1179" on="0"/>
        <pt x="299" y="1249" on="0"/>
        <pt x="256" y="1344" on="0"/>
        <pt x="256" y="1399" on="1"/>
        <pt x="256" y="1422" on="0"/>
        <pt x="283" y="1456" on="0"/>
        <pt x="311" y="1456" on="1"/>
        <pt x="336" y="1456" on="0"/>
        <pt x="376" y="1426" on="0"/>
        <pt x="385" y="1401" on="1"/>
        <pt x="400" y="1361" on="0"/>
        <pt x="436" y="1311" on="0"/>
        <pt x="479" y="1284" on="0"/>
        <pt x="528" y="1274" on="0"/>
        <pt x="555" y="1274" on="1"/>
        <pt x="583" y="1274" on="0"/>
        <pt x="632" y="1284" on="0"/>
        <pt x="676" y="1311" on="0"/>
        <pt x="712" y="1361" on="0"/>
        <pt x="727" y="1401" on="1"/>
        <pt x="736" y="1426" on="0"/>
        <pt x="776" y="1456" on="0"/>
        <pt x="801" y="1456" on="1"/>
        <pt x="829" y="1456" on="0"/>
        <pt x="856" y="1422" on="0"/>
      </contour>
    </TTGlyph>
    <TTGlyph name="brokenbar" xMin="184" yMin="-123" xMax="352" yMax="1516">
      <contour>
        <pt x="184" y="879" on="1"/>
        <pt x="184" y="1464" on="1"/>
        <pt x="184" y="1488" on="0"/>
        <pt x="234" y="1516" on="0"/>
        <pt x="268" y="1516" on="1"/>
        <pt x="301" y="1516" on="0"/>
        <pt x="352" y="1487" on="0"/>
        <pt x="352" y="1464" on="1"/>
        <pt x="352" y="879" on="1"/>
        <pt x="352" y="854" on="0"/>
        <pt x="302" y="827" on="0"/>
        <pt x="268" y="827" on="1"/>
        <pt x="233" y="827" on="0"/>
        <pt x="184" y="854" on="0"/>
      </contour>
      <contour>
        <pt x="184" y="-72" on="1"/>
        <pt x="184" y="514" on="1"/>
        <pt x="184" y="538" on="0"/>
        <pt x="234" y="565" on="0"/>
        <pt x="268" y="565" on="1"/>
        <pt x="301" y="565" on="0"/>
        <pt x="352" y="537" on="0"/>
        <pt x="352" y="514" on="1"/>
        <pt x="352" y="-72" on="1"/>
        <pt x="352" y="-96" on="0"/>
        <pt x="302" y="-123" on="0"/>
        <pt x="268" y="-123" on="1"/>
        <pt x="233" y="-123" on="0"/>
        <pt x="184" y="-96" on="0"/>
      </contour>
    </TTGlyph>
    <TTGlyph name="bullet" xMin="184" yMin="483" xMax="664" yMax="963">
      <contour>
        <pt x="255" y="554" on="1"/>
        <pt x="184" y="625" on="0"/>
        <pt x="184" y="723" on="1"/>
        <pt x="184" y="771" on="0"/>
        <pt x="222" y="858" on="0"/>
        <pt x="288" y="924" on="0"/>
        <pt x="375" y="963" on="0"/>
        <pt x="424" y="963" on="1"/>
        <pt x="472" y="963" on="0"/>
        <pt x="559" y="924" on="0"/>
        <pt x="625" y="858" on="0"/>
        <pt x="664" y="771" on="0"/>
        <pt x="664" y="723" on="1"/>
        <pt x="664" y="674" on="0"/>
        <pt x="625" y="587" on="0"/>
        <pt x="559" y="521" on="0"/>
        <pt x="472" y="483" on="0"/>
        <pt x="424" y="483" on="1"/>
        <pt x="326" y="483" on="0"/>
      </contour>
    </TTGlyph>
    <TTGlyph name="c" xMin="102" yMin="0" xMax="963" yMax="1028">
      <contour>
        <pt x="864" y="258" on="1"/>
        <pt x="887" y="281" on="0"/>
        <pt x="915" y="281" on="1"/>
        <pt x="933" y="281" on="0"/>
        <pt x="963" y="257" on="0"/>
        <pt x="963" y="238" on="1"/>
        <pt x="963" y="201" on="0"/>
        <pt x="936" y="168" on="1"/>
        <pt x="799" y="0" on="0"/>
        <pt x="565" y="0" on="1"/>
        <pt x="438" y="0" on="0"/>
        <pt x="261" y="76" on="0"/>
        <pt x="151" y="213" on="0"/>
        <pt x="102" y="401" on="0"/>
        <pt x="102" y="512" on="1"/>
        <pt x="102" y="654" on="0"/>
        <pt x="177" y="851" on="0"/>
        <pt x="309" y="973" on="0"/>
        <pt x="486" y="1028" on="0"/>
        <pt x="588" y="1028" on="1"/>
        <pt x="658" y="1028" on="0"/>
        <pt x="786" y="992" on="0"/>
        <pt x="883" y="931" on="0"/>
        <pt x="940" y="852" on="0"/>
        <pt x="940" y="809" on="1"/>
        <pt x="940" y="791" on="0"/>
        <pt x="925" y="761" on="0"/>
        <pt x="901" y="740" on="0"/>
        <pt x="870" y="729" on="0"/>
        <pt x="854" y="729" on="1"/>
        <pt x="809" y="729" on="0"/>
        <pt x="757" y="772" on="0"/>
        <pt x="743" y="815" on="1"/>
        <pt x="732" y="845" on="0"/>
        <pt x="706" y="893" on="0"/>
        <pt x="668" y="928" on="0"/>
        <pt x="618" y="946" on="0"/>
        <pt x="584" y="946" on="1"/>
        <pt x="521" y="946" on="0"/>
        <pt x="424" y="905" on="0"/>
        <pt x="358" y="805" on="0"/>
        <pt x="324" y="638" on="0"/>
        <pt x="324" y="512" on="1"/>
        <pt x="324" y="407" on="0"/>
        <pt x="352" y="248" on="0"/>
        <pt x="415" y="143" on="0"/>
        <pt x="516" y="90" on="0"/>
        <pt x="588" y="90" on="1"/>
        <pt x="636" y="90" on="0"/>
        <pt x="710" y="111" on="0"/>
        <pt x="768" y="149" on="0"/>
        <pt x="815" y="198" on="0"/>
        <pt x="838" y="226" on="1"/>
      </contour>
    </TTGlyph>
    <TTGlyph name="caron" xMin="256" yMin="1140" xMax="891" yMax="1456">
      <contour>
        <pt x="467" y="1395" on="1"/>
        <pt x="573" y="1288" on="1"/>
        <pt x="680" y="1395" on="1"/>
        <pt x="710" y="1425" on="0"/>
        <pt x="775" y="1456" on="0"/>
        <pt x="813" y="1456" on="1"/>
        <pt x="846" y="1456" on="0"/>
        <pt x="891" y="1431" on="0"/>
        <pt x="891" y="1413" on="1"/>
        <pt x="891" y="1403" on="0"/>
        <pt x="883" y="1395" on="1"/>
        <pt x="674" y="1178" on="1"/>
        <pt x="656" y="1159" on="0"/>
        <pt x="608" y="1141" on="0"/>
        <pt x="573" y="1141" on="1"/>
        <pt x="508" y="1140" on="0"/>
        <pt x="473" y="1178" on="1"/>
        <pt x="264" y="1395" on="1"/>
        <pt x="256" y="1403" on="0"/>
        <pt x="256" y="1413" on="1"/>
        <pt x="256" y="1431" on="0"/>
        <pt x="301" y="1456" on="0"/>
        <pt x="334" y="1456" on="1"/>
        <pt x="409" y="1456" on="0"/>
      </contour>
    </TTGlyph>
    <TTGlyph name="ccedilla" xMin="102" yMin="-406" xMax="963" yMax="1028">
      <contour>
        <pt x="864" y="258" on="1"/>
        <pt x="887" y="281" on="0"/>
        <pt x="915" y="281" on="1"/>
        <pt x="933" y="281" on="0"/>
        <pt x="963" y="257" on="0"/>
        <pt x="963" y="238" on="1"/>
        <pt x="963" y="201" on="0"/>
        <pt x="936" y="168" on="1"/>
        <pt x="810" y="10" on="0"/>
        <pt x="596" y="0" on="1"/>
        <pt x="596" y="-78" on="1"/>
        <pt x="803" y="-78" on="0"/>
        <pt x="803" y="-229" on="1"/>
        <pt x="803" y="-270" on="0"/>
        <pt x="769" y="-336" on="0"/>
        <pt x="708" y="-382" on="0"/>
        <pt x="624" y="-406" on="0"/>
        <pt x="575" y="-406" on="1"/>
        <pt x="545" y="-406" on="0"/>
        <pt x="480" y="-395" on="0"/>
        <pt x="425" y="-373" on="0"/>
        <pt x="389" y="-342" on="0"/>
        <pt x="389" y="-322" on="1"/>
        <pt x="389" y="-306" on="0"/>
        <pt x="413" y="-283" on="0"/>
        <pt x="432" y="-283" on="1"/>
        <pt x="437" y="-283" on="0"/>
        <pt x="469" y="-290" on="0"/>
        <pt x="506" y="-298" on="0"/>
        <pt x="542" y="-305" on="0"/>
        <pt x="551" y="-305" on="1"/>
        <pt x="602" y="-305" on="0"/>
        <pt x="647" y="-264" on="0"/>
        <pt x="647" y="-236" on="1"/>
        <pt x="647" y="-210" on="0"/>
        <pt x="629" y="-178" on="0"/>
        <pt x="591" y="-160" on="0"/>
        <pt x="531" y="-154" on="0"/>
        <pt x="489" y="-154" on="1"/>
        <pt x="489" y="4" on="1"/>
        <pt x="384" y="15" on="0"/>
        <pt x="237" y="99" on="0"/>
        <pt x="144" y="232" on="0"/>
        <pt x="102" y="408" on="0"/>
        <pt x="102" y="512" on="1"/>
        <pt x="102" y="654" on="0"/>
        <pt x="177" y="851" on="0"/>
        <pt x="309" y="973" on="0"/>
        <pt x="486" y="1028" on="0"/>
        <pt x="588" y="1028" on="1"/>
        <pt x="658" y="1028" on="0"/>
        <pt x="786" y="992" on="0"/>
        <pt x="883" y="931" on="0"/>
        <pt x="940" y="852" on="0"/>
        <pt x="940" y="809" on="1"/>
        <pt x="940" y="791" on="0"/>
        <pt x="925" y="761" on="0"/>
        <pt x="901" y="740" on="0"/>
        <pt x="870" y="729" on="0"/>
        <pt x="854" y="729" on="1"/>
        <pt x="809" y="729" on="0"/>
        <pt x="757" y="772" on="0"/>
        <pt x="743" y="815" on="1"/>
        <pt x="732" y="845" on="0"/>
        <pt x="706" y="893" on="0"/>
        <pt x="668" y="928" on="0"/>
        <pt x="618" y="946" on="0"/>
        <pt x="584" y="946" on="1"/>
        <pt x="521" y="946" on="0"/>
        <pt x="424" y="905" on="0"/>
        <pt x="358" y="805" on="0"/>
        <pt x="324" y="638" on="0"/>
        <pt x="324" y="512" on="1"/>
        <pt x="324" y="407" on="0"/>
        <pt x="352" y="248" on="0"/>
        <pt x="415" y="143" on="0"/>
        <pt x="516" y="90" on="0"/>
        <pt x="588" y="90" on="1"/>
        <pt x="636" y="90" on="0"/>
        <pt x="710" y="111" on="0"/>
        <pt x="768" y="149" on="0"/>
        <pt x="815" y="198" on="0"/>
        <pt x="838" y="226" on="1"/>
      </contour>
    </TTGlyph>
    <TTGlyph name="cedilla" xMin="399" yMin="-406" xMax="813" yMax="20">
      <contour>
        <pt x="606" y="20" on="1"/>
        <pt x="606" y="-78" on="1"/>
        <pt x="813" y="-78" on="0"/>
        <pt x="813" y="-229" on="1"/>
        <pt x="813" y="-270" on="0"/>
        <pt x="779" y="-335" on="0"/>
        <pt x="718" y="-381" on="0"/>
        <pt x="635" y="-406" on="0"/>
        <pt x="586" y="-406" on="1"/>
        <pt x="556" y="-406" on="0"/>
        <pt x="491" y="-395" on="0"/>
        <pt x="435" y="-373" on="0"/>
        <pt x="399" y="-342" on="0"/>
        <pt x="399" y="-322" on="1"/>
        <pt x="399" y="-306" on="0"/>
        <pt x="423" y="-283" on="0"/>
        <pt x="442" y="-283" on="1"/>
        <pt x="447" y="-283" on="0"/>
        <pt x="479" y="-290" on="0"/>
        <pt x="516" y="-298" on="0"/>
        <pt x="552" y="-305" on="0"/>
        <pt x="561" y="-305" on="1"/>
        <pt x="612" y="-305" on="0"/>
        <pt x="657" y="-264" on="0"/>
        <pt x="657" y="-236" on="1"/>
        <pt x="657" y="-210" on="0"/>
        <pt x="639" y="-178" on="0"/>
        <pt x="602" y="-160" on="0"/>
        <pt x="542" y="-154" on="0"/>
        <pt x="500" y="-154" on="1"/>
        <pt x="500" y="20" on="1"/>
      </contour>
    </TTGlyph>
    <TTGlyph name="cent" xMin="123" yMin="-211" xMax="983" yMax="1211">
      <contour>
        <pt x="885" y="258" on="1"/>
        <pt x="894" y="269" on="0"/>
        <pt x="921" y="281" on="0"/>
        <pt x="936" y="281" on="1"/>
        <pt x="954" y="281" on="0"/>
        <pt x="983" y="257" on="0"/>
        <pt x="983" y="238" on="1"/>
        <pt x="983" y="218" on="0"/>
        <pt x="969" y="185" on="0"/>
        <pt x="956" y="168" on="1"/>
        <pt x="834" y="15" on="0"/>
        <pt x="643" y="2" on="1"/>
        <pt x="643" y="-178" on="1"/>
        <pt x="643" y="-180" on="1"/>
        <pt x="643" y="-196" on="0"/>
        <pt x="602" y="-211" on="0"/>
        <pt x="578" y="-211" on="1"/>
        <pt x="551" y="-211" on="0"/>
        <pt x="512" y="-195" on="0"/>
        <pt x="512" y="-178" on="1"/>
        <pt x="512" y="4" on="1"/>
        <pt x="409" y="14" on="0"/>
        <pt x="262" y="94" on="0"/>
        <pt x="167" y="225" on="0"/>
        <pt x="123" y="403" on="0"/>
        <pt x="123" y="512" on="1"/>
        <pt x="123" y="631" on="0"/>
        <pt x="178" y="811" on="0"/>
        <pt x="279" y="936" on="0"/>
        <pt x="423" y="1009" on="0"/>
        <pt x="512" y="1022" on="1"/>
        <pt x="512" y="1180" on="1"/>
        <pt x="512" y="1196" on="0"/>
        <pt x="552" y="1211" on="0"/>
        <pt x="578" y="1211" on="1"/>
        <pt x="604" y="1211" on="0"/>
        <pt x="643" y="1196" on="0"/>
        <pt x="643" y="1180" on="1"/>
        <pt x="643" y="1026" on="1"/>
        <pt x="704" y="1023" on="0"/>
        <pt x="818" y="985" on="0"/>
        <pt x="907" y="925" on="0"/>
        <pt x="961" y="850" on="0"/>
        <pt x="961" y="809" on="1"/>
        <pt x="961" y="791" on="0"/>
        <pt x="946" y="761" on="0"/>
        <pt x="921" y="740" on="0"/>
        <pt x="890" y="729" on="0"/>
        <pt x="874" y="729" on="1"/>
        <pt x="828" y="729" on="0"/>
        <pt x="779" y="772" on="0"/>
        <pt x="764" y="815" on="1"/>
        <pt x="748" y="860" on="0"/>
        <pt x="694" y="931" on="0"/>
        <pt x="643" y="942" on="1"/>
        <pt x="643" y="92" on="1"/>
        <pt x="710" y="100" on="0"/>
        <pt x="801" y="155" on="0"/>
        <pt x="832" y="193" on="1"/>
        <pt x="861" y="228" on="1"/>
      </contour>
      <contour>
        <pt x="344" y="512" on="1"/>
        <pt x="344" y="340" on="0"/>
        <pt x="422" y="137" on="0"/>
        <pt x="512" y="104" on="1"/>
        <pt x="512" y="932" on="1"/>
        <pt x="469" y="918" on="0"/>
        <pt x="406" y="856" on="0"/>
        <pt x="364" y="754" on="0"/>
        <pt x="344" y="609" on="0"/>
      </contour>
    </TTGlyph>
    <TTGlyph name="circumflex" xMin="256" yMin="1141" xMax="891" yMax="1456">
      <contour>
        <pt x="680" y="1202" on="1"/>
        <pt x="573" y="1309" on="1"/>
        <pt x="467" y="1202" on="1"/>
        <pt x="437" y="1171" on="0"/>
        <pt x="372" y="1141" on="0"/>
        <pt x="334" y="1141" on="1"/>
        <pt x="301" y="1141" on="0"/>
        <pt x="256" y="1166" on="0"/>
        <pt x="256" y="1184" on="1"/>
        <pt x="256" y="1194" on="0"/>
        <pt x="264" y="1202" on="1"/>
        <pt x="473" y="1419" on="1"/>
        <pt x="491" y="1438" on="0"/>
        <pt x="539" y="1456" on="0"/>
        <pt x="573" y="1456" on="1"/>
        <pt x="607" y="1456" on="0"/>
        <pt x="656" y="1437" on="0"/>
        <pt x="674" y="1419" on="1"/>
        <pt x="883" y="1202" on="1"/>
        <pt x="891" y="1194" on="0"/>
        <pt x="891" y="1184" on="1"/>
        <pt x="891" y="1166" on="0"/>
        <pt x="846" y="1141" on="0"/>
        <pt x="813" y="1141" on="1"/>
        <pt x="738" y="1141" on="0"/>
      </contour>
    </TTGlyph>
    <TTGlyph name="colon" xMin="123" yMin="0" xMax="434" yMax="1014">
      <contour>
        <pt x="123" y="852" on="1"/>
        <pt x="123" y="887" on="0"/>
        <pt x="147" y="947" on="0"/>
        <pt x="189" y="990" on="0"/>
        <pt x="246" y="1014" on="0"/>
        <pt x="279" y="1014" on="1"/>
        <pt x="312" y="1014" on="0"/>
        <pt x="369" y="989" on="0"/>
        <pt x="410" y="945" on="0"/>
        <pt x="434" y="886" on="0"/>
        <pt x="434" y="852" on="1"/>
        <pt x="434" y="819" on="0"/>
        <pt x="411" y="762" on="0"/>
        <pt x="369" y="719" on="0"/>
        <pt x="312" y="694" on="0"/>
        <pt x="279" y="694" on="1"/>
        <pt x="247" y="694" on="0"/>
        <pt x="190" y="718" on="0"/>
        <pt x="148" y="760" on="0"/>
        <pt x="123" y="818" on="0"/>
      </contour>
      <contour>
        <pt x="123" y="158" on="1"/>
        <pt x="123" y="193" on="0"/>
        <pt x="147" y="252" on="0"/>
        <pt x="189" y="295" on="0"/>
        <pt x="246" y="319" on="0"/>
        <pt x="279" y="319" on="1"/>
        <pt x="312" y="319" on="0"/>
        <pt x="368" y="295" on="0"/>
        <pt x="410" y="251" on="0"/>
        <pt x="434" y="192" on="0"/>
        <pt x="434" y="158" on="1"/>
        <pt x="434" y="125" on="0"/>
        <pt x="411" y="68" on="0"/>
        <pt x="369" y="25" on="0"/>
        <pt x="312" y="0" on="0"/>
        <pt x="279" y="0" on="1"/>
        <pt x="247" y="0" on="0"/>
        <pt x="190" y="24" on="0"/>
        <pt x="148" y="66" on="0"/>
        <pt x="123" y="124" on="0"/>
      </contour>
    </TTGlyph>
    <TTGlyph name="comma" xMin="123" yMin="-211" xMax="434" yMax="319">
      <contour>
        <pt x="172" y="-139" on="1"/>
        <pt x="250" y="25" on="1"/>
        <pt x="209" y="31" on="0"/>
        <pt x="160" y="66" on="0"/>
        <pt x="132" y="109" on="0"/>
        <pt x="123" y="154" on="0"/>
        <pt x="123" y="172" on="1"/>
        <pt x="123" y="208" on="0"/>
        <pt x="151" y="263" on="0"/>
        <pt x="197" y="300" on="0"/>
        <pt x="255" y="319" on="0"/>
        <pt x="285" y="319" on="1"/>
        <pt x="313" y="319" on="0"/>
        <pt x="367" y="300" on="0"/>
        <pt x="409" y="265" on="0"/>
        <pt x="434" y="214" on="0"/>
        <pt x="434" y="182" on="1"/>
        <pt x="434" y="119" on="0"/>
        <pt x="391" y="27" on="1"/>
        <pt x="305" y="-156" on="1"/>
        <pt x="281" y="-211" on="0"/>
        <pt x="229" y="-211" on="1"/>
        <pt x="204" y="-211" on="0"/>
        <pt x="168" y="-179" on="0"/>
        <pt x="168" y="-158" on="1"/>
        <pt x="168" y="-150" on="0"/>
      </contour>
    </TTGlyph>
    <TTGlyph name="copyright" xMin="102" yMin="-18" xMax="1618" yMax="1473">
      <contour>
        <pt x="282" y="973" on="1"/>
        <pt x="233" y="854" on="0"/>
        <pt x="233" y="727" on="1"/>
        <pt x="233" y="639" on="0"/>
        <pt x="278" y="475" on="0"/>
        <pt x="361" y="333" on="0"/>
        <pt x="476" y="217" on="0"/>
        <pt x="615" y="134" on="0"/>
        <pt x="775" y="88" on="0"/>
        <pt x="860" y="88" on="1"/>
        <pt x="949" y="88" on="0"/>
        <pt x="1111" y="136" on="0"/>
        <pt x="1250" y="222" on="0"/>
        <pt x="1364" y="341" on="0"/>
        <pt x="1444" y="483" on="0"/>
        <pt x="1487" y="643" on="0"/>
        <pt x="1487" y="727" on="1"/>
        <pt x="1487" y="814" on="0"/>
        <pt x="1442" y="976" on="0"/>
        <pt x="1360" y="1118" on="0"/>
        <pt x="1246" y="1235" on="0"/>
        <pt x="1106" y="1320" on="0"/>
        <pt x="946" y="1366" on="0"/>
        <pt x="860" y="1366" on="1"/>
        <pt x="761" y="1366" on="0"/>
        <pt x="583" y="1307" on="0"/>
        <pt x="433" y="1202" on="0"/>
        <pt x="318" y="1058" on="0"/>
      </contour>
      <contour>
        <pt x="1071" y="879" on="1"/>
        <pt x="971" y="879" on="0"/>
        <pt x="971" y="973" on="1"/>
        <pt x="971" y="1047" on="1"/>
        <pt x="944" y="1055" on="0"/>
        <pt x="918" y="1055" on="1"/>
        <pt x="711" y="1055" on="0"/>
        <pt x="711" y="723" on="1"/>
        <pt x="711" y="403" on="0"/>
        <pt x="911" y="403" on="1"/>
        <pt x="937" y="403" on="0"/>
        <pt x="1005" y="422" on="0"/>
        <pt x="1068" y="446" on="0"/>
        <pt x="1115" y="465" on="0"/>
        <pt x="1120" y="465" on="1"/>
        <pt x="1142" y="465" on="0"/>
        <pt x="1169" y="441" on="0"/>
        <pt x="1169" y="424" on="1"/>
        <pt x="1169" y="407" on="0"/>
        <pt x="1142" y="378" on="0"/>
        <pt x="1097" y="354" on="0"/>
        <pt x="1040" y="337" on="0"/>
        <pt x="980" y="325" on="0"/>
        <pt x="921" y="319" on="0"/>
        <pt x="897" y="319" on="1"/>
        <pt x="703" y="319" on="0"/>
        <pt x="508" y="526" on="0"/>
        <pt x="508" y="725" on="1"/>
        <pt x="508" y="838" on="0"/>
        <pt x="568" y="994" on="0"/>
        <pt x="674" y="1090" on="0"/>
        <pt x="819" y="1133" on="0"/>
        <pt x="903" y="1133" on="1"/>
        <pt x="943" y="1133" on="0"/>
        <pt x="1031" y="1123" on="0"/>
        <pt x="1106" y="1101" on="0"/>
        <pt x="1155" y="1065" on="0"/>
        <pt x="1155" y="1038" on="1"/>
        <pt x="1155" y="956" on="1"/>
        <pt x="1155" y="879" on="0"/>
      </contour>
      <contour>
        <pt x="860" y="1473" on="1"/>
        <pt x="961" y="1473" on="0"/>
        <pt x="1152" y="1422" on="0"/>
        <pt x="1321" y="1328" on="0"/>
        <pt x="1461" y="1194" on="0"/>
        <pt x="1562" y="1029" on="0"/>
        <pt x="1618" y="834" on="0"/>
        <pt x="1618" y="727" on="1"/>
        <pt x="1618" y="627" on="0"/>
        <pt x="1566" y="439" on="0"/>
        <pt x="1470" y="273" on="0"/>
        <pt x="1334" y="136" on="0"/>
        <pt x="1166" y="37" on="0"/>
        <pt x="969" y="-18" on="0"/>
        <pt x="860" y="-18" on="1"/>
        <pt x="756" y="-18" on="0"/>
        <pt x="563" y="34" on="0"/>
        <pt x="394" y="130" on="0"/>
        <pt x="256" y="265" on="0"/>
        <pt x="157" y="431" on="0"/>
        <pt x="102" y="623" on="0"/>
        <pt x="102" y="727" on="1"/>
        <pt x="102" y="832" on="0"/>
        <pt x="157" y="1024" on="0"/>
        <pt x="257" y="1190" on="0"/>
        <pt x="396" y="1325" on="0"/>
        <pt x="564" y="1421" on="0"/>
        <pt x="757" y="1473" on="0"/>
      </contour>
    </TTGlyph>
    <TTGlyph name="currency" xMin="18" yMin="180" xMax="1067" yMax="1229">
      <contour>
        <pt x="811" y="1079" on="1"/>
        <pt x="950" y="1219" on="1"/>
        <pt x="960" y="1229" on="0"/>
        <pt x="975" y="1229" on="1"/>
        <pt x="989" y="1229" on="0"/>
        <pt x="1021" y="1211" on="0"/>
        <pt x="1049" y="1183" on="0"/>
        <pt x="1067" y="1151" on="0"/>
        <pt x="1067" y="1137" on="1"/>
        <pt x="1067" y="1122" on="0"/>
        <pt x="1057" y="1112" on="1"/>
        <pt x="920" y="975" on="1"/>
        <pt x="1006" y="850" on="0"/>
        <pt x="1006" y="705" on="1"/>
        <pt x="1006" y="557" on="0"/>
        <pt x="918" y="436" on="1"/>
        <pt x="1055" y="299" on="1"/>
        <pt x="1065" y="289" on="0"/>
        <pt x="1065" y="272" on="1"/>
        <pt x="1065" y="258" on="0"/>
        <pt x="1048" y="227" on="0"/>
        <pt x="1021" y="200" on="0"/>
        <pt x="990" y="182" on="0"/>
        <pt x="975" y="182" on="1"/>
        <pt x="956" y="182" on="0"/>
        <pt x="948" y="193" on="1"/>
        <pt x="811" y="330" on="1"/>
        <pt x="678" y="242" on="0"/>
        <pt x="543" y="242" on="1"/>
        <pt x="406" y="242" on="0"/>
        <pt x="272" y="328" on="1"/>
        <pt x="135" y="190" on="1"/>
        <pt x="125" y="180" on="0"/>
        <pt x="111" y="180" on="1"/>
        <pt x="97" y="180" on="0"/>
        <pt x="64" y="198" on="0"/>
        <pt x="36" y="225" on="0"/>
        <pt x="18" y="258" on="0"/>
        <pt x="18" y="272" on="1"/>
        <pt x="18" y="286" on="0"/>
        <pt x="29" y="297" on="1"/>
        <pt x="166" y="434" on="1"/>
        <pt x="82" y="555" on="0"/>
        <pt x="82" y="705" on="1"/>
        <pt x="82" y="847" on="0"/>
        <pt x="166" y="975" on="1"/>
        <pt x="31" y="1110" on="1"/>
        <pt x="20" y="1118" on="0"/>
        <pt x="20" y="1137" on="1"/>
        <pt x="20" y="1151" on="0"/>
        <pt x="38" y="1183" on="0"/>
        <pt x="65" y="1210" on="0"/>
        <pt x="97" y="1227" on="0"/>
        <pt x="111" y="1227" on="1"/>
        <pt x="127" y="1227" on="0"/>
        <pt x="137" y="1217" on="1"/>
        <pt x="274" y="1079" on="1"/>
        <pt x="405" y="1165" on="0"/>
        <pt x="543" y="1165" on="1"/>
        <pt x="680" y="1165" on="0"/>
      </contour>
      <contour>
        <pt x="543" y="1020" on="1"/>
        <pt x="479" y="1020" on="0"/>
        <pt x="364" y="969" on="0"/>
        <pt x="278" y="883" on="0"/>
        <pt x="227" y="768" on="0"/>
        <pt x="227" y="705" on="1"/>
        <pt x="227" y="640" on="0"/>
        <pt x="277" y="525" on="0"/>
        <pt x="364" y="438" on="0"/>
        <pt x="478" y="387" on="0"/>
        <pt x="543" y="387" on="1"/>
        <pt x="609" y="387" on="0"/>
        <pt x="725" y="437" on="0"/>
        <pt x="810" y="524" on="0"/>
        <pt x="860" y="639" on="0"/>
        <pt x="860" y="705" on="1"/>
        <pt x="860" y="769" on="0"/>
        <pt x="809" y="883" on="0"/>
        <pt x="723" y="969" on="0"/>
        <pt x="607" y="1020" on="0"/>
      </contour>
    </TTGlyph>
    <TTGlyph name="d" xMin="102" yMin="0" xMax="989" yMax="1556">
      <contour>
        <pt x="590" y="1028" on="1"/>
        <pt x="689" y="1028" on="0"/>
        <pt x="776" y="993" on="1"/>
        <pt x="776" y="1389" on="1"/>
        <pt x="776" y="1479" on="0"/>
        <pt x="838" y="1556" on="0"/>
        <pt x="907" y="1556" on="1"/>
        <pt x="955" y="1556" on="0"/>
        <pt x="989" y="1511" on="0"/>
        <pt x="989" y="1460" on="1"/>
        <pt x="989" y="96" on="1"/>
        <pt x="989" y="46" on="0"/>
        <pt x="956" y="0" on="0"/>
        <pt x="909" y="0" on="1"/>
        <pt x="784" y="0" on="0"/>
        <pt x="784" y="213" on="1"/>
        <pt x="778" y="215" on="1"/>
        <pt x="751" y="171" on="0"/>
        <pt x="689" y="93" on="0"/>
        <pt x="611" y="34" on="0"/>
        <pt x="514" y="0" on="0"/>
        <pt x="453" y="0" on="1"/>
        <pt x="387" y="0" on="0"/>
        <pt x="261" y="46" on="0"/>
        <pt x="162" y="156" on="0"/>
        <pt x="102" y="335" on="0"/>
        <pt x="102" y="469" on="1"/>
        <pt x="102" y="612" on="0"/>
        <pt x="167" y="822" on="0"/>
        <pt x="292" y="960" on="0"/>
        <pt x="473" y="1028" on="0"/>
      </contour>
      <contour>
        <pt x="324" y="485" on="1"/>
        <pt x="324" y="392" on="0"/>
        <pt x="355" y="260" on="0"/>
        <pt x="410" y="176" on="0"/>
        <pt x="488" y="137" on="0"/>
        <pt x="535" y="137" on="1"/>
        <pt x="577" y="137" on="0"/>
        <pt x="663" y="185" on="0"/>
        <pt x="733" y="260" on="0"/>
        <pt x="778" y="353" on="0"/>
        <pt x="778" y="397" on="1"/>
        <pt x="778" y="825" on="1"/>
        <pt x="778" y="847" on="0"/>
        <pt x="751" y="891" on="0"/>
        <pt x="702" y="925" on="0"/>
        <pt x="632" y="946" on="0"/>
        <pt x="590" y="946" on="1"/>
        <pt x="530" y="946" on="0"/>
        <pt x="432" y="905" on="0"/>
        <pt x="362" y="800" on="0"/>
        <pt x="324" y="622" on="0"/>
      </contour>
    </TTGlyph>
    <TTGlyph name="dagger" xMin="82" yMin="-188" xMax="868" yMax="1454">
      <contour>
        <pt x="385" y="805" on="1"/>
        <pt x="139" y="805" on="1"/>
        <pt x="112" y="805" on="0"/>
        <pt x="82" y="853" on="0"/>
        <pt x="82" y="921" on="0"/>
        <pt x="112" y="969" on="0"/>
        <pt x="139" y="969" on="1"/>
        <pt x="385" y="969" on="1"/>
        <pt x="385" y="1395" on="1"/>
        <pt x="385" y="1423" on="0"/>
        <pt x="439" y="1454" on="0"/>
        <pt x="511" y="1454" on="0"/>
        <pt x="565" y="1423" on="0"/>
        <pt x="565" y="1395" on="1"/>
        <pt x="565" y="969" on="1"/>
        <pt x="811" y="969" on="1"/>
        <pt x="837" y="969" on="0"/>
        <pt x="868" y="920" on="0"/>
        <pt x="868" y="854" on="0"/>
        <pt x="837" y="805" on="0"/>
        <pt x="811" y="805" on="1"/>
        <pt x="565" y="805" on="1"/>
        <pt x="565" y="-129" on="1"/>
        <pt x="565" y="-158" on="0"/>
        <pt x="512" y="-188" on="0"/>
        <pt x="438" y="-188" on="0"/>
        <pt x="385" y="-158" on="0"/>
        <pt x="385" y="-129" on="1"/>
      </contour>
    </TTGlyph>
    <TTGlyph name="daggerdbl" xMin="82" yMin="-188" xMax="868" yMax="1454">
      <contour>
        <pt x="385" y="805" on="1"/>
        <pt x="139" y="805" on="1"/>
        <pt x="112" y="805" on="0"/>
        <pt x="82" y="853" on="0"/>
        <pt x="82" y="921" on="0"/>
        <pt x="112" y="969" on="0"/>
        <pt x="139" y="969" on="1"/>
        <pt x="385" y="969" on="1"/>
        <pt x="385" y="1395" on="1"/>
        <pt x="385" y="1423" on="0"/>
        <pt x="439" y="1454" on="0"/>
        <pt x="511" y="1454" on="0"/>
        <pt x="565" y="1423" on="0"/>
        <pt x="565" y="1395" on="1"/>
        <pt x="565" y="969" on="1"/>
        <pt x="811" y="969" on="1"/>
        <pt x="837" y="969" on="0"/>
        <pt x="868" y="920" on="0"/>
        <pt x="868" y="854" on="0"/>
        <pt x="837" y="805" on="0"/>
        <pt x="811" y="805" on="1"/>
        <pt x="565" y="805" on="1"/>
        <pt x="565" y="461" on="1"/>
        <pt x="811" y="461" on="1"/>
        <pt x="837" y="461" on="0"/>
        <pt x="868" y="412" on="0"/>
        <pt x="868" y="346" on="0"/>
        <pt x="837" y="297" on="0"/>
        <pt x="811" y="297" on="1"/>
        <pt x="565" y="297" on="1"/>
        <pt x="565" y="-129" on="1"/>
        <pt x="565" y="-158" on="0"/>
        <pt x="512" y="-188" on="0"/>
        <pt x="438" y="-188" on="0"/>
        <pt x="385" y="-158" on="0"/>
        <pt x="385" y="-129" on="1"/>
        <pt x="385" y="297" on="1"/>
        <pt x="139" y="297" on="1"/>
        <pt x="112" y="297" on="0"/>
        <pt x="82" y="345" on="0"/>
        <pt x="82" y="413" on="0"/>
        <pt x="112" y="461" on="0"/>
        <pt x="139" y="461" on="1"/>
        <pt x="385" y="461" on="1"/>
      </contour>
    </TTGlyph>
    <TTGlyph name="degree" xMin="102" yMin="1012" xMax="578" yMax="1485">
      <contour>
        <pt x="102" y="1245" on="1"/>
        <pt x="102" y="1295" on="0"/>
        <pt x="140" y="1383" on="0"/>
        <pt x="206" y="1448" on="0"/>
        <pt x="293" y="1485" on="0"/>
        <pt x="342" y="1485" on="1"/>
        <pt x="390" y="1485" on="0"/>
        <pt x="476" y="1447" on="0"/>
        <pt x="540" y="1382" on="0"/>
        <pt x="578" y="1294" on="0"/>
        <pt x="578" y="1245" on="1"/>
        <pt x="578" y="1198" on="0"/>
        <pt x="541" y="1113" on="0"/>
        <pt x="477" y="1049" on="0"/>
        <pt x="391" y="1012" on="0"/>
        <pt x="342" y="1012" on="1"/>
        <pt x="292" y="1012" on="0"/>
        <pt x="205" y="1049" on="0"/>
        <pt x="140" y="1113" on="0"/>
        <pt x="102" y="1197" on="0"/>
      </contour>
      <contour>
        <pt x="215" y="1243" on="1"/>
        <pt x="215" y="1219" on="0"/>
        <pt x="235" y="1176" on="0"/>
        <pt x="269" y="1142" on="0"/>
        <pt x="314" y="1122" on="0"/>
        <pt x="340" y="1122" on="1"/>
        <pt x="365" y="1122" on="0"/>
        <pt x="411" y="1142" on="0"/>
        <pt x="445" y="1176" on="0"/>
        <pt x="465" y="1219" on="0"/>
        <pt x="465" y="1243" on="1"/>
        <pt x="465" y="1272" on="0"/>
        <pt x="442" y="1320" on="0"/>
        <pt x="406" y="1355" on="0"/>
        <pt x="361" y="1374" on="0"/>
        <pt x="340" y="1374" on="1"/>
        <pt x="316" y="1374" on="0"/>
        <pt x="270" y="1353" on="0"/>
        <pt x="236" y="1317" on="0"/>
        <pt x="215" y="1269" on="0"/>
      </contour>
    </TTGlyph>
    <TTGlyph name="dieresis" xMin="233" yMin="1161" xMax="885" yMax="1411">
      <contour>
        <pt x="233" y="1286" on="1"/>
        <pt x="233" y="1311" on="0"/>
        <pt x="253" y="1357" on="0"/>
        <pt x="288" y="1391" on="0"/>
        <pt x="333" y="1411" on="0"/>
        <pt x="358" y="1411" on="1"/>
        <pt x="383" y="1411" on="0"/>
        <pt x="428" y="1391" on="0"/>
        <pt x="463" y="1356" on="0"/>
        <pt x="483" y="1311" on="0"/>
        <pt x="483" y="1286" on="1"/>
        <pt x="483" y="1261" on="0"/>
        <pt x="463" y="1216" on="0"/>
        <pt x="429" y="1181" on="0"/>
        <pt x="383" y="1161" on="0"/>
        <pt x="358" y="1161" on="1"/>
        <pt x="333" y="1161" on="0"/>
        <pt x="288" y="1181" on="0"/>
        <pt x="253" y="1216" on="0"/>
        <pt x="233" y="1261" on="0"/>
      </contour>
      <contour>
        <pt x="635" y="1286" on="1"/>
        <pt x="635" y="1311" on="0"/>
        <pt x="655" y="1356" on="0"/>
        <pt x="690" y="1391" on="0"/>
        <pt x="735" y="1411" on="0"/>
        <pt x="760" y="1411" on="1"/>
        <pt x="785" y="1411" on="0"/>
        <pt x="830" y="1390" on="0"/>
        <pt x="864" y="1356" on="0"/>
        <pt x="885" y="1311" on="0"/>
        <pt x="885" y="1286" on="1"/>
        <pt x="885" y="1261" on="0"/>
        <pt x="864" y="1216" on="0"/>
        <pt x="830" y="1181" on="0"/>
        <pt x="785" y="1161" on="0"/>
        <pt x="760" y="1161" on="1"/>
        <pt x="734" y="1161" on="0"/>
        <pt x="689" y="1181" on="0"/>
        <pt x="655" y="1216" on="0"/>
        <pt x="635" y="1261" on="0"/>
      </contour>
    </TTGlyph>
    <TTGlyph name="divide" xMin="184" yMin="207" xMax="1248" yMax="1223">
      <contour>
        <pt x="586" y="1092" on="1"/>
        <pt x="586" y="1120" on="0"/>
        <pt x="607" y="1168" on="0"/>
        <pt x="643" y="1203" on="0"/>
        <pt x="690" y="1223" on="0"/>
        <pt x="717" y="1223" on="1"/>
        <pt x="744" y="1223" on="0"/>
        <pt x="792" y="1203" on="0"/>
        <pt x="828" y="1167" on="0"/>
        <pt x="848" y="1119" on="0"/>
        <pt x="848" y="1092" on="1"/>
        <pt x="848" y="1065" on="0"/>
        <pt x="828" y="1018" on="0"/>
        <pt x="793" y="982" on="0"/>
        <pt x="745" y="961" on="0"/>
        <pt x="717" y="961" on="1"/>
        <pt x="690" y="961" on="0"/>
        <pt x="642" y="982" on="0"/>
        <pt x="607" y="1017" on="0"/>
        <pt x="586" y="1065" on="0"/>
      </contour>
      <contour>
        <pt x="586" y="338" on="1"/>
        <pt x="586" y="365" on="0"/>
        <pt x="607" y="413" on="0"/>
        <pt x="643" y="449" on="0"/>
        <pt x="691" y="469" on="0"/>
        <pt x="717" y="469" on="1"/>
        <pt x="744" y="469" on="0"/>
        <pt x="792" y="448" on="0"/>
        <pt x="827" y="413" on="0"/>
        <pt x="848" y="365" on="0"/>
        <pt x="848" y="338" on="1"/>
        <pt x="848" y="310" on="0"/>
        <pt x="828" y="262" on="0"/>
        <pt x="793" y="227" on="0"/>
        <pt x="745" y="207" on="0"/>
        <pt x="717" y="207" on="1"/>
        <pt x="690" y="207" on="0"/>
        <pt x="643" y="227" on="0"/>
        <pt x="607" y="262" on="0"/>
        <pt x="586" y="310" on="0"/>
      </contour>
      <contour>
        <pt x="1208" y="633" on="1"/>
        <pt x="225" y="633" on="1"/>
        <pt x="222" y="633" on="1"/>
        <pt x="203" y="633" on="0"/>
        <pt x="184" y="684" on="0"/>
        <pt x="184" y="715" on="1"/>
        <pt x="184" y="746" on="0"/>
        <pt x="203" y="797" on="0"/>
        <pt x="222" y="797" on="1"/>
        <pt x="225" y="797" on="1"/>
        <pt x="1208" y="797" on="1"/>
        <pt x="1228" y="797" on="0"/>
        <pt x="1248" y="747" on="0"/>
        <pt x="1248" y="715" on="1"/>
        <pt x="1248" y="683" on="0"/>
        <pt x="1228" y="633" on="0"/>
      </contour>
    </TTGlyph>
    <TTGlyph name="dollar" xMin="66" yMin="-240" xMax="1020" yMax="1665">
      <contour>
        <pt x="852" y="1079" on="1"/>
        <pt x="795" y="1079" on="0"/>
        <pt x="743" y="1137" on="0"/>
        <pt x="743" y="1206" on="1"/>
        <pt x="743" y="1311" on="1"/>
        <pt x="737" y="1312" on="0"/>
        <pt x="721" y="1317" on="0"/>
        <pt x="711" y="1321" on="1"/>
        <pt x="679" y="1329" on="0"/>
        <pt x="626" y="1341" on="0"/>
        <pt x="604" y="1343" on="1"/>
        <pt x="604" y="799" on="1"/>
        <pt x="699" y="760" on="0"/>
        <pt x="853" y="690" on="0"/>
        <pt x="961" y="604" on="0"/>
        <pt x="1020" y="491" on="0"/>
        <pt x="1020" y="411" on="1"/>
        <pt x="1020" y="331" on="0"/>
        <pt x="968" y="193" on="0"/>
        <pt x="864" y="87" on="0"/>
        <pt x="708" y="18" on="0"/>
        <pt x="604" y="6" on="1"/>
        <pt x="604" y="-197" on="1"/>
        <pt x="604" y="-217" on="0"/>
        <pt x="567" y="-240" on="0"/>
        <pt x="541" y="-240" on="1"/>
        <pt x="516" y="-240" on="0"/>
        <pt x="479" y="-217" on="0"/>
        <pt x="479" y="-197" on="1"/>
        <pt x="479" y="0" on="1"/>
        <pt x="426" y="1" on="0"/>
        <pt x="300" y="21" on="0"/>
        <pt x="187" y="51" on="0"/>
        <pt x="100" y="87" on="0"/>
        <pt x="86" y="105" on="1"/>
        <pt x="72" y="124" on="0"/>
        <pt x="72" y="166" on="1"/>
        <pt x="72" y="289" on="1"/>
        <pt x="72" y="387" on="0"/>
        <pt x="152" y="387" on="1"/>
        <pt x="207" y="387" on="0"/>
        <pt x="262" y="327" on="0"/>
        <pt x="262" y="258" on="1"/>
        <pt x="262" y="147" on="1"/>
        <pt x="369" y="107" on="0"/>
        <pt x="479" y="104" on="1"/>
        <pt x="479" y="666" on="1"/>
        <pt x="376" y="708" on="1"/>
        <pt x="308" y="736" on="0"/>
        <pt x="194" y="801" on="0"/>
        <pt x="112" y="887" on="0"/>
        <pt x="66" y="1002" on="0"/>
        <pt x="66" y="1081" on="1"/>
        <pt x="66" y="1161" on="0"/>
        <pt x="122" y="1293" on="0"/>
        <pt x="228" y="1389" on="0"/>
        <pt x="381" y="1445" on="0"/>
        <pt x="479" y="1450" on="1"/>
        <pt x="479" y="1622" on="1"/>
        <pt x="479" y="1642" on="0"/>
        <pt x="516" y="1665" on="0"/>
        <pt x="541" y="1665" on="1"/>
        <pt x="567" y="1665" on="0"/>
        <pt x="604" y="1643" on="0"/>
        <pt x="604" y="1622" on="1"/>
        <pt x="604" y="1448" on="1"/>
        <pt x="656" y="1444" on="0"/>
        <pt x="781" y="1416" on="0"/>
        <pt x="856" y="1393" on="1"/>
        <pt x="878" y="1385" on="0"/>
        <pt x="908" y="1369" on="0"/>
        <pt x="926" y="1348" on="0"/>
        <pt x="934" y="1318" on="0"/>
        <pt x="934" y="1296" on="1"/>
        <pt x="934" y="1178" on="1"/>
        <pt x="934" y="1079" on="0"/>
      </contour>
      <contour>
        <pt x="276" y="1094" on="1"/>
        <pt x="276" y="1047" on="0"/>
        <pt x="295" y="978" on="0"/>
        <pt x="342" y="921" on="0"/>
        <pt x="420" y="873" on="0"/>
        <pt x="479" y="848" on="1"/>
        <pt x="479" y="1343" on="1"/>
        <pt x="429" y="1335" on="0"/>
        <pt x="354" y="1286" on="0"/>
        <pt x="302" y="1218" on="0"/>
        <pt x="276" y="1136" on="0"/>
      </contour>
      <contour>
        <pt x="809" y="375" on="1"/>
        <pt x="809" y="416" on="0"/>
        <pt x="787" y="481" on="0"/>
        <pt x="738" y="537" on="0"/>
        <pt x="660" y="586" on="0"/>
        <pt x="604" y="612" on="1"/>
        <pt x="604" y="119" on="1"/>
        <pt x="654" y="133" on="0"/>
        <pt x="730" y="184" on="0"/>
        <pt x="782" y="252" on="0"/>
        <pt x="809" y="332" on="0"/>
      </contour>
    </TTGlyph>
    <TTGlyph name="dotaccent" xMin="430" yMin="1161" xMax="684" yMax="1415">
      <contour>
        <pt x="467" y="1198" on="1"/>
        <pt x="430" y="1236" on="0"/>
        <pt x="430" y="1340" on="0"/>
        <pt x="504" y="1415" on="0"/>
        <pt x="610" y="1415" on="0"/>
        <pt x="684" y="1340" on="0"/>
        <pt x="684" y="1236" on="0"/>
        <pt x="609" y="1161" on="0"/>
        <pt x="505" y="1161" on="0"/>
      </contour>
    </TTGlyph>
    <TTGlyph name="dotlessi" xMin="174" yMin="0" xMax="387" yMax="1028">
      <contour>
        <pt x="387" y="891" on="1"/>
        <pt x="387" y="139" on="1"/>
        <pt x="387" y="95" on="0"/>
        <pt x="373" y="41" on="0"/>
        <pt x="342" y="11" on="0"/>
        <pt x="292" y="0" on="0"/>
        <pt x="256" y="0" on="1"/>
        <pt x="208" y="0" on="0"/>
        <pt x="174" y="47" on="0"/>
        <pt x="174" y="96" on="1"/>
        <pt x="174" y="932" on="1"/>
        <pt x="174" y="981" on="0"/>
        <pt x="208" y="1028" on="0"/>
        <pt x="256" y="1028" on="1"/>
        <pt x="387" y="1028" on="0"/>
      </contour>
    </TTGlyph>
    <TTGlyph name="e" xMin="102" yMin="0" xMax="993" yMax="1028">
      <contour>
        <pt x="891" y="258" on="1"/>
        <pt x="900" y="269" on="0"/>
        <pt x="927" y="281" on="0"/>
        <pt x="942" y="281" on="1"/>
        <pt x="960" y="281" on="0"/>
        <pt x="989" y="257" on="0"/>
        <pt x="989" y="238" on="1"/>
        <pt x="989" y="200" on="0"/>
        <pt x="963" y="168" on="1"/>
        <pt x="826" y="0" on="0"/>
        <pt x="586" y="0" on="1"/>
        <pt x="466" y="0" on="0"/>
        <pt x="284" y="67" on="0"/>
        <pt x="163" y="194" on="0"/>
        <pt x="102" y="375" on="0"/>
        <pt x="102" y="489" on="1"/>
        <pt x="102" y="754" on="0"/>
        <pt x="347" y="1028" on="0"/>
        <pt x="582" y="1028" on="1"/>
        <pt x="675" y="1028" on="0"/>
        <pt x="826" y="974" on="0"/>
        <pt x="934" y="869" on="0"/>
        <pt x="993" y="715" on="0"/>
        <pt x="993" y="616" on="1"/>
        <pt x="993" y="516" on="0"/>
        <pt x="877" y="516" on="1"/>
        <pt x="326" y="516" on="1"/>
        <pt x="325" y="508" on="0"/>
        <pt x="324" y="485" on="0"/>
        <pt x="324" y="471" on="1"/>
        <pt x="324" y="383" on="0"/>
        <pt x="358" y="242" on="0"/>
        <pt x="428" y="143" on="0"/>
        <pt x="535" y="90" on="0"/>
        <pt x="608" y="90" on="1"/>
        <pt x="668" y="90" on="0"/>
        <pt x="754" y="121" on="0"/>
        <pt x="815" y="166" on="0"/>
        <pt x="857" y="216" on="0"/>
        <pt x="872" y="234" on="1"/>
      </contour>
      <contour>
        <pt x="569" y="946" on="1"/>
        <pt x="470" y="946" on="0"/>
        <pt x="345" y="779" on="0"/>
        <pt x="332" y="602" on="1"/>
        <pt x="715" y="602" on="1"/>
        <pt x="751" y="602" on="0"/>
        <pt x="784" y="628" on="0"/>
        <pt x="784" y="662" on="1"/>
        <pt x="784" y="731" on="0"/>
        <pt x="749" y="837" on="0"/>
        <pt x="690" y="909" on="0"/>
        <pt x="612" y="946" on="0"/>
      </contour>
    </TTGlyph>
    <TTGlyph name="eacute" xMin="102" yMin="0" xMax="993" yMax="1534">
      <component glyphName="e" x="0" y="0" flags="0x204"/>
      <component glyphName="acute" x="0" y="0" flags="0x4"/>
    </TTGlyph>
    <TTGlyph name="ecircumflex" xMin="102" yMin="0" xMax="993" yMax="1456">
      <component glyphName="e" x="0" y="0" flags="0x204"/>
      <component glyphName="circumflex" x="-24" y="0" flags="0x4"/>
    </TTGlyph>
    <TTGlyph name="edieresis" xMin="102" yMin="0" xMax="993" yMax="1411">
      <component glyphName="e" x="0" y="0" flags="0x204"/>
      <component glyphName="dieresis" x="-19" y="0" flags="0x4"/>
    </TTGlyph>
    <TTGlyph name="egrave" xMin="102" yMin="0" xMax="993" yMax="1534">
      <component glyphName="e" x="0" y="0" flags="0x204"/>
      <component glyphName="grave" x="20" y="0" flags="0x4"/>
    </TTGlyph>
    <TTGlyph name="eight" xMin="76" yMin="0" xMax="1010" yMax="1452">
      <contour>
        <pt x="766" y="1096" on="1"/>
        <pt x="766" y="1167" on="0"/>
        <pt x="725" y="1264" on="0"/>
        <pt x="660" y="1323" on="0"/>
        <pt x="581" y="1348" on="0"/>
        <pt x="543" y="1348" on="1"/>
        <pt x="505" y="1348" on="0"/>
        <pt x="426" y="1323" on="0"/>
        <pt x="361" y="1265" on="0"/>
        <pt x="319" y="1168" on="0"/>
        <pt x="319" y="1096" on="1"/>
        <pt x="319" y="1028" on="0"/>
        <pt x="354" y="930" on="0"/>
        <pt x="414" y="865" on="0"/>
        <pt x="496" y="834" on="0"/>
        <pt x="543" y="834" on="1"/>
        <pt x="591" y="834" on="0"/>
        <pt x="672" y="866" on="0"/>
        <pt x="732" y="931" on="0"/>
        <pt x="766" y="1029" on="0"/>
      </contour>
      <contour>
        <pt x="303" y="424" on="1"/>
        <pt x="303" y="345" on="0"/>
        <pt x="339" y="226" on="0"/>
        <pt x="404" y="145" on="0"/>
        <pt x="492" y="104" on="0"/>
        <pt x="543" y="104" on="1"/>
        <pt x="594" y="104" on="0"/>
        <pt x="682" y="145" on="0"/>
        <pt x="746" y="225" on="0"/>
        <pt x="782" y="345" on="0"/>
        <pt x="782" y="424" on="1"/>
        <pt x="782" y="510" on="0"/>
        <pt x="740" y="629" on="0"/>
        <pt x="673" y="702" on="0"/>
        <pt x="587" y="735" on="0"/>
        <pt x="543" y="735" on="1"/>
        <pt x="499" y="735" on="0"/>
        <pt x="413" y="703" on="0"/>
        <pt x="345" y="630" on="0"/>
        <pt x="303" y="511" on="0"/>
      </contour>
      <contour>
        <pt x="752" y="795" on="1"/>
        <pt x="752" y="778" on="1"/>
        <pt x="815" y="764" on="0"/>
        <pt x="911" y="699" on="0"/>
        <pt x="977" y="607" on="0"/>
        <pt x="1010" y="492" on="0"/>
        <pt x="1010" y="428" on="1"/>
        <pt x="1010" y="326" on="0"/>
        <pt x="944" y="167" on="0"/>
        <pt x="823" y="57" on="0"/>
        <pt x="650" y="0" on="0"/>
        <pt x="543" y="0" on="1"/>
        <pt x="436" y="0" on="0"/>
        <pt x="263" y="57" on="0"/>
        <pt x="142" y="167" on="0"/>
        <pt x="76" y="326" on="0"/>
        <pt x="76" y="428" on="1"/>
        <pt x="76" y="491" on="0"/>
        <pt x="109" y="604" on="0"/>
        <pt x="174" y="695" on="0"/>
        <pt x="271" y="761" on="0"/>
        <pt x="334" y="778" on="1"/>
        <pt x="334" y="795" on="1"/>
        <pt x="284" y="807" on="0"/>
        <pt x="199" y="862" on="0"/>
        <pt x="136" y="940" on="0"/>
        <pt x="100" y="1036" on="0"/>
        <pt x="100" y="1090" on="1"/>
        <pt x="100" y="1156" on="0"/>
        <pt x="146" y="1286" on="0"/>
        <pt x="251" y="1389" on="0"/>
        <pt x="420" y="1452" on="0"/>
        <pt x="543" y="1452" on="1"/>
        <pt x="666" y="1452" on="0"/>
        <pt x="835" y="1388" on="0"/>
        <pt x="939" y="1285" on="0"/>
        <pt x="985" y="1156" on="0"/>
        <pt x="985" y="1092" on="1"/>
        <pt x="985" y="1038" on="0"/>
        <pt x="949" y="940" on="0"/>
        <pt x="887" y="860" on="0"/>
        <pt x="801" y="805" on="0"/>
      </contour>
    </TTGlyph>
    <TTGlyph name="ellipsis" xMin="123" yMin="0" xMax="1507" yMax="319">
      <contour>
        <pt x="1196" y="158" on="1"/>
        <pt x="1196" y="193" on="0"/>
        <pt x="1220" y="252" on="0"/>
        <pt x="1262" y="295" on="0"/>
        <pt x="1319" y="319" on="0"/>
        <pt x="1352" y="319" on="1"/>
        <pt x="1385" y="319" on="0"/>
        <pt x="1441" y="295" on="0"/>
        <pt x="1483" y="251" on="0"/>
        <pt x="1507" y="192" on="0"/>
        <pt x="1507" y="158" on="1"/>
        <pt x="1507" y="125" on="0"/>
        <pt x="1484" y="68" on="0"/>
        <pt x="1442" y="25" on="0"/>
        <pt x="1385" y="0" on="0"/>
        <pt x="1352" y="0" on="1"/>
        <pt x="1320" y="0" on="0"/>
        <pt x="1263" y="24" on="0"/>
        <pt x="1221" y="66" on="0"/>
        <pt x="1196" y="124" on="0"/>
      </contour>
      <contour>
        <pt x="123" y="158" on="1"/>
        <pt x="123" y="193" on="0"/>
        <pt x="147" y="252" on="0"/>
        <pt x="189" y="295" on="0"/>
        <pt x="246" y="319" on="0"/>
        <pt x="279" y="319" on="1"/>
        <pt x="312" y="319" on="0"/>
        <pt x="368" y="295" on="0"/>
        <pt x="410" y="251" on="0"/>
        <pt x="434" y="192" on="0"/>
        <pt x="434" y="158" on="1"/>
        <pt x="434" y="125" on="0"/>
        <pt x="411" y="68" on="0"/>
        <pt x="369" y="25" on="0"/>
        <pt x="312" y="0" on="0"/>
        <pt x="279" y="0" on="1"/>
        <pt x="247" y="0" on="0"/>
        <pt x="190" y="24" on="0"/>
        <pt x="148" y="66" on="0"/>
        <pt x="123" y="124" on="0"/>
      </contour>
      <contour>
        <pt x="659" y="158" on="1"/>
        <pt x="659" y="193" on="0"/>
        <pt x="683" y="252" on="0"/>
        <pt x="725" y="295" on="0"/>
        <pt x="782" y="319" on="0"/>
        <pt x="815" y="319" on="1"/>
        <pt x="848" y="319" on="0"/>
        <pt x="905" y="295" on="0"/>
        <pt x="947" y="251" on="0"/>
        <pt x="971" y="192" on="0"/>
        <pt x="971" y="158" on="1"/>
        <pt x="971" y="125" on="0"/>
        <pt x="947" y="67" on="0"/>
        <pt x="905" y="25" on="0"/>
        <pt x="848" y="0" on="0"/>
        <pt x="815" y="0" on="1"/>
        <pt x="783" y="0" on="0"/>
        <pt x="726" y="24" on="0"/>
        <pt x="684" y="66" on="0"/>
        <pt x="659" y="124" on="0"/>
      </contour>
    </TTGlyph>
    <TTGlyph name="emdash" xMin="164" yMin="512" xMax="1927" yMax="666">
      <contour>
        <pt x="1888" y="512" on="1"/>
        <pt x="203" y="512" on="1"/>
        <pt x="184" y="512" on="0"/>
        <pt x="164" y="557" on="0"/>
        <pt x="164" y="588" on="1"/>
        <pt x="164" y="620" on="0"/>
        <pt x="184" y="666" on="0"/>
        <pt x="203" y="666" on="1"/>
        <pt x="1888" y="666" on="1"/>
        <pt x="1906" y="666" on="0"/>
        <pt x="1927" y="619" on="0"/>
        <pt x="1927" y="588" on="1"/>
        <pt x="1927" y="558" on="0"/>
        <pt x="1906" y="512" on="0"/>
      </contour>
    </TTGlyph>
    <TTGlyph name="endash" xMin="164" yMin="512" xMax="1454" yMax="666">
      <contour>
        <pt x="1415" y="512" on="1"/>
        <pt x="203" y="512" on="1"/>
        <pt x="184" y="512" on="0"/>
        <pt x="164" y="557" on="0"/>
        <pt x="164" y="588" on="1"/>
        <pt x="164" y="620" on="0"/>
        <pt x="184" y="666" on="0"/>
        <pt x="203" y="666" on="1"/>
        <pt x="1415" y="666" on="1"/>
        <pt x="1433" y="666" on="0"/>
        <pt x="1454" y="619" on="0"/>
        <pt x="1454" y="588" on="1"/>
        <pt x="1454" y="558" on="0"/>
        <pt x="1433" y="512" on="0"/>
      </contour>
    </TTGlyph>
    <TTGlyph name="equal" xMin="184" yMin="465" xMax="1248" yMax="991">
      <contour>
        <pt x="1208" y="827" on="1"/>
        <pt x="225" y="827" on="1"/>
        <pt x="222" y="827" on="1"/>
        <pt x="203" y="827" on="0"/>
        <pt x="184" y="878" on="0"/>
        <pt x="184" y="909" on="1"/>
        <pt x="184" y="940" on="0"/>
        <pt x="203" y="991" on="0"/>
        <pt x="222" y="991" on="1"/>
        <pt x="225" y="991" on="1"/>
        <pt x="1208" y="991" on="1"/>
        <pt x="1228" y="991" on="0"/>
        <pt x="1248" y="941" on="0"/>
        <pt x="1248" y="909" on="1"/>
        <pt x="1248" y="877" on="0"/>
        <pt x="1228" y="827" on="0"/>
      </contour>
      <contour>
        <pt x="1208" y="465" on="1"/>
        <pt x="225" y="465" on="1"/>
        <pt x="222" y="465" on="1"/>
        <pt x="203" y="465" on="0"/>
        <pt x="184" y="516" on="0"/>
        <pt x="184" y="547" on="1"/>
        <pt x="184" y="578" on="0"/>
        <pt x="203" y="629" on="0"/>
        <pt x="222" y="629" on="1"/>
        <pt x="225" y="629" on="1"/>
        <pt x="1208" y="629" on="1"/>
        <pt x="1228" y="629" on="0"/>
        <pt x="1248" y="579" on="0"/>
        <pt x="1248" y="547" on="1"/>
        <pt x="1248" y="515" on="0"/>
        <pt x="1228" y="465" on="0"/>
      </contour>
    </TTGlyph>
    <TTGlyph name="eth" xMin="102" yMin="0" xMax="1055" yMax="1556">
      <contour>
        <pt x="1034" y="1456" on="1"/>
        <pt x="866" y="1368" on="1"/>
        <pt x="1042" y="1151" on="0"/>
        <pt x="1042" y="702" on="1"/>
        <pt x="1042" y="620" on="0"/>
        <pt x="1023" y="452" on="0"/>
        <pt x="979" y="296" on="0"/>
        <pt x="908" y="159" on="0"/>
        <pt x="801" y="58" on="0"/>
        <pt x="657" y="0" on="0"/>
        <pt x="563" y="0" on="1"/>
        <pt x="456" y="0" on="0"/>
        <pt x="285" y="72" on="0"/>
        <pt x="166" y="205" on="0"/>
        <pt x="102" y="393" on="0"/>
        <pt x="102" y="510" on="1"/>
        <pt x="102" y="623" on="0"/>
        <pt x="164" y="811" on="0"/>
        <pt x="278" y="947" on="0"/>
        <pt x="441" y="1022" on="0"/>
        <pt x="543" y="1022" on="1"/>
        <pt x="707" y="1022" on="0"/>
        <pt x="819" y="946" on="1"/>
        <pt x="803" y="1140" on="0"/>
        <pt x="709" y="1286" on="1"/>
        <pt x="475" y="1163" on="1"/>
        <pt x="470" y="1159" on="0"/>
        <pt x="457" y="1159" on="1"/>
        <pt x="438" y="1159" on="0"/>
        <pt x="410" y="1193" on="0"/>
        <pt x="410" y="1212" on="1"/>
        <pt x="410" y="1235" on="0"/>
        <pt x="432" y="1247" on="1"/>
        <pt x="649" y="1360" on="1"/>
        <pt x="546" y="1466" on="0"/>
        <pt x="406" y="1466" on="1"/>
        <pt x="381" y="1466" on="0"/>
        <pt x="327" y="1458" on="0"/>
        <pt x="281" y="1449" on="0"/>
        <pt x="246" y="1442" on="0"/>
        <pt x="240" y="1442" on="1"/>
        <pt x="225" y="1442" on="0"/>
        <pt x="205" y="1465" on="0"/>
        <pt x="205" y="1481" on="1"/>
        <pt x="205" y="1505" on="0"/>
        <pt x="255" y="1535" on="0"/>
        <pt x="326" y="1551" on="0"/>
        <pt x="403" y="1556" on="0"/>
        <pt x="430" y="1556" on="1"/>
        <pt x="652" y="1556" on="0"/>
        <pt x="797" y="1438" on="1"/>
        <pt x="991" y="1540" on="1"/>
        <pt x="1002" y="1544" on="0"/>
        <pt x="1008" y="1544" on="1"/>
        <pt x="1028" y="1544" on="0"/>
        <pt x="1055" y="1509" on="0"/>
        <pt x="1055" y="1491" on="1"/>
        <pt x="1055" y="1466" on="0"/>
      </contour>
      <contour>
        <pt x="555" y="82" on="1"/>
        <pt x="604" y="82" on="0"/>
        <pt x="679" y="124" on="0"/>
        <pt x="735" y="196" on="0"/>
        <pt x="774" y="290" on="0"/>
        <pt x="799" y="395" on="0"/>
        <pt x="814" y="503" on="0"/>
        <pt x="821" y="602" on="0"/>
        <pt x="822" y="686" on="0"/>
        <pt x="822" y="713" on="1"/>
        <pt x="822" y="734" on="0"/>
        <pt x="824" y="783" on="0"/>
        <pt x="823" y="811" on="1"/>
        <pt x="798" y="842" on="0"/>
        <pt x="738" y="891" on="0"/>
        <pt x="673" y="923" on="0"/>
        <pt x="608" y="940" on="0"/>
        <pt x="578" y="940" on="1"/>
        <pt x="506" y="940" on="0"/>
        <pt x="408" y="870" on="0"/>
        <pt x="348" y="750" on="0"/>
        <pt x="322" y="588" on="0"/>
        <pt x="322" y="496" on="1"/>
        <pt x="322" y="391" on="0"/>
        <pt x="357" y="236" on="0"/>
        <pt x="418" y="133" on="0"/>
        <pt x="504" y="82" on="0"/>
      </contour>
    </TTGlyph>
    <TTGlyph name="exclam" xMin="174" yMin="0" xMax="459" yMax="1452">
      <contour>
        <pt x="424" y="1348" on="1"/>
        <pt x="424" y="461" on="1"/>
        <pt x="424" y="430" on="0"/>
        <pt x="358" y="395" on="0"/>
        <pt x="313" y="395" on="1"/>
        <pt x="270" y="395" on="0"/>
        <pt x="207" y="429" on="0"/>
        <pt x="207" y="461" on="1"/>
        <pt x="207" y="1350" on="1"/>
        <pt x="207" y="1452" on="0"/>
        <pt x="309" y="1452" on="1"/>
        <pt x="370" y="1452" on="0"/>
        <pt x="424" y="1400" on="0"/>
      </contour>
      <contour>
        <pt x="174" y="141" on="1"/>
        <pt x="174" y="170" on="0"/>
        <pt x="198" y="223" on="0"/>
        <pt x="237" y="262" on="0"/>
        <pt x="288" y="285" on="0"/>
        <pt x="315" y="285" on="1"/>
        <pt x="344" y="285" on="0"/>
        <pt x="396" y="262" on="0"/>
        <pt x="436" y="222" on="0"/>
        <pt x="459" y="170" on="0"/>
        <pt x="459" y="141" on="1"/>
        <pt x="459" y="114" on="0"/>
        <pt x="436" y="63" on="0"/>
        <pt x="397" y="24" on="0"/>
        <pt x="344" y="0" on="0"/>
        <pt x="315" y="0" on="1"/>
        <pt x="287" y="0" on="0"/>
        <pt x="236" y="23" on="0"/>
        <pt x="197" y="62" on="0"/>
        <pt x="174" y="113" on="0"/>
      </contour>
    </TTGlyph>
    <TTGlyph name="exclamdown" xMin="174" yMin="0" xMax="459" yMax="1452">
      <contour>
        <pt x="209" y="104" on="1"/>
        <pt x="209" y="991" on="1"/>
        <pt x="209" y="1007" on="0"/>
        <pt x="227" y="1031" on="0"/>
        <pt x="258" y="1048" on="0"/>
        <pt x="298" y="1056" on="0"/>
        <pt x="320" y="1056" on="1"/>
        <pt x="340" y="1056" on="0"/>
        <pt x="378" y="1048" on="0"/>
        <pt x="408" y="1033" on="0"/>
        <pt x="426" y="1010" on="0"/>
        <pt x="426" y="995" on="1"/>
        <pt x="426" y="991" on="1"/>
        <pt x="426" y="102" on="1"/>
        <pt x="426" y="0" on="0"/>
        <pt x="324" y="0" on="1"/>
        <pt x="263" y="0" on="0"/>
        <pt x="209" y="52" on="0"/>
      </contour>
      <contour>
        <pt x="459" y="1311" on="1"/>
        <pt x="459" y="1282" on="0"/>
        <pt x="436" y="1230" on="0"/>
        <pt x="397" y="1191" on="0"/>
        <pt x="345" y="1167" on="0"/>
        <pt x="317" y="1167" on="1"/>
        <pt x="288" y="1167" on="0"/>
        <pt x="236" y="1190" on="0"/>
        <pt x="197" y="1229" on="0"/>
        <pt x="174" y="1282" on="0"/>
        <pt x="174" y="1311" on="1"/>
        <pt x="174" y="1339" on="0"/>
        <pt x="198" y="1390" on="0"/>
        <pt x="237" y="1429" on="0"/>
        <pt x="289" y="1452" on="0"/>
        <pt x="317" y="1452" on="1"/>
        <pt x="345" y="1452" on="0"/>
        <pt x="397" y="1428" on="0"/>
        <pt x="436" y="1389" on="0"/>
        <pt x="459" y="1338" on="0"/>
      </contour>
    </TTGlyph>
    <TTGlyph name="f" xMin="49" yMin="0" xMax="893" yMax="1556">
      <contour>
        <pt x="49" y="954" on="1"/>
        <pt x="49" y="1006" on="0"/>
        <pt x="113" y="1010" on="1"/>
        <pt x="229" y="1010" on="1"/>
        <pt x="233" y="1109" on="0"/>
        <pt x="264" y="1254" on="0"/>
        <pt x="309" y="1359" on="0"/>
        <pt x="366" y="1430" on="0"/>
        <pt x="395" y="1454" on="1"/>
        <pt x="519" y="1556" on="0"/>
        <pt x="692" y="1556" on="1"/>
        <pt x="736" y="1556" on="0"/>
        <pt x="810" y="1537" on="0"/>
        <pt x="863" y="1506" on="0"/>
        <pt x="893" y="1466" on="0"/>
        <pt x="893" y="1444" on="1"/>
        <pt x="893" y="1411" on="0"/>
        <pt x="850" y="1372" on="0"/>
        <pt x="811" y="1372" on="1"/>
        <pt x="768" y="1372" on="0"/>
        <pt x="719" y="1432" on="1"/>
        <pt x="701" y="1454" on="0"/>
        <pt x="650" y="1475" on="0"/>
        <pt x="621" y="1475" on="1"/>
        <pt x="587" y="1475" on="0"/>
        <pt x="522" y="1449" on="0"/>
        <pt x="471" y="1383" on="0"/>
        <pt x="440" y="1270" on="0"/>
        <pt x="440" y="1184" on="1"/>
        <pt x="440" y="1010" on="1"/>
        <pt x="668" y="1010" on="1"/>
        <pt x="704" y="1010" on="0"/>
        <pt x="739" y="984" on="0"/>
        <pt x="739" y="965" on="1"/>
        <pt x="739" y="943" on="0"/>
        <pt x="700" y="911" on="0"/>
        <pt x="668" y="911" on="1"/>
        <pt x="440" y="911" on="1"/>
        <pt x="440" y="139" on="1"/>
        <pt x="440" y="95" on="0"/>
        <pt x="426" y="41" on="0"/>
        <pt x="395" y="11" on="0"/>
        <pt x="345" y="0" on="0"/>
        <pt x="309" y="0" on="1"/>
        <pt x="263" y="0" on="0"/>
        <pt x="227" y="47" on="0"/>
        <pt x="227" y="96" on="1"/>
        <pt x="227" y="911" on="1"/>
        <pt x="115" y="911" on="1"/>
        <pt x="49" y="911" on="0"/>
      </contour>
    </TTGlyph>
    <TTGlyph name="fi" xMin="49" yMin="0" xMax="1024" yMax="1556">
      <contour>
        <pt x="49" y="973" on="1"/>
        <pt x="49" y="995" on="0"/>
        <pt x="71" y="1020" on="0"/>
        <pt x="95" y="1027" on="0"/>
        <pt x="113" y="1028" on="1"/>
        <pt x="229" y="1028" on="1"/>
        <pt x="234" y="1150" on="0"/>
        <pt x="288" y="1329" on="0"/>
        <pt x="353" y="1421" on="0"/>
        <pt x="401" y="1460" on="1"/>
        <pt x="457" y="1506" on="0"/>
        <pt x="622" y="1556" on="0"/>
        <pt x="702" y="1556" on="1"/>
        <pt x="806" y="1556" on="0"/>
        <pt x="954" y="1478" on="0"/>
        <pt x="954" y="1434" on="1"/>
        <pt x="954" y="1401" on="0"/>
        <pt x="912" y="1362" on="0"/>
        <pt x="872" y="1362" on="1"/>
        <pt x="853" y="1362" on="0"/>
        <pt x="814" y="1384" on="0"/>
        <pt x="795" y="1403" on="0"/>
        <pt x="764" y="1441" on="0"/>
        <pt x="687" y="1475" on="0"/>
        <pt x="615" y="1475" on="0"/>
        <pt x="548" y="1449" on="0"/>
        <pt x="481" y="1389" on="0"/>
        <pt x="440" y="1268" on="0"/>
        <pt x="440" y="1184" on="1"/>
        <pt x="440" y="1028" on="1"/>
        <pt x="893" y="1028" on="1"/>
        <pt x="1024" y="1028" on="0"/>
        <pt x="1024" y="891" on="1"/>
        <pt x="1024" y="139" on="1"/>
        <pt x="1024" y="52" on="0"/>
        <pt x="966" y="0" on="0"/>
        <pt x="893" y="0" on="1"/>
        <pt x="846" y="0" on="0"/>
        <pt x="811" y="47" on="0"/>
        <pt x="811" y="96" on="1"/>
        <pt x="811" y="930" on="1"/>
        <pt x="440" y="930" on="1"/>
        <pt x="440" y="139" on="1"/>
        <pt x="440" y="52" on="0"/>
        <pt x="382" y="0" on="0"/>
        <pt x="309" y="0" on="1"/>
        <pt x="263" y="0" on="0"/>
        <pt x="227" y="47" on="0"/>
        <pt x="227" y="96" on="1"/>
        <pt x="227" y="930" on="1"/>
        <pt x="115" y="930" on="1"/>
        <pt x="80" y="930" on="0"/>
        <pt x="49" y="950" on="0"/>
      </contour>
    </TTGlyph>
    <TTGlyph name="five" xMin="115" yMin="0" xMax="979" yMax="1452">
      <contour>
        <pt x="864" y="1270" on="1"/>
        <pt x="365" y="1270" on="1"/>
        <pt x="332" y="846" on="1"/>
        <pt x="432" y="942" on="0"/>
        <pt x="596" y="942" on="1"/>
        <pt x="979" y="942" on="0"/>
        <pt x="979" y="502" on="1"/>
        <pt x="979" y="447" on="0"/>
        <pt x="958" y="331" on="0"/>
        <pt x="912" y="219" on="0"/>
        <pt x="839" y="119" on="0"/>
        <pt x="733" y="44" on="0"/>
        <pt x="593" y="0" on="0"/>
        <pt x="504" y="0" on="1"/>
        <pt x="301" y="0" on="0"/>
        <pt x="162" y="84" on="1"/>
        <pt x="115" y="111" on="0"/>
        <pt x="115" y="188" on="1"/>
        <pt x="115" y="281" on="1"/>
        <pt x="115" y="335" on="0"/>
        <pt x="158" y="383" on="0"/>
        <pt x="203" y="383" on="1"/>
        <pt x="262" y="383" on="0"/>
        <pt x="311" y="323" on="0"/>
        <pt x="311" y="250" on="1"/>
        <pt x="311" y="133" on="1"/>
        <pt x="377" y="104" on="0"/>
        <pt x="494" y="104" on="1"/>
        <pt x="549" y="104" on="0"/>
        <pt x="643" y="157" on="0"/>
        <pt x="711" y="256" on="0"/>
        <pt x="750" y="399" on="0"/>
        <pt x="750" y="489" on="1"/>
        <pt x="750" y="584" on="0"/>
        <pt x="709" y="709" on="0"/>
        <pt x="642" y="782" on="0"/>
        <pt x="558" y="811" on="0"/>
        <pt x="516" y="811" on="1"/>
        <pt x="450" y="811" on="0"/>
        <pt x="341" y="753" on="0"/>
        <pt x="309" y="702" on="1"/>
        <pt x="296" y="682" on="0"/>
        <pt x="253" y="662" on="0"/>
        <pt x="225" y="662" on="1"/>
        <pt x="168" y="662" on="0"/>
        <pt x="168" y="725" on="1"/>
        <pt x="215" y="1393" on="1"/>
        <pt x="217" y="1422" on="0"/>
        <pt x="252" y="1452" on="0"/>
        <pt x="287" y="1452" on="1"/>
        <pt x="887" y="1452" on="1"/>
        <pt x="956" y="1452" on="0"/>
        <pt x="956" y="1372" on="1"/>
        <pt x="956" y="1354" on="0"/>
        <pt x="945" y="1317" on="0"/>
        <pt x="922" y="1288" on="0"/>
        <pt x="888" y="1270" on="0"/>
      </contour>
    </TTGlyph>
    <TTGlyph name="fl" xMin="49" yMin="0" xMax="1024" yMax="1556">
      <contour>
        <pt x="1024" y="1356" on="1"/>
        <pt x="1024" y="139" on="1"/>
        <pt x="1024" y="52" on="0"/>
        <pt x="966" y="0" on="0"/>
        <pt x="893" y="0" on="1"/>
        <pt x="846" y="0" on="0"/>
        <pt x="811" y="47" on="0"/>
        <pt x="811" y="96" on="1"/>
        <pt x="811" y="1411" on="1"/>
        <pt x="747" y="1475" on="0"/>
        <pt x="651" y="1475" on="1"/>
        <pt x="615" y="1475" on="0"/>
        <pt x="548" y="1449" on="0"/>
        <pt x="481" y="1389" on="0"/>
        <pt x="440" y="1268" on="0"/>
        <pt x="440" y="1184" on="1"/>
        <pt x="440" y="1028" on="1"/>
        <pt x="649" y="1028" on="1"/>
        <pt x="685" y="1028" on="0"/>
        <pt x="721" y="1002" on="0"/>
        <pt x="721" y="983" on="1"/>
        <pt x="721" y="962" on="0"/>
        <pt x="681" y="930" on="0"/>
        <pt x="649" y="930" on="1"/>
        <pt x="440" y="930" on="1"/>
        <pt x="440" y="139" on="1"/>
        <pt x="440" y="52" on="0"/>
        <pt x="382" y="0" on="0"/>
        <pt x="309" y="0" on="1"/>
        <pt x="263" y="0" on="0"/>
        <pt x="227" y="47" on="0"/>
        <pt x="227" y="96" on="1"/>
        <pt x="227" y="930" on="1"/>
        <pt x="115" y="930" on="1"/>
        <pt x="80" y="930" on="0"/>
        <pt x="49" y="950" on="0"/>
        <pt x="49" y="973" on="1"/>
        <pt x="49" y="995" on="0"/>
        <pt x="71" y="1020" on="0"/>
        <pt x="95" y="1027" on="0"/>
        <pt x="113" y="1028" on="1"/>
        <pt x="229" y="1028" on="1"/>
        <pt x="234" y="1150" on="0"/>
        <pt x="288" y="1329" on="0"/>
        <pt x="353" y="1421" on="0"/>
        <pt x="401" y="1460" on="1"/>
        <pt x="457" y="1506" on="0"/>
        <pt x="622" y="1556" on="0"/>
        <pt x="702" y="1556" on="1"/>
        <pt x="790" y="1556" on="0"/>
        <pt x="928" y="1517" on="0"/>
        <pt x="1021" y="1425" on="0"/>
      </contour>
    </TTGlyph>
    <TTGlyph name="florin" xMin="-123" yMin="-451" xMax="1147" yMax="1556">
      <contour>
        <pt x="180" y="973" on="1"/>
        <pt x="187" y="1005" on="0"/>
        <pt x="219" y="1026" on="0"/>
        <pt x="246" y="1028" on="1"/>
        <pt x="393" y="1028" on="1"/>
        <pt x="424" y="1150" on="0"/>
        <pt x="512" y="1325" on="0"/>
        <pt x="593" y="1414" on="0"/>
        <pt x="649" y="1454" on="1"/>
        <pt x="796" y="1556" on="0"/>
        <pt x="969" y="1556" on="1"/>
        <pt x="1051" y="1556" on="0"/>
        <pt x="1147" y="1497" on="0"/>
        <pt x="1147" y="1456" on="1"/>
        <pt x="1147" y="1418" on="0"/>
        <pt x="1104" y="1372" on="0"/>
        <pt x="1067" y="1372" on="1"/>
        <pt x="1043" y="1372" on="0"/>
        <pt x="1004" y="1393" on="0"/>
        <pt x="976" y="1424" on="0"/>
        <pt x="948" y="1454" on="0"/>
        <pt x="907" y="1475" on="0"/>
        <pt x="881" y="1475" on="1"/>
        <pt x="846" y="1475" on="0"/>
        <pt x="781" y="1449" on="0"/>
        <pt x="712" y="1389" on="0"/>
        <pt x="654" y="1269" on="0"/>
        <pt x="637" y="1184" on="1"/>
        <pt x="604" y="1028" on="1"/>
        <pt x="831" y="1028" on="1"/>
        <pt x="895" y="1028" on="0"/>
        <pt x="895" y="989" on="1"/>
        <pt x="895" y="966" on="0"/>
        <pt x="859" y="930" on="0"/>
        <pt x="827" y="930" on="1"/>
        <pt x="584" y="930" on="1"/>
        <pt x="438" y="248" on="1"/>
        <pt x="372" y="-65" on="0"/>
        <pt x="223" y="-246" on="1"/>
        <pt x="171" y="-311" on="0"/>
        <pt x="1" y="-451" on="0"/>
        <pt x="-61" y="-451" on="1"/>
        <pt x="-85" y="-451" on="0"/>
        <pt x="-123" y="-433" on="0"/>
        <pt x="-123" y="-416" on="1"/>
        <pt x="-120" y="-365" on="0"/>
        <pt x="-57" y="-332" on="1"/>
        <pt x="-27" y="-316" on="0"/>
        <pt x="-5" y="-303" on="0"/>
        <pt x="47" y="-266" on="0"/>
        <pt x="118" y="-170" on="0"/>
        <pt x="178" y="20" on="0"/>
        <pt x="193" y="90" on="1"/>
        <pt x="371" y="930" on="1"/>
        <pt x="254" y="930" on="1"/>
        <pt x="214" y="930" on="0"/>
        <pt x="180" y="950" on="0"/>
      </contour>
    </TTGlyph>
</ttFont>
